<?xml version="1.0" encoding="utf-8"?>
<!-- Generator: Adobe Illustrator 15.1.0, SVG Export Plug-In . SVG Version: 6.00 Build 0)  -->
<!DOCTYPE svg PUBLIC "-//W3C//DTD SVG 1.1//EN" "http://www.w3.org/Graphics/SVG/1.1/DTD/svg11.dtd">
<svg version="1.1" id="Cloud" xmlns="http://www.w3.org/2000/svg" xmlns:xlink="http://www.w3.org/1999/xlink" x="0px" y="0px"
	 width="207px" height="207px" viewBox="0 0 207 207" enable-background="new 0 0 207 207" xml:space="preserve">
<g>
	<g>
		<path fill="#009AD0" d="M58.877,127.631c0.255,0.192,0.381,1.716,0.381,4.577c0,2.86-0.158,5.467-0.477,7.819
			c-0.063,0.189-0.158,0.415-0.285,0.668l-0.477,0.477c-0.953,0.89-2.766,1.812-5.436,2.765c-4.45,1.589-9.98,2.383-16.59,2.383
			c-9.283,0-17.197-3.018-23.743-9.058c-6.675-6.038-10.078-13.636-10.204-22.788v-0.096c0.126-9.091,3.529-16.688,10.204-22.789
			c6.546-6.039,14.46-9.06,23.743-9.06c6.609,0,12.14,0.796,16.59,2.385c2.67,0.952,4.482,1.875,5.436,2.764l0.477,0.478
			c0.127,0.254,0.223,0.477,0.285,0.667c0.318,2.353,0.477,4.959,0.477,7.819c0,2.86-0.126,4.386-0.381,4.576h-0.191
			c-0.126-0.763-0.443-1.682-0.951-2.764c-0.511-1.082-1.288-2.194-2.337-3.338c-1.049-1.145-2.368-2.302-3.956-3.479
			c-1.591-1.175-3.528-2.273-5.819-3.291c-2.542-1.144-5.848-1.717-9.915-1.717c-6.865,0-12.491,2.29-16.878,6.867
			c-4.705,4.958-7.057,11.761-7.057,20.404v0.478v0.096v0.477c0,8.645,2.352,15.447,7.057,20.406
			c4.387,4.576,10.013,6.864,16.878,6.864c4.067,0,7.373-0.572,9.915-1.716c2.291-1.017,4.229-2.113,5.819-3.291
			c1.588-1.176,2.907-2.336,3.956-3.48s1.826-2.256,2.337-3.336c0.508-1.081,0.825-2.003,0.951-2.767H58.877z"/>
		<path fill="#009AD0" d="M69.942,122.388c0,1.653,0.951,2.669,2.859,3.051c0.318,0.063,1.97,0.095,4.958,0.095
			c1.207,0,2.351-0.095,3.432-0.285c2.226-0.635,3.848-1.32,4.865-2.05c1.017-0.731,1.685-1.573,2-2.527l-1.047,7.057l-0.096,0.286
			h-1.527c-2.796-0.19-6.324-0.286-10.585-0.286c-1.588,0-3.414,0-5.481,0c-2.065,0-4.433,0.03-7.104,0.096
			c2.035-0.318,3.052-1.939,3.052-4.864V97.976h-0.096c0-2.923-1.017-4.542-3.052-4.862v-0.096h10.872v0.096
			c-0.955,0.19-1.687,0.749-2.193,1.669c-0.509,0.922-0.796,2.464-0.857,4.624V122.388z"/>
		<path fill="#009AD0" d="M128.093,111.803c0,5.213-1.908,9.568-5.721,13.063c-3.687,3.497-8.169,5.245-13.444,5.245
			c-5.531,0-10.073-1.652-13.634-4.959c-3.753-3.368-5.627-7.754-5.627-13.158c0-5.211,1.904-9.599,5.721-13.159
			c3.687-3.494,8.2-5.244,13.54-5.244c5.467,0,10.011,1.716,13.636,5.148C126.25,102.172,128.093,106.528,128.093,111.803z
			 M122.659,112.757c0-5.149-1.432-9.218-4.293-12.206c-2.668-2.923-6.229-4.386-10.679-4.386c-1.844,0-3.525,0.366-5.053,1.098
			c-1.527,0.73-2.845,1.731-3.958,3.002c-1.11,1.273-1.987,2.831-2.621,4.672c-0.637,1.845-0.955,3.847-0.955,6.006
			c0,5.277,1.367,9.411,4.101,12.396c2.67,2.861,6.293,4.291,10.871,4.291c3.685,0,6.707-1.366,9.058-4.1
			S122.659,117.207,122.659,112.757z"/>
		<path fill="#009AD0" d="M156.77,92.924l9.056-0.097v0.097c-1.97,0.319-2.953,1.939-2.953,4.863v15.447
			c0.315,4.958-0.797,8.74-3.341,11.346c-2.606,2.671-6.387,4.007-11.344,4.007c-10.427,0-15.641-4.896-15.641-14.686V97.787
			c0-2.924-1.014-4.544-3.049-4.863v-0.097h10.87c-0.953,0.191-1.685,0.75-2.193,1.669c-0.51,0.924-0.797,2.433-0.857,4.53v13.921
			c0,4.576,0.92,7.898,2.764,9.963c1.843,2.067,4.865,3.101,9.06,3.101c7.182,0,10.773-4.101,10.773-12.3l-0.096-15.924
			C159.818,94.925,158.805,93.305,156.77,92.924z"/>
		<path fill="#009AD0" d="M168.914,128.491c2.032-0.318,3.049-1.939,3.049-4.865l0.096-24.982v-0.096
			c0-2.86-1.017-4.481-3.049-4.862c6.163-0.19,11.312-0.287,15.444-0.287c6.104,0,11.028,1.495,14.778,4.483
			c3.816,3.051,5.721,7.214,5.721,12.49c0,6.294-2.032,10.999-6.102,14.111c-3.752,2.927-8.644,4.293-14.685,4.103
			c-0.697,0-2.32,0-4.862,0S173.299,128.554,168.914,128.491z M176.922,122.006c0,1.716,0.462,2.859,1.382,3.433
			c0.921,0.572,2.749,0.857,5.484,0.857c10.424,0,15.636-5.083,15.636-15.257c0-10.296-5.306-15.446-15.921-15.446h-3.722
			c-1.908,0.191-2.859,0.763-2.859,1.717V122.006z"/>
	</g>
	<g>
		<path fill="#009AD0" d="M81.934,60.682c-0.028,2.714-0.057,5.036-0.086,6.961h-0.176c-1.313-1.955-2.423-3.254-3.327-3.896
			c-1.141-0.817-3.097-1.228-5.868-1.228h-1.665c-0.524,0.059-0.817,0.176-0.875,0.351c-0.06,0.088-0.088,0.205-0.088,0.351
			l-0.044,21.544c0,0.818,0.218,1.504,0.656,2.06c0.293,0.438,0.656,0.81,1.095,1.117c0.438,0.306,0.949,0.518,1.533,0.636
			c0.06,0.057,0.073,0.101,0.044,0.129c-0.116,0.089-0.482,0.117-1.095,0.089c-3.767-0.146-6.672-0.146-8.715,0
			c-0.438,0.027-0.729-0.031-0.876-0.176c0.993-0.087,1.831-0.445,2.519-1.072c0.686-0.628,1.059-1.365,1.116-2.212l-0.044-22.115
			c0-0.291-0.146-0.51-0.438-0.657h-2.32c-2.773,0-4.729,0.409-5.868,1.225c-0.903,0.644-2.014,1.942-3.327,3.899h-0.176
			c-0.028-1.928-0.06-4.249-0.086-6.963l12.041,0.044L81.934,60.682z"/>
		<path fill="#009AD0" d="M112.473,88.729h-0.773c-0.57,0-1.2,0-1.898,0c-0.697,0-1.434,0.027-2.209,0.077
			c1.602-0.257,2.402-1.575,2.402-3.952v-8.058c0-0.619-0.079-1.033-0.231-1.239c-0.155-0.206-0.494-0.31-1.009-0.31H93.491
			c-0.672,0-1.072,0.091-1.2,0.272c-0.13,0.181-0.195,0.581-0.195,1.2v8.136c0,2.325,0.8,3.617,2.402,3.875v0.077l-3.796-0.077
			h-0.773c-0.57,0-1.202,0-1.9,0c-0.696,0-1.432,0.027-2.209,0.077c1.654-0.257,2.48-1.575,2.48-3.952V64.865h-0.076v-0.079
			c0-2.323-0.827-3.641-2.48-3.951v-0.078h8.833v0.078c-0.775,0.104-1.368,0.53-1.784,1.279c-0.411,0.749-0.646,2.002-0.696,3.756
			v5.657c0,0.982,0.465,1.472,1.396,1.472h15.029c0.57,0,0.955-0.05,1.163-0.155c0.207-0.206,0.311-0.67,0.311-1.393v-6.742
			c0-2.374-0.825-3.692-2.479-3.952v-0.076h8.831v0.076c-0.773,0.154-1.368,0.608-1.782,1.356c-0.413,0.749-0.646,2.002-0.696,3.756
			v18.983c0,2.376,0.802,3.694,2.404,3.952L112.473,88.729z"/>
		<path fill="#009AD0" d="M140.141,88.73c-0.151,0.051-0.458,0.076-0.913,0.076c-2.229-0.152-5.04-0.227-8.432-0.227
			c-1.268,0-2.724,0-4.37,0c-1.646,0-3.533,0.025-5.659,0.075c1.621-0.253,2.433-1.545,2.433-3.875V64.95
			c0-2.329-0.812-3.62-2.433-3.874V61h7.9c1.114,0,2.167-0.012,3.153-0.038c0.987-0.025,1.938-0.063,2.85-0.114h0.305
			c0.656,0,1.276-0.013,1.86-0.039c0.582-0.025,1.152-0.063,1.709-0.114c0.911-0.051,1.367,0.026,1.367,0.228v4.406
			c-0.102-0.81-0.621-1.391-1.557-1.748c-0.938-0.354-2.749-0.631-5.432-0.835c-0.607-0.049-1.331-0.076-2.165-0.076
			c-0.837,0-1.786,0-2.849,0c-0.457,0-0.76,0.076-0.913,0.228c-0.052,0.052-0.076,0.278-0.076,0.683v8.889
			c0,0.303,0.203,0.456,0.608,0.456c0.354,0,1.202,0,2.544,0s3.204,0.026,5.585,0.077c1.164,0,2.014-0.267,2.544-0.798
			c0.532-0.531,0.849-1.151,0.949-1.86h0.077c-0.052,1.115-0.052,3.444,0,6.989c-0.305-1.622-1.595-2.432-3.874-2.432
			c-0.911-0.05-2.041-0.087-3.381-0.114c-1.344-0.025-2.899-0.038-4.672-0.038c-0.255,0-0.381,0.102-0.381,0.304v9.269
			c0,1.318,0.76,2.127,2.279,2.431c0.253,0.052,1.57,0.077,3.949,0.077c1.066,0,1.978-0.102,2.737-0.305
			c1.772-0.456,3.064-0.986,3.874-1.595c0.81-0.607,1.342-1.265,1.596-1.974l-0.836,5.546l-0.075,0.303L140.141,88.73z"/>
	</g>
</g>
</svg>
