<?xml version="1.0" encoding="utf-8"?>
<!-- Generator: Adobe Illustrator 15.1.0, SVG Export Plug-In . SVG Version: 6.00 Build 0)  -->
<!DOCTYPE svg PUBLIC "-//W3C//DTD SVG 1.1//EN" "http://www.w3.org/Graphics/SVG/1.1/DTD/svg11.dtd">
<svg version="1.1" id="Layer_12" xmlns="http://www.w3.org/2000/svg" xmlns:xlink="http://www.w3.org/1999/xlink" x="0px" y="0px"
	 width="207px" height="207px" viewBox="0 0 207 207" enable-background="new 0 0 207 207" xml:space="preserve">
<g>
	<g>
		<path fill="#EDD03E" d="M163.749,68.006c13.623,2.745,11.926-7.234,27.245-16.466c-17.016-14.271-46.456,6.387-47.604,6.237
			c-0.906-0.119,1.264-2.402,1.979-3.885c0.126-0.258,5.307-5.795,7.053-5.795c1.747,0,1.513,1.418,2.803,1.307
			c1.289-0.109,1.867-0.8,1.938-1.856c-0.141-0.862-1.637-2.169-4.191-0.898c-3.27,1.628-7.393,5.56-7.685,5.39
			c-0.333-0.195,1.045-5.822,0.928-8.832c-0.093-2.388-3.095-1.912-3.821-1.049c-0.415,0.494-1.151,1.206-0.775,1.751
			c0.875,1.892,3.541-0.692,3.818,0.396c0.632,2.471-1.944,7.938-1.843,7.928c0.102-0.01-1.78,2.791-3.296,2.75
			c-1.847-0.049,4.591-26.795-17.964-33.232c0,0,1.796,4.491-4.084,16.174c-1.253,4.275-4.05,5.632,1.14,13.117
			c-4.341,0.499-7.186,5.838-8.482,10.56c-2.875,10.455-6.138,8.202-9.474,13.99c5.639-2.095,15.012-0.081,21.299-1.661
			c6.288-1.582,9.182-9.566,12.874-11.412c3.095,0.6-8.057,11.064-3.792,13.473c2.495,2.195,9.419-15.598,9.574-12.375
			c0.156,3.224-2.977,14.619-0.842,18.063c5.688,9.182,10.904,5.438,12.026,10.579c1.696,7.784,1.496,9.159,2.195,9.081
			c1.287-0.143-0.498-9.075,1.197-15.318c0.948-3.493,6.132-5.921,7.999-11.303C164.598,72.898,164.041,69.322,163.749,68.006z"/>
		<g>
			<g>
				<g>
					<path fill="#EED13D" d="M33.713,85.345l-0.045,1.353c0,3.07,0.246,5.631,0.737,7.677l-0.894,0.143
						c-1.311-5.118-4.387-7.677-9.227-7.677c-3.307,0-6.029,1.162-8.166,3.483c-2.138,2.324-3.206,5.276-3.206,8.86
						c0,3.729,1.054,6.734,3.161,9.009c2.107,2.277,4.889,3.414,8.345,3.414c4.319,0,7.552-1.824,9.696-5.475l1.05,0.566
						c-2.547,4.633-6.509,6.949-11.886,6.949c-4.006,0-7.384-1.326-10.132-3.979c-2.747-2.654-4.122-5.921-4.122-9.799
						c0-4.148,1.386-7.619,4.156-10.414c2.77-2.795,6.218-4.193,10.344-4.193c1.877,0,3.999,0.425,6.367,1.274
						c0.178,0.067,0.291,0.107,0.334,0.12l0.314,0.121c0.268,0.095,0.559,0.142,0.871,0.142c0.789,0,1.273-0.525,1.451-1.575H33.713
						z"/>
					<path fill="#EED13D" d="M38.605,86.698v-1.03h12.221v1.03h-0.38c-1.534,0-2.592,0.341-3.173,1.021
						c-0.58,0.681-0.871,1.923-0.871,3.729v15.999c0,1.807,0.291,3.049,0.871,3.729c0.581,0.68,1.639,1.02,3.173,1.02h0.38v1.031
						H38.605v-1.031h0.268c1.58,0,2.666-0.34,3.262-1.02s0.895-1.922,0.895-3.729V91.447c0-1.806-0.299-3.048-0.895-3.729
						c-0.596-0.68-1.682-1.021-3.262-1.021H38.605z"/>
					<path fill="#EED13D" d="M79.154,85.667l0.492,6.404h-0.85c-0.238-1.805-0.805-3.013-1.697-3.625
						c-0.895-0.613-2.525-0.921-4.893-0.921h-3.776v19.939c0,1.793,0.286,3.029,0.86,3.709c0.573,0.68,1.619,1.02,3.139,1.02h0.85
						v1.031h-13.07v-1.031h0.715c1.579,0,2.666-0.34,3.262-1.02s0.895-1.916,0.895-3.709V87.526h-3.664
						c-2.354,0-4.021,0.331-5.005,0.99c-0.983,0.661-1.571,1.853-1.765,3.576h-0.85l0.515-6.425H79.154z"/>
					<path fill="#EED13D" d="M111.348,85.667v0.99c-2.294,0-4.096,0.937-5.406,2.809c-0.313,0.458-0.491,0.714-0.536,0.768
						l-8.288,11.071v6.14c0,1.752,0.313,2.98,0.938,3.688c0.627,0.707,1.698,1.061,3.218,1.061h0.269v1.031H89.342v-1.031h0.269
						c1.579,0,2.666-0.34,3.262-1.02s0.894-1.922,0.894-3.729v-6.202l-7.148-11.818c-1.117-1.845-2.891-2.768-5.318-2.768h-0.268
						v-0.99h12.064v1.01h-0.47c-1.817,0-2.726,0.479-2.726,1.436c0,0.391,0.127,0.781,0.381,1.172l0.491,0.707l5.652,9.313
						l7.148-9.475c0.507-0.66,0.76-1.272,0.76-1.839c0-0.889-0.976-1.333-2.926-1.333v-0.99H111.348z"/>
				</g>
				<g>
					<path fill="#EED13D" d="M35.074,117.945c-0.074,0.506-0.109,1.059-0.109,1.658c0,2.465,0.196,4.824,0.589,7.078l-0.589,0.1
						c-0.582-2.572-1.703-4.434-3.361-5.588c-1.659-1.152-4.046-1.73-7.16-1.73c-3.404,0-6.242,1.154-8.513,3.459
						c-2.271,2.307-3.405,5.191-3.405,8.658c0,3.678,1.197,6.732,3.591,9.166c2.394,2.432,5.409,3.648,9.048,3.648
						c1.805,0,3.441-0.273,4.912-0.82c1.469-0.547,2.203-1.158,2.203-1.838v-2.541c0-1.771-0.287-2.996-0.861-3.668
						c-0.575-0.674-1.612-1.01-3.111-1.01l-0.349-0.02v-1h12.026v1l-0.371,0.02c-1.542,0-2.604,0.336-3.187,1.01
						c-0.582,0.672-0.873,1.896-0.873,3.668v4.039c-2.867,1.84-6.381,2.758-10.542,2.758c-4.92,0-8.855-1.277-11.81-3.838
						c-2.954-2.559-4.431-5.963-4.431-10.217c0-4.051,1.408-7.402,4.224-10.053c2.815-2.654,6.37-3.98,10.663-3.98
						c2.59,0,5.268,0.428,8.032,1.279c0.684,0.215,1.164,0.32,1.44,0.32c0.729,0,1.172-0.521,1.332-1.559H35.074z"/>
					<path fill="#EED13D" d="M57.447,117.725l9.865,23.07c0.611,1.439,1.241,2.412,1.889,2.92c0.646,0.506,1.626,0.785,2.936,0.838
						v1.021H61.005v-1.021h0.239c2.038-0.092,3.057-0.611,3.057-1.559c0-0.398-0.139-0.932-0.414-1.598l-1.922-4.76H50.68
						l-1.941,4.238c-0.467,1.027-0.699,1.752-0.699,2.18c0,1,1.07,1.498,3.209,1.498v1.021h-9.626v-1.021
						c2.415,0,4.241-1.365,5.479-4.098L57.447,117.725z M51.313,135.238H61.42l-4.78-11.717L51.313,135.238z"/>
					<path fill="#EED13D" d="M81.938,132.957v6.898c0,1.787,0.284,3.016,0.852,3.689s1.601,1.008,3.1,1.008h0.371v1.021H74.32
						v-1.021h0.262c1.542,0,2.604-0.334,3.187-1.008c0.581-0.674,0.874-1.902,0.874-3.689v-15.834c0-1.785-0.293-3.014-0.874-3.688
						c-0.582-0.674-1.645-1.012-3.187-1.012H74.32v-1.018h12.07c7.13,0,10.695,2.357,10.695,7.076c0,1.732-0.608,3.24-1.822,4.52
						c-1.215,1.279-2.82,2.111-4.813,2.498l5.587,8.156c1.848,2.68,4.126,4.02,6.833,4.02v1h-7.379l-8.665-12.617h-3.208H81.938z
						 M81.938,121.223v9.717c0,0.348,0.306,0.52,0.917,0.52l2.292,0.039c5.471,0,8.207-1.965,8.207-5.896
						c0-3.891-2.4-5.838-7.203-5.838c-1.863,0-3.031,0.084-3.504,0.25S81.938,120.584,81.938,121.223z"/>
					<path fill="#EED13D" d="M105.249,145.574v-1.021h0.263c1.543,0,2.604-0.334,3.187-1.008s0.874-1.902,0.874-3.689v-15.834
						c0-1.785-0.292-3.014-0.874-3.688s-1.644-1.012-3.187-1.012h-0.263v-1.018h9.954c6.01,0,10.252,0.672,12.726,2.018
						c4.146,2.254,6.221,5.979,6.221,11.176c0,4.479-1.532,7.945-4.595,10.396c-3.063,2.453-7.389,3.68-12.977,3.68H105.249z
						 M112.867,120.404v22.971c1.484,0.412,3.086,0.619,4.803,0.619c3.74,0,6.795-1.135,9.167-3.41
						c2.372-2.271,3.559-5.199,3.559-8.785c0-3.678-1.157-6.594-3.472-8.746c-2.313-2.154-5.441-3.229-9.386-3.229
						C115.807,119.824,114.25,120.018,112.867,120.404z"/>
					<path fill="#EED13D" d="M160.561,118.305l0.458,6.557h-0.852c-0.262-1.758-0.913-3.018-1.953-3.777
						c-1.04-0.762-2.638-1.141-4.791-1.141h-7.53v10.455l6.461-0.039c2.066,0,3.474-0.279,4.224-0.84
						c0.749-0.559,1.124-1.619,1.124-3.178h0.896v9.615h-0.896c-0.087-1.586-0.477-2.633-1.168-3.139s-2.085-0.76-4.18-0.76
						l-6.461-0.08v9.877c0,0.879,0.131,1.445,0.393,1.699s0.852,0.381,1.769,0.381h6.352c2.43,0,4.246-0.395,5.445-1.18
						c1.201-0.787,2.216-2.248,3.046-4.379l0.829,0.219l-2.336,6.979h-23.115v-1.021h0.263c1.542,0,2.604-0.334,3.187-1.008
						c0.581-0.674,0.873-1.902,0.873-3.689v-15.834c0-1.785-0.292-3.014-0.873-3.688c-0.583-0.674-1.645-1.012-3.187-1.012h-0.263
						v-1.018H160.561z"/>
					<path fill="#EED13D" d="M192.932,145.594l-20.344-23.07v17.332c0,1.787,0.291,3.016,0.873,3.689s1.645,1.008,3.188,1.008h0.262
						v1.021h-10.281v-1.021h0.263c1.542,0,2.604-0.334,3.187-1.008c0.581-0.674,0.873-1.902,0.873-3.689v-18.393
						c-1.397-1.439-3.253-2.158-5.566-2.158h-0.065h-0.131v-1h8.294l17.812,20.252v-14.535c0-1.771-0.294-2.998-0.884-3.678
						c-0.589-0.682-1.648-1.021-3.176-1.021h-0.262v-1.018h10.281v1.018h-0.263c-1.543,0-2.604,0.34-3.187,1.021
						c-0.582,0.68-0.873,1.906-0.873,3.678V145.594z"/>
				</g>
			</g>
		</g>
		<g>
			<g>
				<rect x="4.5" y="150.674" fill="#ECD135" width="198" height="1.596"/>
			</g>
			<g>
				<rect x="4.5" y="175.424" fill="#ECD135" width="198" height="1.596"/>
			</g>
		</g>
	</g>
	<g>
		<path fill="#146634" d="M26.43,155.418l0.219,3.893h-0.565c-0.098-0.679-0.244-1.165-0.438-1.46
			c-0.304-0.476-0.708-0.825-1.213-1.049c-0.505-0.223-1.165-0.334-1.979-0.334h-2.81v12.68c0,1.014,0.134,1.647,0.401,1.901
			c0.364,0.345,0.937,0.517,1.715,0.517h0.693v0.456h-8.447v-0.456h0.711c0.84,0,1.436-0.213,1.788-0.639
			c0.207-0.253,0.311-0.847,0.311-1.779v-12.68h-2.391c-0.924,0-1.581,0.056-1.971,0.167c-0.511,0.152-0.948,0.448-1.313,0.89
			c-0.364,0.44-0.577,1.036-0.639,1.786H9.936l0.237-3.893H26.43z"/>
		<path fill="#146634" d="M49.403,172.021h-5.31l-6.751-7.754c-0.498,0.01-0.906,0.015-1.222,0.015
			c-0.122,0-0.256-0.002-0.401-0.008c-0.146-0.005-0.299-0.007-0.456-0.007v4.819c0,1.044,0.134,1.693,0.401,1.946
			c0.377,0.354,0.937,0.532,1.678,0.532h0.785v0.456h-8.539v-0.456h0.748c0.84,0,1.441-0.229,1.807-0.685
			c0.206-0.253,0.31-0.852,0.31-1.794v-10.719c0-1.044-0.134-1.693-0.401-1.946c-0.389-0.365-0.961-0.548-1.715-0.548h-0.748v-0.456
			h7.262c2.116,0,3.677,0.13,4.68,0.388c1.004,0.259,1.855,0.732,2.555,1.422s1.049,1.511,1.049,2.463
			c0,1.024-0.398,1.911-1.195,2.661c-0.796,0.75-2.034,1.282-3.713,1.597l4.105,4.759c0.949,1.095,1.761,1.822,2.436,2.182
			c0.676,0.36,1.554,0.586,2.637,0.677V172.021z M35.264,163.492c0.182,0,0.343,0.002,0.483,0.007
			c0.14,0.006,0.252,0.008,0.337,0.008c1.897,0,3.33-0.345,4.297-1.034c0.967-0.688,1.451-1.561,1.451-2.614
			c0-1.034-0.39-1.876-1.168-2.524s-1.813-0.973-3.102-0.973c-0.56,0-1.326,0.075-2.299,0.228V163.492z"/>
		<path fill="#146634" d="M61.832,155.038c2.578,0,4.816,0.818,6.714,2.456c1.897,1.637,2.847,3.682,2.847,6.135
			c0,2.523-0.955,4.617-2.864,6.279c-1.91,1.662-4.222,2.493-6.934,2.493c-2.736,0-5.039-0.811-6.906-2.433
			c-1.867-1.621-2.8-3.725-2.8-6.31c0-2.636,1.076-4.784,3.229-6.447C56.99,155.763,59.229,155.038,61.832,155.038z M61.559,155.936
			c-1.788,0-3.218,0.552-4.288,1.657c-1.35,1.368-2.025,3.375-2.025,6.021c0,2.706,0.699,4.789,2.099,6.249
			c1.059,1.115,2.463,1.673,4.215,1.673c1.873,0,3.421-0.608,4.644-1.825c1.222-1.216,1.833-3.132,1.833-5.747
			c0-2.848-0.675-4.967-2.025-6.355C64.939,156.493,63.456,155.936,61.559,155.936z"/>
		<path fill="#146634" d="M80.409,164.252v4.835c0,1.044,0.14,1.693,0.42,1.946c0.364,0.354,0.924,0.532,1.678,0.532h0.767v0.456
			h-8.539v-0.456h0.748c0.852,0,1.454-0.229,1.807-0.685c0.207-0.253,0.311-0.852,0.311-1.794v-10.719
			c0-1.044-0.134-1.693-0.401-1.946c-0.39-0.365-0.961-0.548-1.716-0.548h-0.748v-0.456h7.299c1.788,0,3.195,0.155,4.224,0.464
			c1.027,0.31,1.895,0.826,2.6,1.551s1.059,1.584,1.059,2.577c0,1.358-0.535,2.461-1.605,3.308c-1.07,0.846-2.585,1.27-4.543,1.27
			c-0.487,0-1.01-0.028-1.569-0.084S81.041,164.363,80.409,164.252z M80.409,163.553c0.522,0.081,0.985,0.142,1.387,0.183
			c0.401,0.04,0.741,0.061,1.021,0.061c1.021,0,1.9-0.329,2.637-0.988c0.735-0.659,1.104-1.51,1.104-2.555
			c0-0.709-0.177-1.373-0.529-1.991s-0.852-1.08-1.496-1.384s-1.374-0.456-2.189-0.456c-0.499,0-1.144,0.076-1.934,0.228V163.553z"
			/>
		<path fill="#146634" d="M101.94,171.565v0.456h-8.539v-0.456h0.712c0.814,0,1.41-0.197,1.788-0.593
			c0.23-0.264,0.347-0.893,0.347-1.886v-10.719c0-0.842-0.062-1.399-0.183-1.673c-0.098-0.202-0.299-0.375-0.603-0.517
			c-0.438-0.203-0.888-0.305-1.35-0.305h-0.712v-0.456h8.539v0.456h-0.73c-0.803,0-1.393,0.203-1.77,0.608
			c-0.243,0.254-0.365,0.882-0.365,1.886v10.719c0,0.842,0.062,1.394,0.183,1.657c0.098,0.203,0.305,0.38,0.621,0.532
			c0.425,0.192,0.869,0.289,1.331,0.289H101.94z"/>
		<path fill="#146634" d="M122.469,155.038l0.457,5.656h-0.457c-0.608-1.692-1.475-2.912-2.6-3.657
			c-1.125-0.744-2.479-1.117-4.06-1.117c-1.326,0-2.521,0.281-3.585,0.844s-1.904,1.455-2.518,2.676
			c-0.615,1.222-0.922,2.745-0.922,4.569c0,1.5,0.289,2.8,0.866,3.899c0.578,1.101,1.448,1.944,2.609,2.532s2.484,0.882,3.969,0.882
			c1.301,0,2.444-0.23,3.43-0.692c0.985-0.461,2.074-1.376,3.267-2.744l0.438,0.243c-0.998,1.48-2.162,2.563-3.494,3.246
			c-1.332,0.685-2.91,1.026-4.734,1.026c-3.297,0-5.851-1.019-7.663-3.056c-1.351-1.521-2.025-3.31-2.025-5.367
			c0-1.652,0.444-3.173,1.332-4.562s2.113-2.466,3.677-3.23c1.563-0.766,3.269-1.148,5.117-1.148c1.436,0,2.853,0.294,4.251,0.882
			c0.414,0.183,0.712,0.273,0.895,0.273c0.268,0,0.498-0.076,0.693-0.228c0.255-0.223,0.432-0.532,0.529-0.928H122.469z"/>
		<path fill="#146634" d="M139.86,166.472h-7.699l-1.351,2.615c-0.341,0.639-0.511,1.12-0.511,1.444
			c0,0.254,0.146,0.477,0.438,0.669c0.291,0.193,0.918,0.314,1.879,0.365v0.456h-6.276v-0.456c0.827-0.122,1.362-0.278,1.605-0.472
			c0.499-0.396,1.052-1.19,1.66-2.387l7.007-13.669h0.528l6.934,13.821c0.547,1.104,1.049,1.821,1.505,2.151
			c0.456,0.329,1.092,0.515,1.907,0.555v0.456h-7.864v-0.456c0.803-0.03,1.341-0.14,1.615-0.327c0.273-0.188,0.41-0.418,0.41-0.691
			c0-0.354-0.194-0.917-0.584-1.688L139.86,166.472z M139.459,165.56l-3.375-6.705l-3.467,6.705H139.459z"/>
		<path fill="#146634" d="M149.114,155.418h5.419l12.17,12.453v-9.564c0-1.023-0.141-1.662-0.42-1.915
			c-0.354-0.345-0.925-0.518-1.715-0.518h-0.693v-0.456h6.933v0.456h-0.693c-0.852,0-1.453,0.213-1.806,0.639
			c-0.207,0.264-0.311,0.862-0.311,1.794v13.988h-0.529l-13.137-13.364v10.217c0,1.014,0.134,1.647,0.401,1.901
			c0.365,0.345,0.937,0.517,1.716,0.517h0.711v0.456h-6.933v-0.456h0.675c0.863,0,1.466-0.213,1.807-0.639
			c0.219-0.253,0.328-0.847,0.328-1.779v-11.54c-0.572-0.567-1.007-0.939-1.305-1.117s-0.739-0.347-1.323-0.51
			c-0.279-0.07-0.711-0.106-1.295-0.106V155.418z"/>
		<path fill="#146634" d="M186.685,166.472h-7.699l-1.351,2.615c-0.341,0.639-0.511,1.12-0.511,1.444
			c0,0.254,0.146,0.477,0.438,0.669c0.291,0.193,0.918,0.314,1.879,0.365v0.456h-6.276v-0.456c0.827-0.122,1.362-0.278,1.605-0.472
			c0.499-0.396,1.052-1.19,1.66-2.387l7.007-13.669h0.528l6.934,13.821c0.547,1.104,1.049,1.821,1.505,2.151
			c0.456,0.329,1.092,0.515,1.907,0.555v0.456h-7.864v-0.456c0.803-0.03,1.341-0.14,1.615-0.327c0.273-0.188,0.41-0.418,0.41-0.691
			c0-0.354-0.194-0.917-0.584-1.688L186.685,166.472z M186.283,165.56l-3.375-6.705l-3.467,6.705H186.283z"/>
	</g>
</g>
</svg>
