<?xml version="1.0" encoding="utf-8"?>
<!-- Generator: Adobe Illustrator 17.1.0, SVG Export Plug-In . SVG Version: 6.00 Build 0)  -->
<!DOCTYPE svg PUBLIC "-//W3C//DTD SVG 1.1//EN" "http://www.w3.org/Graphics/SVG/1.1/DTD/svg11.dtd">
<svg version="1.1" id="Layer_12" xmlns="http://www.w3.org/2000/svg" xmlns:xlink="http://www.w3.org/1999/xlink" x="0px" y="0px"
	 viewBox="0 0 207 207" enable-background="new 0 0 207 207" xml:space="preserve">
<g>
	<g>
		<path fill="#EDD03E" d="M163.7,68c13.6,2.7,11.9-7.2,27.2-16.5c-17-14.3-46.5,6.4-47.6,6.2c-0.9-0.1,1.3-2.4,2-3.9
			c0.1-0.3,5.3-5.8,7.1-5.8s1.5,1.4,2.8,1.3c1.3-0.1,1.9-0.8,1.9-1.9c-0.1-0.9-1.6-2.2-4.2-0.9c-3.3,1.6-7.4,5.6-7.7,5.4
			c-0.3-0.2,1-5.8,0.9-8.8c-0.1-2.4-3.1-1.9-3.8-1c-0.4,0.5-1.2,1.2-0.8,1.8c0.9,1.9,3.5-0.7,3.8,0.4c0.6,2.5-1.9,7.9-1.8,7.9
			c0.1,0-1.8,2.8-3.3,2.8c-1.8,0,4.6-26.8-18-33.2c0,0,1.8,4.5-4.1,16.2c-1.3,4.3-4,5.6,1.1,13.1c-4.3,0.5-7.2,5.8-8.5,10.6
			c-2.9,10.5-6.1,8.2-9.5,14c5.6-2.1,15-0.1,21.3-1.7c6.3-1.6,9.2-9.6,12.9-11.4c3.1,0.6-8.1,11.1-3.8,13.5
			c2.5,2.2,9.4-15.6,9.6-12.4c0.2,3.2-3,14.6-0.8,18.1c5.7,9.2,10.9,5.4,12,10.6c1.7,7.8,1.5,9.2,2.2,9.1c1.3-0.1-0.5-9.1,1.2-15.3
			c0.9-3.5,6.1-5.9,8-11.3C164.6,72.9,164,69.3,163.7,68z"/>
		<g>
			<g>
				<g>
					<path fill="#EED13D" d="M33.7,85.3l0,1.4c0,3.1,0.2,5.6,0.7,7.7l-0.9,0.1c-1.3-5.1-4.4-7.7-9.2-7.7c-3.3,0-6,1.2-8.2,3.5
						c-2.1,2.3-3.2,5.3-3.2,8.9c0,3.7,1.1,6.7,3.2,9c2.1,2.3,4.9,3.4,8.3,3.4c4.3,0,7.6-1.8,9.7-5.5l1,0.6
						c-2.5,4.6-6.5,6.9-11.9,6.9c-4,0-7.4-1.3-10.1-4C10.4,107,9,103.7,9,99.9c0-4.1,1.4-7.6,4.2-10.4c2.8-2.8,6.2-4.2,10.3-4.2
						c1.9,0,4,0.4,6.4,1.3c0.2,0.1,0.3,0.1,0.3,0.1l0.3,0.1c0.3,0.1,0.6,0.1,0.9,0.1c0.8,0,1.3-0.5,1.5-1.6L33.7,85.3L33.7,85.3z"/>
					<path fill="#EED13D" d="M38.6,86.7v-1h12.2v1h-0.4c-1.5,0-2.6,0.3-3.2,1c-0.6,0.7-0.9,1.9-0.9,3.7v16c0,1.8,0.3,3,0.9,3.7
						s1.6,1,3.2,1h0.4v1H38.6v-1h0.3c1.6,0,2.7-0.3,3.3-1s0.9-1.9,0.9-3.7v-16c0-1.8-0.3-3-0.9-3.7c-0.6-0.7-1.7-1-3.3-1L38.6,86.7
						L38.6,86.7z"/>
					<path fill="#EED13D" d="M79.2,85.7l0.5,6.4h-0.8c-0.2-1.8-0.8-3-1.7-3.6c-0.9-0.6-2.5-0.9-4.9-0.9h-3.8v19.9
						c0,1.8,0.3,3,0.9,3.7c0.6,0.7,1.6,1,3.1,1h0.8v1H60.2v-1h0.7c1.6,0,2.7-0.3,3.3-1c0.6-0.7,0.9-1.9,0.9-3.7V87.5h-3.7
						c-2.4,0-4,0.3-5,1c-1,0.7-1.6,1.9-1.8,3.6h-0.8l0.5-6.4C54.3,85.7,79.2,85.7,79.2,85.7z"/>
					<path fill="#EED13D" d="M111.3,85.7v1c-2.3,0-4.1,0.9-5.4,2.8c-0.3,0.5-0.5,0.7-0.5,0.8l-8.3,11.1v6.1c0,1.8,0.3,3,0.9,3.7
						c0.6,0.7,1.7,1.1,3.2,1.1h0.3v1H89.3v-1h0.3c1.6,0,2.7-0.3,3.3-1s0.9-1.9,0.9-3.7v-6.2l-7.1-11.8c-1.1-1.8-2.9-2.8-5.3-2.8H81
						v-1h12.1v1h-0.5c-1.8,0-2.7,0.5-2.7,1.4c0,0.4,0.1,0.8,0.4,1.2l0.5,0.7l5.7,9.3l7.1-9.5c0.5-0.7,0.8-1.3,0.8-1.8
						c0-0.9-1-1.3-2.9-1.3v-1L111.3,85.7L111.3,85.7z"/>
				</g>
				<g>
					<path fill="#EED13D" d="M35.1,117.9c-0.1,0.5-0.1,1.1-0.1,1.7c0,2.5,0.2,4.8,0.6,7.1l-0.6,0.1c-0.6-2.6-1.7-4.4-3.4-5.6
						c-1.7-1.2-4-1.7-7.2-1.7c-3.4,0-6.2,1.2-8.5,3.5c-2.3,2.3-3.4,5.2-3.4,8.7c0,3.7,1.2,6.7,3.6,9.2c2.4,2.4,5.4,3.6,9,3.6
						c1.8,0,3.4-0.3,4.9-0.8c1.5-0.5,2.2-1.2,2.2-1.8v-2.5c0-1.8-0.3-3-0.9-3.7c-0.6-0.7-1.6-1-3.1-1l-0.4,0v-1h12v1l-0.4,0
						c-1.5,0-2.6,0.3-3.2,1c-0.6,0.7-0.9,1.9-0.9,3.7v4c-2.9,1.8-6.4,2.8-10.5,2.8c-4.9,0-8.9-1.3-11.8-3.8c-3-2.6-4.4-6-4.4-10.2
						c0-4.1,1.4-7.4,4.2-10.1c2.8-2.7,6.4-4,10.7-4c2.6,0,5.3,0.4,8,1.3c0.7,0.2,1.2,0.3,1.4,0.3c0.7,0,1.2-0.5,1.3-1.6L35.1,117.9
						L35.1,117.9z"/>
					<path fill="#EED13D" d="M57.4,117.7l9.9,23.1c0.6,1.4,1.2,2.4,1.9,2.9c0.6,0.5,1.6,0.8,2.9,0.8v1H61v-1h0.2
						c2-0.1,3.1-0.6,3.1-1.6c0-0.4-0.1-0.9-0.4-1.6l-1.9-4.8H50.7l-1.9,4.2c-0.5,1-0.7,1.8-0.7,2.2c0,1,1.1,1.5,3.2,1.5v1h-9.6v-1
						c2.4,0,4.2-1.4,5.5-4.1L57.4,117.7z M51.3,135.2h10.1l-4.8-11.7L51.3,135.2z"/>
					<path fill="#EED13D" d="M81.9,133v6.9c0,1.8,0.3,3,0.9,3.7c0.6,0.7,1.6,1,3.1,1h0.4v1H74.3v-1h0.3c1.5,0,2.6-0.3,3.2-1
						s0.9-1.9,0.9-3.7V124c0-1.8-0.3-3-0.9-3.7s-1.6-1-3.2-1h-0.3v-1h12.1c7.1,0,10.7,2.4,10.7,7.1c0,1.7-0.6,3.2-1.8,4.5
						c-1.2,1.3-2.8,2.1-4.8,2.5l5.6,8.2c1.8,2.7,4.1,4,6.8,4v1h-7.4L86.8,133h-3.2L81.9,133L81.9,133z M81.9,121.2v9.7
						c0,0.3,0.3,0.5,0.9,0.5l2.3,0c5.5,0,8.2-2,8.2-5.9c0-3.9-2.4-5.8-7.2-5.8c-1.9,0-3,0.1-3.5,0.3S81.9,120.6,81.9,121.2z"/>
					<path fill="#EED13D" d="M105.2,145.6v-1h0.3c1.5,0,2.6-0.3,3.2-1s0.9-1.9,0.9-3.7V124c0-1.8-0.3-3-0.9-3.7s-1.6-1-3.2-1h-0.3
						v-1h10c6,0,10.3,0.7,12.7,2c4.1,2.3,6.2,6,6.2,11.2c0,4.5-1.5,7.9-4.6,10.4c-3.1,2.5-7.4,3.7-13,3.7H105.2z M112.9,120.4v23
						c1.5,0.4,3.1,0.6,4.8,0.6c3.7,0,6.8-1.1,9.2-3.4c2.4-2.3,3.6-5.2,3.6-8.8c0-3.7-1.2-6.6-3.5-8.7c-2.3-2.2-5.4-3.2-9.4-3.2
						C115.8,119.8,114.3,120,112.9,120.4z"/>
					<path fill="#EED13D" d="M160.6,118.3l0.5,6.6h-0.9c-0.3-1.8-0.9-3-2-3.8c-1-0.8-2.6-1.1-4.8-1.1h-7.5v10.5l6.5,0
						c2.1,0,3.5-0.3,4.2-0.8c0.8-0.6,1.1-1.6,1.1-3.2h0.9v9.6h-0.9c-0.1-1.6-0.5-2.6-1.2-3.1s-2.1-0.8-4.2-0.8l-6.5-0.1v9.9
						c0,0.9,0.1,1.4,0.4,1.7s0.9,0.4,1.8,0.4h6.4c2.4,0,4.2-0.4,5.4-1.2c1.2-0.8,2.2-2.2,3-4.4l0.8,0.2l-2.3,7h-23.1v-1h0.3
						c1.5,0,2.6-0.3,3.2-1s0.9-1.9,0.9-3.7V124c0-1.8-0.3-3-0.9-3.7s-1.6-1-3.2-1h-0.3v-1L160.6,118.3L160.6,118.3z"/>
					<path fill="#EED13D" d="M192.9,145.6l-20.3-23.1v17.3c0,1.8,0.3,3,0.9,3.7s1.6,1,3.2,1h0.3v1h-10.3v-1h0.3c1.5,0,2.6-0.3,3.2-1
						c0.6-0.7,0.9-1.9,0.9-3.7v-18.4c-1.4-1.4-3.3-2.2-5.6-2.2h-0.1h-0.1v-1h8.3l17.8,20.3V124c0-1.8-0.3-3-0.9-3.7
						c-0.6-0.7-1.6-1-3.2-1H187v-1h10.3v1H197c-1.5,0-2.6,0.3-3.2,1c-0.6,0.7-0.9,1.9-0.9,3.7L192.9,145.6L192.9,145.6z"/>
				</g>
			</g>
		</g>
		<g>
			<g>
				<rect x="4.5" y="150.7" fill="#ECD135" width="198" height="1.6"/>
			</g>
			<g>
				<rect x="4.5" y="175.4" fill="#ECD135" width="198" height="1.6"/>
			</g>
		</g>
	</g>
	<g>
		<path fill="#146634" d="M15.6,164.3v4.8c0,1,0.1,1.7,0.4,1.9c0.3,0.4,0.8,0.5,1.5,0.5h0.7v0.5h-7.8v-0.5h0.7
			c0.8,0,1.3-0.2,1.6-0.7c0.2-0.3,0.3-0.9,0.3-1.8v-10.7c0-1-0.1-1.7-0.4-1.9c-0.4-0.4-0.9-0.5-1.6-0.5h-0.7v-0.5h6.6
			c1.6,0,2.9,0.2,3.8,0.5c0.9,0.3,1.7,0.8,2.4,1.6s1,1.6,1,2.6c0,1.4-0.5,2.5-1.5,3.3c-1,0.8-2.3,1.3-4.1,1.3c-0.4,0-0.9,0-1.4-0.1
			S16.2,164.4,15.6,164.3z M15.6,163.6c0.5,0.1,0.9,0.1,1.3,0.2c0.4,0,0.7,0.1,0.9,0.1c0.9,0,1.7-0.3,2.4-1c0.7-0.7,1-1.5,1-2.6
			c0-0.7-0.2-1.4-0.5-2s-0.8-1.1-1.4-1.4c-0.6-0.3-1.2-0.5-2-0.5c-0.5,0-1,0.1-1.8,0.2L15.6,163.6L15.6,163.6z"/>
		<path fill="#146634" d="M45.2,172h-4.8l-6.1-7.8c-0.5,0-0.8,0-1.1,0c-0.1,0-0.2,0-0.4,0c-0.1,0-0.3,0-0.4,0v4.8
			c0,1,0.1,1.7,0.4,1.9c0.3,0.4,0.9,0.5,1.5,0.5H35v0.5h-7.8v-0.5h0.7c0.8,0,1.3-0.2,1.6-0.7c0.2-0.3,0.3-0.9,0.3-1.8v-10.7
			c0-1-0.1-1.7-0.4-1.9c-0.4-0.4-0.9-0.5-1.6-0.5h-0.7v-0.5h6.6c1.9,0,3.3,0.1,4.3,0.4c0.9,0.3,1.7,0.7,2.3,1.4c0.6,0.7,1,1.5,1,2.5
			c0,1-0.4,1.9-1.1,2.7c-0.7,0.8-1.8,1.3-3.4,1.6l3.7,4.8c0.9,1.1,1.6,1.8,2.2,2.2c0.6,0.4,1.4,0.6,2.4,0.7L45.2,172L45.2,172z
			 M32.4,163.5c0.2,0,0.3,0,0.4,0c0.1,0,0.2,0,0.3,0c1.7,0,3-0.3,3.9-1c0.9-0.7,1.3-1.6,1.3-2.6c0-1-0.4-1.9-1.1-2.5s-1.6-1-2.8-1
			c-0.5,0-1.2,0.1-2.1,0.2L32.4,163.5L32.4,163.5z"/>
		<path fill="#146634" d="M59,166.5h-7l-1.2,2.6c-0.3,0.6-0.5,1.1-0.5,1.4c0,0.3,0.1,0.5,0.4,0.7c0.3,0.2,0.8,0.3,1.7,0.4v0.5h-5.7
			v-0.5c0.8-0.1,1.2-0.3,1.5-0.5c0.5-0.4,1-1.2,1.5-2.4L56,155h0.5l6.3,13.8c0.5,1.1,1,1.8,1.4,2.2c0.4,0.3,1,0.5,1.7,0.6v0.5h-7.1
			v-0.5c0.7,0,1.2-0.1,1.5-0.3c0.2-0.2,0.4-0.4,0.4-0.7c0-0.4-0.2-0.9-0.5-1.7L59,166.5z M58.6,165.6l-3.1-6.7l-3.1,6.7H58.6z"/>
		<path fill="#146634" d="M83.6,155.4l0.2,3.9h-0.5c-0.1-0.7-0.2-1.2-0.4-1.5c-0.3-0.5-0.6-0.8-1.1-1c-0.5-0.2-1.1-0.3-1.8-0.3h-2.6
			v12.7c0,1,0.1,1.6,0.4,1.9c0.3,0.3,0.9,0.5,1.6,0.5H80v0.5h-7.7v-0.5h0.6c0.8,0,1.3-0.2,1.6-0.6c0.2-0.3,0.3-0.8,0.3-1.8v-12.7
			h-2.2c-0.8,0-1.4,0.1-1.8,0.2c-0.5,0.2-0.9,0.4-1.2,0.9c-0.3,0.4-0.5,1-0.6,1.8h-0.5l0.2-3.9L83.6,155.4L83.6,155.4z"/>
		<path fill="#146634" d="M99,155.9v-0.5h6.4v0.5h-0.7c-0.7,0-1.3,0.3-1.6,0.8c-0.2,0.3-0.3,0.8-0.3,1.8v6.7c0,1.7-0.2,3-0.5,3.9
			c-0.4,0.9-1.1,1.7-2.1,2.4c-1.1,0.7-2.5,1-4.3,1c-2,0-3.5-0.3-4.5-0.9c-1-0.6-1.7-1.5-2.2-2.5c-0.3-0.7-0.4-2.1-0.4-4.1v-6.5
			c0-1-0.2-1.7-0.5-2s-0.8-0.5-1.5-0.5h-0.7v-0.5H94v0.5h-0.7c-0.8,0-1.3,0.2-1.6,0.7c-0.2,0.3-0.3,0.9-0.3,1.8v7.2
			c0,0.6,0.1,1.4,0.2,2.2s0.4,1.5,0.7,1.9c0.3,0.5,0.8,0.9,1.5,1.2c0.6,0.3,1.4,0.5,2.3,0.5c1.2,0,2.2-0.2,3.2-0.7s1.6-1.1,1.9-1.8
			c0.3-0.7,0.5-2,0.5-3.7v-6.7c0-1-0.1-1.7-0.4-1.9c-0.3-0.4-0.9-0.5-1.5-0.5L99,155.9L99,155.9z"/>
		<path fill="#146634" d="M118.4,172l-7-14v11.1c0,1,0.1,1.6,0.4,1.9c0.3,0.3,0.8,0.5,1.6,0.5h0.6v0.5h-6.3v-0.5h0.6
			c0.8,0,1.3-0.2,1.6-0.6c0.2-0.3,0.3-0.8,0.3-1.8v-10.8c0-0.7-0.1-1.3-0.3-1.6c-0.1-0.2-0.4-0.4-0.7-0.6c-0.3-0.2-0.9-0.2-1.6-0.2
			v-0.5h5.1l6.6,13l6.4-13h5.1v0.5h-0.6c-0.8,0-1.3,0.2-1.6,0.6c-0.2,0.3-0.3,0.9-0.3,1.8v10.8c0,1,0.1,1.6,0.4,1.9
			c0.3,0.3,0.9,0.5,1.6,0.5h0.6v0.5h-7.7v-0.5h0.6c0.8,0,1.3-0.2,1.6-0.6c0.2-0.3,0.3-0.8,0.3-1.8V158l-7,14H118.4z"/>
		<path fill="#146634" d="M132.7,155.4h4.9l11.1,12.5v-9.6c0-1-0.1-1.7-0.4-1.9c-0.3-0.3-0.8-0.5-1.6-0.5h-0.6v-0.5h6.3v0.5h-0.6
			c-0.8,0-1.3,0.2-1.6,0.6c-0.2,0.3-0.3,0.9-0.3,1.8v14h-0.5l-11.9-13.4v10.2c0,1,0.1,1.6,0.4,1.9c0.3,0.3,0.9,0.5,1.6,0.5h0.6v0.5
			h-6.3v-0.5h0.6c0.8,0,1.3-0.2,1.6-0.6c0.2-0.3,0.3-0.8,0.3-1.8v-11.5c-0.5-0.6-0.9-0.9-1.2-1.1c-0.3-0.2-0.7-0.3-1.2-0.5
			c-0.3-0.1-0.6-0.1-1.2-0.1L132.7,155.4L132.7,155.4z"/>
		<path fill="#146634" d="M166.8,166.5h-7l-1.2,2.6c-0.3,0.6-0.5,1.1-0.5,1.4c0,0.3,0.1,0.5,0.4,0.7c0.3,0.2,0.8,0.3,1.7,0.4v0.5
			h-5.7v-0.5c0.8-0.1,1.2-0.3,1.5-0.5c0.5-0.4,1-1.2,1.5-2.4l6.4-13.7h0.5l6.3,13.8c0.5,1.1,1,1.8,1.4,2.2c0.4,0.3,1,0.5,1.7,0.6
			v0.5h-7.1v-0.5c0.7,0,1.2-0.1,1.5-0.3c0.3-0.2,0.4-0.4,0.4-0.7c0-0.4-0.2-0.9-0.5-1.7L166.8,166.5z M166.5,165.6l-3.1-6.7
			l-3.1,6.7H166.5z"/>
		<path fill="#146634" d="M183.8,162.8l6.7,6.1c1.1,1,2,1.7,2.8,2c0.8,0.4,1.5,0.6,2.3,0.6v0.5H187v-0.5c0.5,0,0.9-0.1,1.1-0.2
			s0.3-0.3,0.3-0.5c0-0.2,0-0.4-0.1-0.5c-0.1-0.2-0.4-0.4-0.8-0.9l-6.2-5.7v5.4c0,0.8,0.1,1.4,0.2,1.7c0.1,0.2,0.3,0.4,0.5,0.5
			c0.4,0.2,0.8,0.3,1.2,0.3h0.6v0.5h-7.7v-0.5h0.6c0.8,0,1.3-0.2,1.6-0.6c0.2-0.3,0.3-0.9,0.3-1.9v-10.7c0-0.8-0.1-1.4-0.2-1.7
			c-0.1-0.2-0.3-0.4-0.5-0.5c-0.4-0.2-0.8-0.3-1.2-0.3h-0.6v-0.5h7.7v0.5h-0.6c-0.4,0-0.8,0.1-1.2,0.3c-0.3,0.1-0.5,0.3-0.6,0.6
			c-0.1,0.3-0.2,0.8-0.2,1.6v5.1c0.2-0.2,0.8-0.7,1.8-1.6c2.6-2.2,4.2-3.7,4.8-4.4c0.2-0.3,0.4-0.6,0.4-0.9c0-0.2-0.1-0.4-0.3-0.5
			c-0.2-0.1-0.5-0.2-0.9-0.2h-0.4v-0.5h6.6v0.5c-0.4,0-0.7,0.1-1.1,0.2c-0.3,0.1-0.7,0.3-1.2,0.5c-0.5,0.3-1,0.7-1.7,1.2
			c-0.2,0.2-1.1,1-2.7,2.5L183.8,162.8z"/>
	</g>
</g>
<g>
	<path fill="#EDD03E" d="M21.9,40.8l-4.3,13.1H12l14.1-41.6h6.5l14.2,41.6h-5.7l-4.4-13.1H21.9z M35.5,36.6l-4.1-12
		c-0.9-2.7-1.5-5.2-2.2-7.6h-0.1c-0.6,2.5-1.3,5-2.1,7.5l-4.1,12H35.5z"/>
</g>
</svg>
