<?xml version="1.0" encoding="utf-8"?>
<!-- Generator: Adobe Illustrator 15.1.0, SVG Export Plug-In . SVG Version: 6.00 Build 0)  -->
<!DOCTYPE svg PUBLIC "-//W3C//DTD SVG 1.1//EN" "http://www.w3.org/Graphics/SVG/1.1/DTD/svg11.dtd">
<svg version="1.1" id="tower" xmlns="http://www.w3.org/2000/svg" xmlns:xlink="http://www.w3.org/1999/xlink" x="0px" y="0px"
	 width="207px" height="207px" viewBox="0 0 207 207" enable-background="new 0 0 207 207" xml:space="preserve">
<g>
	<linearGradient id="SVGID_1_" gradientUnits="userSpaceOnUse" x1="109.3955" y1="231.1162" x2="2.1763" y2="109.2768">
		<stop  offset="0" style="stop-color:#986A26;stop-opacity:0.9"/>
		<stop  offset="0.4969" style="stop-color:#F5DC71"/>
		<stop  offset="1" style="stop-color:#986A26;stop-opacity:0.9"/>
	</linearGradient>
	<path fill="url(#SVGID_1_)" d="M9.54,142.56c2.129,1.067,4.494,1.592,7.08,1.592c2.433,0,4.721-0.52,6.852-1.56
		c1.506-0.749,2.832-1.703,3.996-2.864c0.881-0.888,1.317-1.429,1.317-1.633l-0.739-0.787c-1.208,1.236-2.386,2.199-3.545,2.895
		c-2.054,1.217-4.271,1.827-6.648,1.827c-3.087,0-5.61-1.076-7.563-3.247c-2.251-2.483-3.369-6.02-3.369-10.598
		c0-3.01,0.386-5.543,1.171-7.594c0.566-1.491,1.385-2.792,2.449-3.896c0.933-0.902,2-1.598,3.213-2.094
		c1.208-0.49,2.388-0.74,3.52-0.74c2.69,0,4.902,0.823,6.661,2.451c1.552,1.461,2.648,3.495,3.279,6.107h1.056l-0.456-10.452H26.93
		c-0.194,0.693-0.561,1.161-1.116,1.396c-0.264,0.114-0.604,0.176-1.003,0.176c-1.312-0.355-2.612-0.717-3.915-1.098
		c-1.324-0.31-2.647-0.475-3.958-0.475c-4.135,0-7.637,1.382-10.537,4.144c-3.153,3.006-4.742,6.972-4.742,11.899
		c0,3.678,0.764,6.79,2.286,9.353C5.299,139.644,7.164,141.374,9.54,142.56z"/>
	<linearGradient id="SVGID_2_" gradientUnits="userSpaceOnUse" x1="120.1748" y1="221.6191" x2="12.9606" y2="99.7854">
		<stop  offset="0" style="stop-color:#986A26;stop-opacity:0.9"/>
		<stop  offset="0.4969" style="stop-color:#F5DC71"/>
		<stop  offset="1" style="stop-color:#986A26;stop-opacity:0.9"/>
	</linearGradient>
	<path fill="url(#SVGID_2_)" d="M44.537,142.56c-1.729,0-2.884-0.255-3.484-0.768c-0.64-0.573-0.965-1.742-0.965-3.509v-20.612
		c0-1.771,0.325-2.922,0.965-3.451c0.55-0.451,1.714-0.68,3.484-0.68v-0.892h-13.44v0.892c1.881,0,3.089,0.248,3.625,0.762
		c0.535,0.52,0.798,1.636,0.798,3.369v20.612c0,1.743-0.263,2.898-0.798,3.45c-0.536,0.553-1.743,0.826-3.625,0.826v0.854h13.44
		V142.56z"/>
	<linearGradient id="SVGID_3_" gradientUnits="userSpaceOnUse" x1="133.8428" y1="209.5938" x2="26.6276" y2="87.7588">
		<stop  offset="0" style="stop-color:#986A26;stop-opacity:0.9"/>
		<stop  offset="0.4969" style="stop-color:#F5DC71"/>
		<stop  offset="1" style="stop-color:#986A26;stop-opacity:0.9"/>
	</linearGradient>
	<path fill="url(#SVGID_3_)" d="M49.206,115.682c0.872-0.743,2.557-1.11,5.067-1.11h2.4v23.357c0,1.865-0.198,3.057-0.573,3.565
		c-0.512,0.708-1.734,1.065-3.68,1.065v0.854h13.214v-0.854c-1.826,0-3.039-0.32-3.624-0.976c-0.514-0.55-0.766-1.653-0.766-3.301
		v-23.712h2.453c2.525,0,4.232,0.365,5.107,1.091c0.877,0.726,1.556,2.364,2.029,4.9h1.108l-0.228-7.914H46.28l-0.228,7.914h1.173
		C47.684,118.049,48.341,116.415,49.206,115.682z"/>
	<linearGradient id="SVGID_4_" gradientUnits="userSpaceOnUse" x1="151.457" y1="194.0898" x2="44.2445" y2="72.2579">
		<stop  offset="0" style="stop-color:#986A26;stop-opacity:0.9"/>
		<stop  offset="0.4969" style="stop-color:#F5DC71"/>
		<stop  offset="1" style="stop-color:#986A26;stop-opacity:0.9"/>
	</linearGradient>
	<path fill="url(#SVGID_4_)" d="M81.025,120.798l5.904,9.006v8.125c0,1.844-0.228,3.042-0.685,3.596
		c-0.566,0.69-1.863,1.035-3.879,1.035v0.854h13.733v-0.854c-2,0-3.269-0.268-3.81-0.814c-0.542-0.54-0.821-1.695-0.821-3.462v-8.95
		l6.627-10.453c1.375-2.244,2.578-3.735,3.626-4.488c0.624-0.451,1.477-0.734,2.562-0.852v-0.892h-9.759v0.892
		c1.199,0,2.011,0.129,2.44,0.383c0.435,0.257,0.638,0.629,0.638,1.119c0,0.318-0.111,0.692-0.341,1.123
		c-0.054,0.133-0.166,0.354-0.327,0.65l-6.437,10.451l-6.623-10.271c-0.239-0.359-0.424-0.713-0.555-1.063
		c-0.122-0.355-0.183-0.668-0.183-0.947c0-0.623,0.23-1.027,0.685-1.198c0.456-0.165,1.293-0.246,2.514-0.246v-0.892H73.661v0.892
		c1.094,0,2.012,0.342,2.735,1.031C77.253,115.38,78.795,117.461,81.025,120.798z"/>
	<linearGradient id="SVGID_5_" gradientUnits="userSpaceOnUse" x1="97.0103" y1="242.0049" x2="-10.2038" y2="120.1712">
		<stop  offset="0" style="stop-color:#986A26;stop-opacity:0.9"/>
		<stop  offset="0.4969" style="stop-color:#F5DC71"/>
		<stop  offset="1" style="stop-color:#986A26;stop-opacity:0.9"/>
	</linearGradient>
	<path fill="url(#SVGID_5_)" d="M19.052,150.902c0.618-0.325,1.252-0.483,1.946-0.483c0.803,0,1.502,0.182,2.101,0.541
		c0.465,0.293,0.879,0.721,1.242,1.281c0.248,0.396,0.471,0.873,0.679,1.436h0.44l-0.122-4.036h-0.406
		c-0.05,0.179-0.158,0.34-0.325,0.457c-0.174,0.124-0.354,0.185-0.552,0.185c-0.537-0.142-1.08-0.3-1.608-0.452
		c-0.523-0.13-1.096-0.189-1.725-0.189c-1.875,0-3.423,0.662-4.627,2c-1.12,1.249-1.689,2.723-1.689,4.415
		c0,1.185,0.135,2.143,0.393,2.881c0.237,0.648,0.615,1.271,1.143,1.863c0.624,0.689,1.423,1.217,2.41,1.594
		c0.888,0.332,1.81,0.496,2.781,0.496c0.893,0,1.907-0.205,3.012-0.618c0.998-0.361,1.49-0.622,1.49-0.78v-3.84
		c0-0.64,0.106-1.06,0.339-1.249c0.14-0.129,0.457-0.215,0.956-0.26v-0.349h-4.691v0.349c0.652,0,1.083,0.099,1.285,0.287
		c0.194,0.188,0.3,0.67,0.3,1.432v3.109c0,0.327-0.257,0.595-0.762,0.807c-0.51,0.206-1.094,0.314-1.741,0.314
		c-1.459,0-2.624-0.505-3.499-1.521c-0.868-1.017-1.301-2.385-1.301-4.109c0-1.491,0.259-2.736,0.774-3.725
		C17.726,151.923,18.317,151.307,19.052,150.902z"/>
	<linearGradient id="SVGID_6_" gradientUnits="userSpaceOnUse" x1="102.2603" y1="237.3799" x2="-4.9495" y2="115.5512">
		<stop  offset="0" style="stop-color:#986A26;stop-opacity:0.9"/>
		<stop  offset="0.4969" style="stop-color:#F5DC71"/>
		<stop  offset="1" style="stop-color:#986A26;stop-opacity:0.9"/>
	</linearGradient>
	<path fill="url(#SVGID_6_)" d="M27.952,162.162c-0.121,0.045-0.27,0.073-0.433,0.073v0.351h3.626v-0.351
		c-0.444,0-0.769-0.068-0.954-0.21c-0.185-0.133-0.278-0.333-0.278-0.605c0-0.106,0.011-0.218,0.023-0.346
		c0.011-0.127,0.043-0.255,0.088-0.381l0.852-2.238h4.846l0.802,1.868c0.023,0.079,0.09,0.267,0.196,0.566
		c0.091,0.276,0.133,0.483,0.133,0.627c0,0.32-0.133,0.539-0.388,0.631c-0.151,0.06-0.455,0.088-0.904,0.088v0.351h4.713v-0.351
		c-0.412,0-0.713-0.101-0.925-0.304c-0.205-0.208-0.46-0.674-0.753-1.389l-4.579-10.852h-0.39l-3.851,9.383
		c-0.167,0.37-0.333,0.744-0.503,1.109c-0.383,0.854-0.663,1.378-0.852,1.583C28.275,161.957,28.119,162.092,27.952,162.162z
		 M33.332,152.372l2.122,5.315h-4.255L33.332,152.372z"/>
	<linearGradient id="SVGID_7_" gradientUnits="userSpaceOnUse" x1="110.1514" y1="230.4248" x2="2.9513" y2="108.607">
		<stop  offset="0" style="stop-color:#986A26;stop-opacity:0.9"/>
		<stop  offset="0.4969" style="stop-color:#F5DC71"/>
		<stop  offset="1" style="stop-color:#986A26;stop-opacity:0.9"/>
	</linearGradient>
	<path fill="url(#SVGID_7_)" d="M40.902,150.282c0.663,0.076,1.094,0.203,1.272,0.381c0.212,0.203,0.324,0.646,0.324,1.321v8.339
		c0,0.753-0.084,1.247-0.241,1.47c-0.202,0.299-0.654,0.442-1.355,0.442v0.351h5.108v-0.351c-0.693,0-1.145-0.135-1.364-0.398
		c-0.185-0.227-0.275-0.671-0.275-1.362v-3.765l1.019-0.015l4.39,5.891h3.015v-0.351c-0.353,0-0.663-0.083-0.904-0.235
		c-0.255-0.163-0.496-0.39-0.726-0.67l-3.779-4.868c0.817-0.133,1.482-0.366,2.011-0.712c0.866-0.561,1.308-1.397,1.308-2.499
		c0-0.911-0.295-1.643-0.859-2.192c-0.449-0.428-1.078-0.738-1.889-0.935c-0.58-0.142-1.227-0.204-1.948-0.204h-5.108V150.282z
		 M44.372,151.278c0-0.284,0.075-0.466,0.215-0.545c0.135-0.079,0.451-0.124,0.935-0.124c1.057,0,1.853,0.222,2.377,0.658
		c0.546,0.438,0.807,1.085,0.807,1.933c0,0.861-0.261,1.521-0.78,1.986c-0.401,0.362-0.986,0.608-1.75,0.736
		c-0.426,0.075-1.028,0.113-1.804,0.113V151.278z"/>
	<linearGradient id="SVGID_8_" gradientUnits="userSpaceOnUse" x1="117.4131" y1="224.0283" x2="10.2192" y2="102.2176">
		<stop  offset="0" style="stop-color:#986A26;stop-opacity:0.9"/>
		<stop  offset="0.4969" style="stop-color:#F5DC71"/>
		<stop  offset="1" style="stop-color:#986A26;stop-opacity:0.9"/>
	</linearGradient>
	<path fill="url(#SVGID_8_)" d="M54.546,161.882c-0.203,0.233-0.636,0.354-1.305,0.354v0.351h5.245c1.756,0,3.218-0.351,4.372-1.069
		c0.963-0.59,1.684-1.409,2.165-2.464c0.394-0.854,0.587-1.765,0.587-2.74c0-2.105-0.67-3.718-2.032-4.828
		c-1.277-1.044-3.06-1.564-5.354-1.564h-4.983v0.362c0.723,0.062,1.173,0.192,1.342,0.381c0.187,0.186,0.268,0.624,0.268,1.321v8.49
		C54.852,161.179,54.752,161.649,54.546,161.882z M56.756,151.354c0-0.252,0.042-0.422,0.104-0.514
		c0.119-0.147,0.368-0.23,0.754-0.23c1.073,0,1.966,0.126,2.674,0.378c0.568,0.203,1.107,0.526,1.598,0.972
		c0.6,0.571,1.042,1.245,1.33,2.03c0.251,0.701,0.374,1.476,0.374,2.323c0,1.672-0.415,2.981-1.23,3.932
		c-0.624,0.708-1.452,1.193-2.503,1.448c-0.559,0.133-1.227,0.2-1.998,0.2c-0.44,0-0.737-0.056-0.884-0.16
		c-0.146-0.106-0.218-0.334-0.218-0.663V151.354z"/>
	<linearGradient id="SVGID_9_" gradientUnits="userSpaceOnUse" x1="125.1348" y1="217.2471" x2="17.9296" y2="95.4236">
		<stop  offset="0" style="stop-color:#986A26;stop-opacity:0.9"/>
		<stop  offset="0.4969" style="stop-color:#F5DC71"/>
		<stop  offset="1" style="stop-color:#986A26;stop-opacity:0.9"/>
	</linearGradient>
	<path fill="url(#SVGID_9_)" d="M67.798,161.925c-0.207,0.206-0.618,0.311-1.24,0.311v0.351h9.989l0.828-3.229h-0.537
		c-0.413,0.976-0.902,1.648-1.47,1.993c-0.557,0.343-1.423,0.52-2.573,0.52c-1.355,0-2.154-0.032-2.397-0.115
		c-0.23-0.077-0.356-0.32-0.356-0.735v-4.706l2.846,0.051c0.773,0,1.28,0.113,1.519,0.332c0.245,0.216,0.42,0.701,0.53,1.454h0.431
		v-4.428h-0.431c-0.101,0.729-0.273,1.206-0.487,1.429c-0.262,0.261-0.787,0.385-1.562,0.385h-2.846v-4.257
		c0-0.301,0.058-0.487,0.167-0.577c0.059-0.038,0.214-0.07,0.447-0.07h2.5c1.024,0,1.712,0.133,2.068,0.38
		c0.354,0.251,0.602,0.788,0.748,1.615h0.428l-0.04-2.706h-9.802v0.362c0.622,0,1.033,0.098,1.24,0.293
		c0.237,0.23,0.352,0.697,0.352,1.409v8.49C68.15,161.191,68.035,161.677,67.798,161.925z"/>
	<linearGradient id="SVGID_10_" gradientUnits="userSpaceOnUse" x1="132.3623" y1="210.8984" x2="25.1462" y2="89.0625">
		<stop  offset="0" style="stop-color:#986A26;stop-opacity:0.9"/>
		<stop  offset="0.4969" style="stop-color:#F5DC71"/>
		<stop  offset="1" style="stop-color:#986A26;stop-opacity:0.9"/>
	</linearGradient>
	<path fill="url(#SVGID_10_)" d="M88.62,162.813h0.318v-10.113c0-1.017,0.156-1.677,0.44-1.998c0.205-0.194,0.636-0.34,1.317-0.419
		v-0.362h-4.364v0.362c0.686,0,1.155,0.137,1.389,0.402c0.279,0.322,0.42,0.996,0.42,2.015l-0.027,6.426l-7.09-9.205h-3.171v0.362
		c0.368,0,0.667,0.062,0.904,0.18c0.223,0.121,0.532,0.402,0.904,0.838v8.478c0,1.015-0.119,1.682-0.369,1.989
		c-0.241,0.313-0.72,0.469-1.439,0.469v0.351h4.332v-0.351c-0.674,0-1.137-0.171-1.383-0.512c-0.243-0.342-0.365-0.985-0.365-1.946
		l0.025-7.45L88.62,162.813z"/>
	<linearGradient id="SVGID_11_" gradientUnits="userSpaceOnUse" x1="148.6123" y1="194.9766" x2="41.3976" y2="73.1422">
		<stop  offset="0" style="stop-color:#986A26;stop-opacity:0.9"/>
		<stop  offset="0.4969" style="stop-color:#F5DC71"/>
		<stop  offset="1" style="stop-color:#986A26;stop-opacity:0.9"/>
	</linearGradient>
	<path fill="url(#SVGID_11_)" d="M115.794,148.16c1.576,0,2.626,0.229,3.172,0.682c0.55,0.452,0.967,1.461,1.265,3.042h0.688
		l-0.139-4.924h-15.815l-0.139,4.924h0.723c0.28-1.563,0.688-2.577,1.232-3.035c0.541-0.46,1.592-0.688,3.151-0.688h1.49v14.524
		c0,1.159-0.117,1.901-0.356,2.225c-0.321,0.437-1.085,0.652-2.287,0.652v0.541h8.215v-0.541c-1.123,0-1.881-0.199-2.253-0.603
		c-0.318-0.341-0.475-1.025-0.475-2.059v-14.74H115.794z"/>
	<linearGradient id="SVGID_12_" gradientUnits="userSpaceOnUse" x1="158.0156" y1="186.6953" x2="50.8144" y2="64.8763">
		<stop  offset="0" style="stop-color:#986A26;stop-opacity:0.9"/>
		<stop  offset="0.4969" style="stop-color:#F5DC71"/>
		<stop  offset="1" style="stop-color:#986A26;stop-opacity:0.9"/>
	</linearGradient>
	<path fill="url(#SVGID_12_)" d="M125.201,149.057c-1.908,1.867-2.855,4.361-2.855,7.495c0,3.024,0.893,5.465,2.672,7.324
		c1.72,1.786,3.867,2.683,6.441,2.683c2.609,0,4.78-0.905,6.498-2.708c1.808-1.867,2.71-4.307,2.71-7.299
		c0-3.134-0.967-5.628-2.883-7.495c-1.725-1.676-3.834-2.514-6.325-2.514C128.999,146.543,126.913,147.381,125.201,149.057z
		 M135.522,149.589c1.275,1.585,1.911,3.893,1.911,6.925c0,2.985-0.612,5.279-1.832,6.883c-1.059,1.397-2.437,2.099-4.143,2.099
		c-1.69,0-3.063-0.71-4.138-2.117c-1.187-1.577-1.782-3.863-1.782-6.864c0-3.032,0.634-5.34,1.898-6.925
		c1.063-1.33,2.403-1.998,4.021-1.998C133.105,147.591,134.457,148.259,135.522,149.589z"/>
	<linearGradient id="SVGID_13_" gradientUnits="userSpaceOnUse" x1="173.3662" y1="173.1934" x2="66.1479" y2="51.3549">
		<stop  offset="0" style="stop-color:#986A26;stop-opacity:0.9"/>
		<stop  offset="0.4969" style="stop-color:#F5DC71"/>
		<stop  offset="1" style="stop-color:#986A26;stop-opacity:0.9"/>
	</linearGradient>
	<path fill="url(#SVGID_13_)" d="M147.203,147.726c0.282-0.144,0.742-0.201,1.396-0.201v-0.564h-6.835v0.564
		c0.756,0.066,1.328,0.357,1.727,0.854c0.323,0.419,0.704,1.263,1.14,2.537c0.645,1.689,1.5,4.082,2.576,7.181
		c1.132,3.229,2.074,6.003,2.847,8.332h0.406l4.315-12.206c0.487,1.288,0.969,2.584,1.454,3.874c0.823,2.19,1.371,3.69,1.669,4.51
		c0.523,1.448,0.96,2.721,1.311,3.822h0.445c0.499-1.716,1.104-3.63,1.808-5.747c0.571-1.699,1.249-3.646,2.028-5.821
		c0.543-1.517,1.222-3.375,2.019-5.563c0.157-0.586,0.382-0.999,0.679-1.236c0.295-0.237,0.776-0.417,1.452-0.535v-0.564h-5.553
		v0.564c0.581,0,1.019,0.068,1.332,0.229c0.404,0.211,0.604,0.568,0.604,1.088c0,0.266-0.04,0.607-0.12,1.004
		c-0.079,0.408-0.158,0.772-0.25,1.105l-3.533,9.77l-3.695-9.845c-0.09-0.293-0.229-0.674-0.401-1.136
		c-0.217-0.552-0.325-0.924-0.325-1.122c0-0.465,0.259-0.785,0.762-0.952c0.293-0.101,0.753-0.142,1.364-0.142v-0.564h-7.439v0.564
		c0.78,0,1.326,0.142,1.657,0.422c0.334,0.288,0.726,1.001,1.17,2.141l0.869,2.4l-2.933,8.156l-4.037-10.869
		c-0.109-0.207-0.192-0.421-0.241-0.646c-0.061-0.219-0.081-0.422-0.081-0.62C146.788,148.124,146.923,147.866,147.203,147.726z"/>
	<linearGradient id="SVGID_14_" gradientUnits="userSpaceOnUse" x1="182.9863" y1="164.7256" x2="75.7696" y2="42.8889">
		<stop  offset="0" style="stop-color:#986A26;stop-opacity:0.9"/>
		<stop  offset="0.4969" style="stop-color:#F5DC71"/>
		<stop  offset="1" style="stop-color:#986A26;stop-opacity:0.9"/>
	</linearGradient>
	<path fill="url(#SVGID_14_)" d="M170.254,165.093c-0.298,0.313-0.938,0.469-1.883,0.469v0.541h15.086l1.245-4.888h-0.798
		c-0.621,1.479-1.369,2.481-2.219,3.008c-0.85,0.53-2.146,0.791-3.881,0.791c-2.053,0-3.26-0.065-3.619-0.18
		c-0.351-0.113-0.541-0.48-0.541-1.105v-7.108l4.291,0.079c1.164,0,1.925,0.163,2.297,0.49c0.366,0.331,0.627,1.065,0.799,2.207
		h0.654v-6.683h-0.654c-0.156,1.096-0.4,1.818-0.734,2.146c-0.401,0.394-1.187,0.584-2.361,0.584h-4.291v-6.421
		c0-0.449,0.085-0.736,0.241-0.862c0.101-0.073,0.327-0.109,0.679-0.109h3.784c1.542,0,2.577,0.187,3.118,0.567
		c0.537,0.382,0.914,1.191,1.132,2.44h0.648l-0.068-4.099h-14.808v0.564c0.945,0,1.585,0.142,1.883,0.433
		c0.357,0.34,0.532,1.052,0.532,2.13V162.9C170.786,163.991,170.611,164.721,170.254,165.093z"/>
	<linearGradient id="SVGID_15_" gradientUnits="userSpaceOnUse" x1="191.875" y1="156.9033" x2="84.6601" y2="35.0687">
		<stop  offset="0" style="stop-color:#986A26;stop-opacity:0.9"/>
		<stop  offset="0.4969" style="stop-color:#F5DC71"/>
		<stop  offset="1" style="stop-color:#986A26;stop-opacity:0.9"/>
	</linearGradient>
	<path fill="url(#SVGID_15_)" d="M202.142,165.209c-0.385-0.24-0.751-0.58-1.102-1.022l-5.698-7.344
		c1.219-0.197,2.233-0.546,3.027-1.059c1.315-0.86,1.974-2.122,1.974-3.789c0-1.364-0.432-2.467-1.296-3.299
		c-0.678-0.658-1.619-1.12-2.843-1.416c-0.871-0.207-1.851-0.32-2.944-0.32h-7.702v0.564c1.005,0.105,1.645,0.295,1.916,0.563
		c0.323,0.319,0.471,0.986,0.471,2v12.598c0,1.134-0.111,1.878-0.347,2.225c-0.306,0.437-0.99,0.652-2.04,0.652v0.541h7.702v-0.541
		c-1.043,0-1.728-0.199-2.058-0.603c-0.278-0.33-0.404-1.019-0.404-2.059v-5.671l1.521-0.04l6.638,8.913h4.548v-0.541
		C202.97,165.562,202.512,165.439,202.142,165.209z M190.798,156.199v-7.177c0-0.427,0.099-0.704,0.316-0.828
		c0.202-0.126,0.679-0.187,1.419-0.187c1.589,0,2.78,0.334,3.578,0.997c0.81,0.659,1.213,1.637,1.213,2.918
		c0,1.298-0.393,2.299-1.178,2.994c-0.605,0.552-1.489,0.92-2.64,1.119C192.871,156.146,191.96,156.199,190.798,156.199z"/>
	<linearGradient id="SVGID_16_" gradientUnits="userSpaceOnUse" x1="136.7432" y1="207.0381" x2="29.5302" y2="85.2057">
		<stop  offset="0" style="stop-color:#986A26;stop-opacity:0.9"/>
		<stop  offset="0.4969" style="stop-color:#F5DC71"/>
		<stop  offset="1" style="stop-color:#986A26;stop-opacity:0.9"/>
	</linearGradient>
	<rect x="1.659" y="168.465" fill="url(#SVGID_16_)" width="203.683" height="1.596"/>
	<linearGradient id="SVGID_17_" gradientUnits="userSpaceOnUse" x1="173.1797" y1="173.3555" x2="65.9686" y2="51.5252">
		<stop  offset="0" style="stop-color:#986A26;stop-opacity:0.9"/>
		<stop  offset="0.4969" style="stop-color:#F5DC71"/>
		<stop  offset="1" style="stop-color:#986A26;stop-opacity:0.9"/>
	</linearGradient>
	<polygon fill="url(#SVGID_17_)" points="176.635,142.006 176.635,141.821 170.956,141.821 170.956,142.006 170.507,142.006 
		170.507,141.821 122.277,141.821 122.277,142.006 121.83,142.006 121.83,141.821 104.774,141.821 104.774,143.417 187.489,143.417 
		187.489,141.821 177.082,141.821 177.082,142.006 	"/>
	<linearGradient id="SVGID_18_" gradientUnits="userSpaceOnUse" x1="174.4219" y1="172.2705" x2="67.2007" y2="50.4288">
		<stop  offset="0" style="stop-color:#986A26;stop-opacity:0.9"/>
		<stop  offset="0.4969" style="stop-color:#F5DC71"/>
		<stop  offset="1" style="stop-color:#986A26;stop-opacity:0.9"/>
	</linearGradient>
	<path fill="url(#SVGID_18_)" d="M132.064,112.873c-0.319,0.344-0.651,0.705-0.905,1.028v27.742h3.734v-32.827
		C134.16,110.577,133.02,111.853,132.064,112.873z"/>
	<linearGradient id="SVGID_19_" gradientUnits="userSpaceOnUse" x1="212.4414" y1="161.4346" x2="84.5379" y2="16.0903">
		<stop  offset="0" style="stop-color:#986A26;stop-opacity:0.9"/>
		<stop  offset="0.4969" style="stop-color:#F5DC71"/>
		<stop  offset="1" style="stop-color:#986A26;stop-opacity:0.9"/>
	</linearGradient>
	<path fill="url(#SVGID_19_)" d="M131.159,58.971v31.78c0.015,0.027,0.036,0.045,0.051,0.072c1.179-0.414,2.418-0.76,3.684-1.033
		V56.421l9.971,7.186l0.262-0.363l-10.232-7.376v-0.208L131.159,58.971z"/>
	<linearGradient id="SVGID_20_" gradientUnits="userSpaceOnUse" x1="166.6055" y1="179.1416" x2="59.3916" y2="57.3081">
		<stop  offset="0" style="stop-color:#986A26;stop-opacity:0.9"/>
		<stop  offset="0.4969" style="stop-color:#F5DC71"/>
		<stop  offset="1" style="stop-color:#986A26;stop-opacity:0.9"/>
	</linearGradient>
	<path fill="url(#SVGID_20_)" d="M122.277,141.644h5.639l-0.006-16.769c-2.061-0.023-2.404-1.948-2.65-3.356
		c-0.136-0.77-0.336-1.914-0.689-3.587c-0.023-0.124-0.049-0.173-0.049-0.173c0,0.027-0.354-0.114-0.604-0.214
		c-0.559-0.225-1.285-0.521-2.088-1.04v25.316h0.447V141.644z"/>
	<linearGradient id="SVGID_21_" gradientUnits="userSpaceOnUse" x1="160.1348" y1="185.1875" x2="52.4261" y2="62.7918">
		<stop  offset="0" style="stop-color:#986A26;stop-opacity:0.9"/>
		<stop  offset="0.4969" style="stop-color:#F5DC71"/>
		<stop  offset="1" style="stop-color:#986A26;stop-opacity:0.9"/>
	</linearGradient>
	<rect x="121.83" y="141.821" fill="url(#SVGID_21_)" width="0.447" height="0.185"/>
	<linearGradient id="SVGID_22_" gradientUnits="userSpaceOnUse" x1="160.1348" y1="185.1875" x2="52.4261" y2="62.7918">
		<stop  offset="0" style="stop-color:#986A26;stop-opacity:0.9"/>
		<stop  offset="0.4969" style="stop-color:#F5DC71"/>
		<stop  offset="1" style="stop-color:#986A26;stop-opacity:0.9"/>
	</linearGradient>
	<rect x="121.83" y="141.821" fill="url(#SVGID_22_)" width="0.447" height="0.185"/>
	<linearGradient id="SVGID_23_" gradientUnits="userSpaceOnUse" x1="185.6533" y1="162.3818" x2="78.437" y2="40.5456">
		<stop  offset="0" style="stop-color:#986A26;stop-opacity:0.9"/>
		<stop  offset="0.4969" style="stop-color:#F5DC71"/>
		<stop  offset="1" style="stop-color:#986A26;stop-opacity:0.9"/>
	</linearGradient>
	<path fill="url(#SVGID_23_)" d="M149.07,96.229c-1.639,1.024-2.877,2.05-3.899,3.047v42.367h4.286V95.986L149.07,96.229z"/>
	<linearGradient id="SVGID_24_" gradientUnits="userSpaceOnUse" x1="205.9482" y1="145.6943" x2="94.257" y2="18.773">
		<stop  offset="0" style="stop-color:#986A26;stop-opacity:0.9"/>
		<stop  offset="0.4969" style="stop-color:#F5DC71"/>
		<stop  offset="1" style="stop-color:#986A26;stop-opacity:0.9"/>
	</linearGradient>
	<path fill="url(#SVGID_24_)" d="M125.512,89.518c0.002,0.095,0.006,0.188,0.006,0.282c0.142-0.084,0.287-0.162,0.431-0.237
		c0.648-0.336,1.31-0.48,1.944-0.498l-0.006-28.226l2.983,2.153l0.257-0.363l-3.24-2.345v-0.196l-5.609,5.01v-3.906l13.213-11.739
		l9.397,6.78l0.268-0.365l-9.606-6.925l-0.082,0.111l-0.049-0.052l0.27-0.241l4.041,2.996V37.699l11.908,8.589l-6.466,5.741v38.133
		c1.531,0.566,2.93,1.387,4.18,2.467l0.106,0.09V52.438l5.606-4.554v93.76h8.206V54.98l7.237,5.222v81.62h0.449v-0.178h2.079V66.34
		l3.6,2.587v72.894h0.447V68.811h-0.227l0.135-0.18l-3.955-2.848v-0.198l-2.079,1.879v-7.376h-0.226l0.131-0.182l-5.987-4.318
		v-10.26h-0.223l0.135-0.181l-6.53-4.711v-0.023l-0.018,0.013l-0.017-0.011l-0.052,0.07l-6.188,5.5l-12.253-8.839v-0.207
		l-6.37,5.653v8.156l-11.449,10.174l0.147,0.167h-0.227v25.318c0.137-0.016,0.262-0.052,0.402-0.052
		C124.072,86.355,125.452,87.685,125.512,89.518z M158.256,40.989l6.171,4.453v9.822l-1.157-0.835V54.31l-5.014,4.462V40.989z"/>
	<linearGradient id="SVGID_25_" gradientUnits="userSpaceOnUse" x1="190.8799" y1="157.8467" x2="83.4132" y2="35.726">
		<stop  offset="0" style="stop-color:#986A26;stop-opacity:0.9"/>
		<stop  offset="0.4969" style="stop-color:#F5DC71"/>
		<stop  offset="1" style="stop-color:#986A26;stop-opacity:0.9"/>
	</linearGradient>
	<rect x="176.635" y="141.821" fill="url(#SVGID_25_)" width="0.447" height="0.185"/>
	<linearGradient id="SVGID_26_" gradientUnits="userSpaceOnUse" x1="190.8799" y1="157.8467" x2="83.4132" y2="35.726">
		<stop  offset="0" style="stop-color:#986A26;stop-opacity:0.9"/>
		<stop  offset="0.4969" style="stop-color:#F5DC71"/>
		<stop  offset="1" style="stop-color:#986A26;stop-opacity:0.9"/>
	</linearGradient>
	<rect x="176.635" y="141.821" fill="url(#SVGID_26_)" width="0.447" height="0.185"/>
	<linearGradient id="SVGID_27_" gradientUnits="userSpaceOnUse" x1="187.3896" y1="160.8428" x2="80.2051" y2="39.0426">
		<stop  offset="0" style="stop-color:#986A26;stop-opacity:0.9"/>
		<stop  offset="0.4969" style="stop-color:#F5DC71"/>
		<stop  offset="1" style="stop-color:#986A26;stop-opacity:0.9"/>
	</linearGradient>
	<rect x="170.507" y="141.821" fill="url(#SVGID_27_)" width="0.449" height="0.185"/>
	<linearGradient id="SVGID_28_" gradientUnits="userSpaceOnUse" x1="187.3896" y1="160.8428" x2="80.2051" y2="39.0426">
		<stop  offset="0" style="stop-color:#986A26;stop-opacity:0.9"/>
		<stop  offset="0.4969" style="stop-color:#F5DC71"/>
		<stop  offset="1" style="stop-color:#986A26;stop-opacity:0.9"/>
	</linearGradient>
	<rect x="170.507" y="141.821" fill="url(#SVGID_28_)" width="0.449" height="0.185"/>
	<linearGradient id="SVGID_29_" gradientUnits="userSpaceOnUse" x1="180.8594" y1="166.6016" x2="73.6423" y2="44.7645">
		<stop  offset="0" style="stop-color:#986A26;stop-opacity:0.9"/>
		<stop  offset="0.4969" style="stop-color:#F5DC71"/>
		<stop  offset="1" style="stop-color:#986A26;stop-opacity:0.9"/>
	</linearGradient>
	<path fill="url(#SVGID_29_)" d="M110.367,107.061c3.459-0.904,5.046-5.443,7.086-6.492c1.688,0.34-4.43,6.293-2.098,7.654
		c1.377,1.257,5.179-8.865,5.266-7.029c0.086,1.833-1.641,8.301-0.455,10.258c3.119,5.222,5.987,3.1,6.604,6.02
		c0.931,4.42,0.817,5.211,1.206,5.164c0.702-0.083-0.275-5.162,0.655-8.713c0.518-1.987,3.369-3.362,4.389-6.42
		c0.36-1.032,0.043-3.068-0.112-3.813c7.49,1.563,6.559-4.107,14.976-9.362c-9.358-8.111-25.533,3.635-26.157,3.551
		c-0.501-0.07,0.695-1.371,1.087-2.212c0.066-0.144,2.907-3.29,3.874-3.29c0.954,0,0.829,0.8,1.54,0.742
		c0.706-0.065,1.028-0.457,1.061-1.055c-0.07-0.491-0.9-1.233-2.304-0.511c-1.786,0.929-4.058,3.154-4.218,3.061
		c-0.18-0.112,0.575-3.307,0.504-5.022c-0.043-1.356-1.696-1.082-2.098-0.587c-0.223,0.271-0.63,0.679-0.422,0.992
		c0.478,1.073,1.942-0.401,2.095,0.219c0.344,1.407-1.068,4.517-1.015,4.51c0.052,0-0.984,1.583-1.808,1.556
		c-1.018-0.025,2.518-15.223-9.867-18.882c0,0,0.975,2.553-2.259,9.191c-0.679,2.428-2.221,3.2,0.629,7.452
		c-2.371,0.286-3.94,3.328-4.661,6.007c-1.574,5.933-3.369,4.656-5.197,7.953C101.762,106.806,106.916,107.952,110.367,107.061z"/>
</g>
</svg>
