<?xml version="1.0" encoding="utf-8"?>
<!-- Generator: Adobe Illustrator 15.1.0, SVG Export Plug-In . SVG Version: 6.00 Build 0)  -->
<!DOCTYPE svg PUBLIC "-//W3C//DTD SVG 1.1//EN" "http://www.w3.org/Graphics/SVG/1.1/DTD/svg11.dtd">
<svg version="1.1" id="Layer_12" xmlns="http://www.w3.org/2000/svg" xmlns:xlink="http://www.w3.org/1999/xlink" x="0px" y="0px"
	 width="207px" height="207px" viewBox="0 0 207 207" enable-background="new 0 0 207 207" xml:space="preserve">
<g>
	<g>
		<path fill="#EDD03E" d="M163.749,68.006c13.623,2.745,11.926-7.234,27.245-16.466c-17.016-14.271-46.456,6.387-47.604,6.237
			c-0.906-0.119,1.264-2.402,1.979-3.885c0.126-0.258,5.307-5.795,7.053-5.795c1.747,0,1.513,1.418,2.803,1.307
			c1.289-0.109,1.867-0.8,1.938-1.856c-0.141-0.862-1.637-2.169-4.191-0.898c-3.27,1.628-7.393,5.56-7.685,5.39
			c-0.333-0.195,1.045-5.822,0.928-8.832c-0.093-2.388-3.095-1.912-3.821-1.049c-0.415,0.494-1.151,1.206-0.775,1.751
			c0.875,1.892,3.541-0.692,3.818,0.396c0.632,2.471-1.944,7.938-1.843,7.928c0.102-0.01-1.78,2.791-3.296,2.75
			c-1.847-0.049,4.591-26.795-17.964-33.232c0,0,1.796,4.491-4.084,16.174c-1.253,4.275-4.05,5.632,1.14,13.117
			c-4.341,0.499-7.186,5.838-8.482,10.56c-2.875,10.455-6.138,8.202-9.474,13.99c5.639-2.095,15.012-0.081,21.299-1.661
			c6.288-1.582,9.182-9.566,12.874-11.412c3.095,0.6-8.057,11.064-3.792,13.473c2.495,2.195,9.419-15.598,9.574-12.375
			c0.156,3.224-2.977,14.619-0.842,18.063c5.688,9.182,10.904,5.438,12.026,10.579c1.696,7.784,1.496,9.159,2.195,9.081
			c1.287-0.143-0.498-9.075,1.197-15.318c0.948-3.493,6.132-5.921,7.999-11.303C164.598,72.898,164.041,69.322,163.749,68.006z"/>
		<g>
			<g>
				<g>
					<path fill="#EED13D" d="M33.713,85.345l-0.045,1.353c0,3.07,0.246,5.631,0.737,7.677l-0.894,0.143
						c-1.311-5.118-4.387-7.677-9.227-7.677c-3.307,0-6.029,1.162-8.166,3.483c-2.138,2.324-3.206,5.276-3.206,8.86
						c0,3.729,1.054,6.734,3.161,9.009c2.107,2.277,4.889,3.414,8.345,3.414c4.319,0,7.552-1.824,9.696-5.475l1.05,0.566
						c-2.547,4.633-6.509,6.949-11.886,6.949c-4.006,0-7.384-1.326-10.132-3.979c-2.747-2.654-4.122-5.921-4.122-9.799
						c0-4.148,1.386-7.619,4.156-10.414c2.77-2.795,6.218-4.193,10.344-4.193c1.877,0,3.999,0.425,6.367,1.274
						c0.178,0.067,0.291,0.107,0.334,0.12l0.314,0.121c0.268,0.095,0.559,0.142,0.871,0.142c0.789,0,1.273-0.525,1.451-1.575H33.713
						z"/>
					<path fill="#EED13D" d="M38.605,86.698v-1.03h12.221v1.03h-0.38c-1.534,0-2.592,0.341-3.173,1.021
						c-0.58,0.681-0.871,1.923-0.871,3.729v15.999c0,1.807,0.291,3.049,0.871,3.729c0.581,0.68,1.639,1.02,3.173,1.02h0.38v1.031
						H38.605v-1.031h0.268c1.58,0,2.666-0.34,3.262-1.02s0.895-1.922,0.895-3.729V91.447c0-1.806-0.299-3.048-0.895-3.729
						c-0.596-0.68-1.682-1.021-3.262-1.021H38.605z"/>
					<path fill="#EED13D" d="M79.154,85.667l0.492,6.404h-0.85c-0.238-1.805-0.805-3.013-1.697-3.625
						c-0.895-0.613-2.525-0.921-4.893-0.921h-3.776v19.939c0,1.793,0.286,3.029,0.86,3.709c0.573,0.68,1.619,1.02,3.139,1.02h0.85
						v1.031h-13.07v-1.031h0.715c1.579,0,2.666-0.34,3.262-1.02s0.895-1.916,0.895-3.709V87.526h-3.664
						c-2.354,0-4.021,0.331-5.005,0.99c-0.983,0.661-1.571,1.853-1.765,3.576h-0.85l0.515-6.425H79.154z"/>
					<path fill="#EED13D" d="M111.348,85.667v0.99c-2.294,0-4.096,0.937-5.406,2.809c-0.313,0.458-0.491,0.714-0.536,0.768
						l-8.288,11.071v6.14c0,1.752,0.313,2.98,0.938,3.688c0.627,0.707,1.698,1.061,3.218,1.061h0.269v1.031H89.342v-1.031h0.269
						c1.579,0,2.666-0.34,3.262-1.02s0.894-1.922,0.894-3.729v-6.202l-7.148-11.818c-1.117-1.845-2.891-2.768-5.318-2.768h-0.268
						v-0.99h12.064v1.01h-0.47c-1.817,0-2.726,0.479-2.726,1.436c0,0.391,0.127,0.781,0.381,1.172l0.491,0.707l5.652,9.313
						l7.148-9.475c0.507-0.66,0.76-1.272,0.76-1.839c0-0.889-0.976-1.333-2.926-1.333v-0.99H111.348z"/>
				</g>
				<g>
					<path fill="#EED13D" d="M35.074,117.945c-0.074,0.506-0.109,1.059-0.109,1.658c0,2.465,0.196,4.824,0.589,7.078l-0.589,0.1
						c-0.582-2.572-1.703-4.434-3.361-5.588c-1.659-1.152-4.046-1.73-7.16-1.73c-3.404,0-6.242,1.154-8.513,3.459
						c-2.271,2.307-3.405,5.191-3.405,8.658c0,3.678,1.197,6.732,3.591,9.166c2.394,2.432,5.409,3.648,9.048,3.648
						c1.805,0,3.441-0.273,4.912-0.82c1.469-0.547,2.203-1.158,2.203-1.838v-2.541c0-1.771-0.287-2.996-0.861-3.668
						c-0.575-0.674-1.612-1.01-3.111-1.01l-0.349-0.02v-1h12.026v1l-0.371,0.02c-1.542,0-2.604,0.336-3.187,1.01
						c-0.582,0.672-0.873,1.896-0.873,3.668v4.039c-2.867,1.84-6.381,2.758-10.542,2.758c-4.92,0-8.855-1.277-11.81-3.838
						c-2.954-2.559-4.431-5.963-4.431-10.217c0-4.051,1.408-7.402,4.224-10.053c2.815-2.654,6.37-3.98,10.663-3.98
						c2.59,0,5.268,0.428,8.032,1.279c0.684,0.215,1.164,0.32,1.44,0.32c0.729,0,1.172-0.521,1.332-1.559H35.074z"/>
					<path fill="#EED13D" d="M57.447,117.725l9.865,23.07c0.611,1.439,1.241,2.412,1.889,2.92c0.646,0.506,1.626,0.785,2.936,0.838
						v1.021H61.005v-1.021h0.239c2.038-0.092,3.057-0.611,3.057-1.559c0-0.398-0.139-0.932-0.414-1.598l-1.922-4.76H50.68
						l-1.941,4.238c-0.467,1.027-0.699,1.752-0.699,2.18c0,1,1.07,1.498,3.209,1.498v1.021h-9.626v-1.021
						c2.415,0,4.241-1.365,5.479-4.098L57.447,117.725z M51.313,135.238H61.42l-4.78-11.717L51.313,135.238z"/>
					<path fill="#EED13D" d="M81.938,132.957v6.898c0,1.787,0.284,3.016,0.852,3.689s1.601,1.008,3.1,1.008h0.371v1.021H74.32
						v-1.021h0.262c1.542,0,2.604-0.334,3.187-1.008c0.581-0.674,0.874-1.902,0.874-3.689v-15.834c0-1.785-0.293-3.014-0.874-3.688
						c-0.582-0.674-1.645-1.012-3.187-1.012H74.32v-1.018h12.07c7.13,0,10.695,2.357,10.695,7.076c0,1.732-0.608,3.24-1.822,4.52
						c-1.215,1.279-2.82,2.111-4.813,2.498l5.587,8.156c1.848,2.68,4.126,4.02,6.833,4.02v1h-7.379l-8.665-12.617h-3.208H81.938z
						 M81.938,121.223v9.717c0,0.348,0.306,0.52,0.917,0.52l2.292,0.039c5.471,0,8.207-1.965,8.207-5.896
						c0-3.891-2.4-5.838-7.203-5.838c-1.863,0-3.031,0.084-3.504,0.25S81.938,120.584,81.938,121.223z"/>
					<path fill="#EED13D" d="M105.249,145.574v-1.021h0.263c1.543,0,2.604-0.334,3.187-1.008s0.874-1.902,0.874-3.689v-15.834
						c0-1.785-0.292-3.014-0.874-3.688s-1.644-1.012-3.187-1.012h-0.263v-1.018h9.954c6.01,0,10.252,0.672,12.726,2.018
						c4.146,2.254,6.221,5.979,6.221,11.176c0,4.479-1.532,7.945-4.595,10.396c-3.063,2.453-7.389,3.68-12.977,3.68H105.249z
						 M112.867,120.404v22.971c1.484,0.412,3.086,0.619,4.803,0.619c3.74,0,6.795-1.135,9.167-3.41
						c2.372-2.271,3.559-5.199,3.559-8.785c0-3.678-1.157-6.594-3.472-8.746c-2.313-2.154-5.441-3.229-9.386-3.229
						C115.807,119.824,114.25,120.018,112.867,120.404z"/>
					<path fill="#EED13D" d="M160.561,118.305l0.458,6.557h-0.852c-0.262-1.758-0.913-3.018-1.953-3.777
						c-1.04-0.762-2.638-1.141-4.791-1.141h-7.53v10.455l6.461-0.039c2.066,0,3.474-0.279,4.224-0.84
						c0.749-0.559,1.124-1.619,1.124-3.178h0.896v9.615h-0.896c-0.087-1.586-0.477-2.633-1.168-3.139s-2.085-0.76-4.18-0.76
						l-6.461-0.08v9.877c0,0.879,0.131,1.445,0.393,1.699s0.852,0.381,1.769,0.381h6.352c2.43,0,4.246-0.395,5.445-1.18
						c1.201-0.787,2.216-2.248,3.046-4.379l0.829,0.219l-2.336,6.979h-23.115v-1.021h0.263c1.542,0,2.604-0.334,3.187-1.008
						c0.581-0.674,0.873-1.902,0.873-3.689v-15.834c0-1.785-0.292-3.014-0.873-3.688c-0.583-0.674-1.645-1.012-3.187-1.012h-0.263
						v-1.018H160.561z"/>
					<path fill="#EED13D" d="M192.932,145.594l-20.344-23.07v17.332c0,1.787,0.291,3.016,0.873,3.689s1.645,1.008,3.188,1.008h0.262
						v1.021h-10.281v-1.021h0.263c1.542,0,2.604-0.334,3.187-1.008c0.581-0.674,0.873-1.902,0.873-3.689v-18.393
						c-1.397-1.439-3.253-2.158-5.566-2.158h-0.065h-0.131v-1h8.294l17.812,20.252v-14.535c0-1.771-0.294-2.998-0.884-3.678
						c-0.589-0.682-1.648-1.021-3.176-1.021h-0.262v-1.018h10.281v1.018h-0.263c-1.543,0-2.604,0.34-3.187,1.021
						c-0.582,0.68-0.873,1.906-0.873,3.678V145.594z"/>
				</g>
			</g>
		</g>
		<g>
			<g>
				<rect x="4.5" y="150.674" fill="#ECD135" width="198" height="1.596"/>
			</g>
			<g>
				<rect x="4.5" y="175.424" fill="#ECD135" width="198" height="1.596"/>
			</g>
		</g>
	</g>
	<g>
		<g>
			<path fill="#146634" d="M17.19,164.252v4.836c0,1.043,0.14,1.693,0.42,1.945c0.364,0.355,0.924,0.533,1.678,0.533h0.767v0.455
				h-8.539v-0.455h0.748c0.852,0,1.454-0.229,1.807-0.686c0.207-0.252,0.311-0.852,0.311-1.793v-10.719
				c0-1.045-0.134-1.693-0.401-1.947c-0.39-0.365-0.961-0.547-1.716-0.547h-0.748v-0.457h7.299c1.788,0,3.195,0.156,4.224,0.465
				c1.027,0.309,1.895,0.826,2.6,1.551s1.059,1.584,1.059,2.576c0,1.359-0.535,2.461-1.605,3.309c-1.07,0.846-2.585,1.27-4.543,1.27
				c-0.487,0-1.01-0.029-1.569-0.084C18.419,164.447,17.822,164.363,17.19,164.252z M17.19,163.553
				c0.522,0.082,0.985,0.143,1.387,0.184c0.401,0.039,0.741,0.061,1.021,0.061c1.021,0,1.9-0.33,2.637-0.988
				c0.735-0.66,1.104-1.51,1.104-2.555c0-0.709-0.177-1.373-0.529-1.992c-0.353-0.617-0.852-1.08-1.496-1.383
				c-0.645-0.305-1.374-0.457-2.189-0.457c-0.499,0-1.144,0.076-1.934,0.229V163.553z"/>
			<path fill="#146634" d="M43.192,166.473h-7.699l-1.351,2.615c-0.341,0.639-0.511,1.119-0.511,1.443
				c0,0.254,0.146,0.477,0.438,0.67c0.291,0.193,0.918,0.314,1.879,0.365v0.455h-6.276v-0.455c0.827-0.123,1.362-0.279,1.605-0.473
				c0.499-0.395,1.052-1.189,1.66-2.387l7.007-13.668h0.528l6.934,13.82c0.547,1.105,1.049,1.822,1.505,2.152
				c0.456,0.328,1.092,0.514,1.907,0.555v0.455h-7.864v-0.455c0.803-0.031,1.341-0.141,1.615-0.328
				c0.273-0.188,0.41-0.418,0.41-0.691c0-0.354-0.194-0.916-0.584-1.688L43.192,166.473z M42.791,165.561l-3.375-6.705l-3.467,6.705
				H42.791z"/>
			<path fill="#146634" d="M70.254,155.418l0.219,3.893h-0.565c-0.098-0.678-0.244-1.164-0.438-1.459
				c-0.304-0.477-0.708-0.826-1.213-1.049s-1.165-0.334-1.979-0.334h-2.81v12.68c0,1.014,0.134,1.646,0.401,1.9
				c0.364,0.346,0.937,0.518,1.715,0.518h0.693v0.455h-8.447v-0.455h0.711c0.84,0,1.436-0.213,1.788-0.639
				c0.207-0.254,0.311-0.848,0.311-1.779v-12.68h-2.391c-0.924,0-1.581,0.055-1.971,0.166c-0.511,0.152-0.948,0.449-1.313,0.891
				c-0.364,0.439-0.577,1.035-0.639,1.785H53.76l0.237-3.893H70.254z"/>
			<path fill="#146634" d="M90.309,155.418l0.219,3.893h-0.565c-0.098-0.678-0.244-1.164-0.438-1.459
				c-0.304-0.477-0.708-0.826-1.213-1.049s-1.165-0.334-1.979-0.334h-2.81v12.68c0,1.014,0.134,1.646,0.401,1.9
				c0.364,0.346,0.937,0.518,1.715,0.518h0.693v0.455h-8.447v-0.455h0.711c0.84,0,1.436-0.213,1.788-0.639
				c0.207-0.254,0.311-0.848,0.311-1.779v-12.68h-2.391c-0.924,0-1.581,0.055-1.971,0.166c-0.511,0.152-0.948,0.449-1.313,0.891
				c-0.364,0.439-0.577,1.035-0.639,1.785h-0.565l0.237-3.893H90.309z"/>
			<path fill="#146634" d="M106.713,166.473h-7.699l-1.351,2.615c-0.341,0.639-0.511,1.119-0.511,1.443
				c0,0.254,0.146,0.477,0.438,0.67c0.291,0.193,0.918,0.314,1.879,0.365v0.455h-6.276v-0.455c0.827-0.123,1.362-0.279,1.605-0.473
				c0.499-0.395,1.052-1.189,1.66-2.387l7.007-13.668h0.528l6.934,13.82c0.547,1.105,1.049,1.822,1.505,2.152
				c0.456,0.328,1.092,0.514,1.907,0.555v0.455h-7.864v-0.455c0.803-0.031,1.341-0.141,1.615-0.328
				c0.273-0.188,0.41-0.418,0.41-0.691c0-0.354-0.194-0.916-0.584-1.688L106.713,166.473z M106.312,165.561l-3.375-6.705
				l-3.467,6.705H106.312z"/>
			<path fill="#146634" d="M130.709,155.418h6.934v0.457h-0.365c-0.256,0-0.63,0.094-1.122,0.281
				c-0.493,0.188-0.939,0.455-1.341,0.807c-0.401,0.35-0.895,0.924-1.479,1.725l-4.798,6.295v4.166c0,1.014,0.134,1.646,0.401,1.9
				c0.377,0.346,0.967,0.518,1.77,0.518h0.639v0.455h-8.466v-0.455h0.712c0.839,0,1.435-0.213,1.788-0.639
				c0.219-0.254,0.328-0.848,0.328-1.779v-3.938l-5.455-6.949c-0.657-0.811-1.099-1.32-1.323-1.527
				c-0.226-0.209-0.702-0.453-1.433-0.738c-0.194-0.08-0.48-0.121-0.857-0.121v-0.457h8.521v0.457h-0.438
				c-0.463,0-0.885,0.092-1.269,0.273c-0.383,0.182-0.574,0.451-0.574,0.807c0,0.293,0.298,0.826,0.894,1.596l4.16,5.336
				l3.904-5.107c0.584-0.771,0.876-1.344,0.876-1.719c0-0.223-0.07-0.426-0.21-0.607c-0.14-0.184-0.344-0.324-0.611-0.426
				s-0.663-0.152-1.186-0.152V155.418z"/>
			<path fill="#146634" d="M153.537,166.473h-7.699l-1.351,2.615c-0.341,0.639-0.511,1.119-0.511,1.443
				c0,0.254,0.146,0.477,0.438,0.67c0.291,0.193,0.918,0.314,1.879,0.365v0.455h-6.276v-0.455c0.827-0.123,1.362-0.279,1.605-0.473
				c0.499-0.395,1.052-1.189,1.66-2.387l7.007-13.668h0.528l6.934,13.82c0.547,1.105,1.049,1.822,1.505,2.152
				c0.456,0.328,1.092,0.514,1.907,0.555v0.455H153.3v-0.455c0.803-0.031,1.341-0.141,1.615-0.328
				c0.273-0.188,0.41-0.418,0.41-0.691c0-0.354-0.194-0.916-0.584-1.688L153.537,166.473z M153.136,165.561l-3.375-6.705
				l-3.467,6.705H153.136z"/>
		</g>
	</g>
</g>
</svg>
