<?xml version="1.0" encoding="UTF-8"?>
<svg width="200pt" version="1.1" xmlns="http://www.w3.org/2000/svg" height="200pt" viewBox="0 0 200 200" xmlns:xlink="http://www.w3.org/1999/xlink">
 <defs>
  <clipPath id="Clip0">
   <path d="M0 0 L200 0 L200 130.715 L0 130.715 L0 0 Z" transform="translate(0.330406, 35.6226)"/>
  </clipPath>
  <clipPath id="Clip1">
   <path d="M0 0 L200 0 L200 130.715 L0 130.715 L0 0 Z" transform="translate(0.330406, 35.6226)"/>
  </clipPath>
  <linearGradient id="Grad0" y1="116.996" x1="105.788" y2="-2.64057" gradientUnits="userSpaceOnUse" x2="0.507946">
   <stop offset="0%" stop-color="#986826" stop-opacity="0.9"/>
   <stop offset="49.69%" stop-color="#f5db71" stop-opacity="1"/>
   <stop offset="100%" stop-color="#986826" stop-opacity="0.9"/>
  </linearGradient>
  <linearGradient id="Grad1" y1="107.001" x1="87.4671" y2="-12.63" gradientUnits="userSpaceOnUse" x2="-17.8085">
   <stop offset="0%" stop-color="#986826" stop-opacity="0.9"/>
   <stop offset="49.69%" stop-color="#f5db71" stop-opacity="1"/>
   <stop offset="100%" stop-color="#986826" stop-opacity="0.9"/>
  </linearGradient>
  <linearGradient id="Grad2" y1="95.1938" x1="86.2034" y2="-24.4382" gradientUnits="userSpaceOnUse" x2="-19.0732">
   <stop offset="0%" stop-color="#986826" stop-opacity="0.9"/>
   <stop offset="49.69%" stop-color="#f5db71" stop-opacity="1"/>
   <stop offset="100%" stop-color="#986826" stop-opacity="0.9"/>
  </linearGradient>
  <linearGradient id="Grad3" y1="79.9682" x1="76.3893" y2="-39.6607" gradientUnits="userSpaceOnUse" x2="-28.8846">
   <stop offset="0%" stop-color="#986826" stop-opacity="0.9"/>
   <stop offset="49.69%" stop-color="#f5db71" stop-opacity="1"/>
   <stop offset="100%" stop-color="#986826" stop-opacity="0.9"/>
  </linearGradient>
  <linearGradient id="Grad4" y1="90.6938" x1="81.1106" y2="-28.9369" gradientUnits="userSpaceOnUse" x2="-24.1648">
   <stop offset="0%" stop-color="#986826" stop-opacity="0.9"/>
   <stop offset="49.69%" stop-color="#f5db71" stop-opacity="1"/>
   <stop offset="100%" stop-color="#986826" stop-opacity="0.9"/>
  </linearGradient>
  <linearGradient id="Grad5" y1="86.1043" x1="73.3898" y2="-33.5215" gradientUnits="userSpaceOnUse" x2="-31.8814">
   <stop offset="0%" stop-color="#986826" stop-opacity="0.9"/>
   <stop offset="49.69%" stop-color="#f5db71" stop-opacity="1"/>
   <stop offset="100%" stop-color="#986826" stop-opacity="0.9"/>
  </linearGradient>
  <linearGradient id="Grad6" y1="79.0491" x1="67.9982" y2="-40.566" gradientUnits="userSpaceOnUse" x2="-37.2635">
   <stop offset="0%" stop-color="#986826" stop-opacity="0.9"/>
   <stop offset="49.69%" stop-color="#f5db71" stop-opacity="1"/>
   <stop offset="100%" stop-color="#986826" stop-opacity="0.9"/>
  </linearGradient>
  <linearGradient id="Grad7" y1="72.7663" x1="63.0117" y2="-46.8418" gradientUnits="userSpaceOnUse" x2="-42.2439">
   <stop offset="0%" stop-color="#986826" stop-opacity="0.9"/>
   <stop offset="49.69%" stop-color="#f5db71" stop-opacity="1"/>
   <stop offset="100%" stop-color="#986826" stop-opacity="0.9"/>
  </linearGradient>
  <linearGradient id="Grad8" y1="66.1067" x1="57.5176" y2="-53.5139" gradientUnits="userSpaceOnUse" x2="-47.7491">
   <stop offset="0%" stop-color="#986826" stop-opacity="0.9"/>
   <stop offset="49.69%" stop-color="#f5db71" stop-opacity="1"/>
   <stop offset="100%" stop-color="#986826" stop-opacity="0.9"/>
  </linearGradient>
  <linearGradient id="Grad9" y1="59.8748" x1="53.5246" y2="-59.7581" gradientUnits="userSpaceOnUse" x2="-51.7528">
   <stop offset="0%" stop-color="#986826" stop-opacity="0.9"/>
   <stop offset="49.69%" stop-color="#f5db71" stop-opacity="1"/>
   <stop offset="100%" stop-color="#986826" stop-opacity="0.9"/>
  </linearGradient>
  <linearGradient id="Grad10" y1="47.1484" x1="42.9946" y2="-72.483" gradientUnits="userSpaceOnUse" x2="-62.2815">
   <stop offset="0%" stop-color="#986826" stop-opacity="0.9"/>
   <stop offset="49.69%" stop-color="#f5db71" stop-opacity="1"/>
   <stop offset="100%" stop-color="#986826" stop-opacity="0.9"/>
  </linearGradient>
  <linearGradient id="Grad11" y1="39.4263" x1="35.0246" y2="-80.19" gradientUnits="userSpaceOnUse" x2="-70.2382">
   <stop offset="0%" stop-color="#986826" stop-opacity="0.9"/>
   <stop offset="49.69%" stop-color="#f5db71" stop-opacity="1"/>
   <stop offset="100%" stop-color="#986826" stop-opacity="0.9"/>
  </linearGradient>
  <linearGradient id="Grad12" y1="25.7581" x1="31.0308" y2="-93.8773" gradientUnits="userSpaceOnUse" x2="-74.2488">
   <stop offset="0%" stop-color="#986826" stop-opacity="0.9"/>
   <stop offset="49.69%" stop-color="#f5db71" stop-opacity="1"/>
   <stop offset="100%" stop-color="#986826" stop-opacity="0.9"/>
  </linearGradient>
  <linearGradient id="Grad13" y1="17.4444" x1="14.351" y2="-102.189" gradientUnits="userSpaceOnUse" x2="-90.927">
   <stop offset="0%" stop-color="#986826" stop-opacity="0.9"/>
   <stop offset="49.69%" stop-color="#f5db71" stop-opacity="1"/>
   <stop offset="100%" stop-color="#986826" stop-opacity="0.9"/>
  </linearGradient>
  <linearGradient id="Grad14" y1="9.76351" x1="6.20278" y2="-109.868" gradientUnits="userSpaceOnUse" x2="-99.0735">
   <stop offset="0%" stop-color="#986826" stop-opacity="0.9"/>
   <stop offset="49.69%" stop-color="#f5db71" stop-opacity="1"/>
   <stop offset="100%" stop-color="#986826" stop-opacity="0.9"/>
  </linearGradient>
  <linearGradient id="Grad15" y1="37.8756" x1="132.642" y2="-81.7538" gradientUnits="userSpaceOnUse" x2="27.3672">
   <stop offset="0%" stop-color="#986826" stop-opacity="0.9"/>
   <stop offset="49.69%" stop-color="#f5db71" stop-opacity="1"/>
   <stop offset="100%" stop-color="#986826" stop-opacity="0.9"/>
  </linearGradient>
  <linearGradient id="Grad16" y1="30.9643" x1="67.1688" y2="-88.6631" gradientUnits="userSpaceOnUse" x2="-38.1037">
   <stop offset="0%" stop-color="#986826" stop-opacity="0.9"/>
   <stop offset="49.69%" stop-color="#f5db71" stop-opacity="1"/>
   <stop offset="100%" stop-color="#986826" stop-opacity="0.9"/>
  </linearGradient>
  <linearGradient id="Grad17" y1="62.3071" x1="42.4806" y2="-57.3314" gradientUnits="userSpaceOnUse" x2="-62.8018">
   <stop offset="0%" stop-color="#986826" stop-opacity="0.9"/>
   <stop offset="49.69%" stop-color="#f5db71" stop-opacity="1"/>
   <stop offset="100%" stop-color="#986826" stop-opacity="0.9"/>
  </linearGradient>
  <linearGradient id="Grad18" y1="103.862" x1="79.8127" y2="-38.8542" gradientUnits="userSpaceOnUse" x2="-45.7781">
   <stop offset="0%" stop-color="#986826" stop-opacity="0.9"/>
   <stop offset="49.69%" stop-color="#f5db71" stop-opacity="1"/>
   <stop offset="100%" stop-color="#986826" stop-opacity="0.9"/>
  </linearGradient>
  <linearGradient id="Grad19" y1="61.504" x1="43.9659" y2="-58.1265" gradientUnits="userSpaceOnUse" x2="-61.3094">
   <stop offset="0%" stop-color="#986826" stop-opacity="0.9"/>
   <stop offset="49.69%" stop-color="#f5db71" stop-opacity="1"/>
   <stop offset="100%" stop-color="#986826" stop-opacity="0.9"/>
  </linearGradient>
  <linearGradient id="Grad20" y1="42.5823" x1="37.6122" y2="-77.6002" gradientUnits="userSpaceOnUse" x2="-68.1489">
   <stop offset="0%" stop-color="#986826" stop-opacity="0.9"/>
   <stop offset="49.69%" stop-color="#f5db71" stop-opacity="1"/>
   <stop offset="100%" stop-color="#986826" stop-opacity="0.9"/>
  </linearGradient>
  <linearGradient id="Grad21" y1="42.5823" x1="37.6122" y2="-77.6002" gradientUnits="userSpaceOnUse" x2="-68.1489">
   <stop offset="0%" stop-color="#986826" stop-opacity="0.9"/>
   <stop offset="49.69%" stop-color="#f5db71" stop-opacity="1"/>
   <stop offset="100%" stop-color="#986826" stop-opacity="0.9"/>
  </linearGradient>
  <linearGradient id="Grad22" y1="65.1952" x1="39.7503" y2="-54.4379" gradientUnits="userSpaceOnUse" x2="-65.5273">
   <stop offset="0%" stop-color="#986826" stop-opacity="0.9"/>
   <stop offset="49.69%" stop-color="#f5db71" stop-opacity="1"/>
   <stop offset="100%" stop-color="#986826" stop-opacity="0.9"/>
  </linearGradient>
  <linearGradient id="Grad23" y1="106.789" x1="82.5982" y2="-17.8375" gradientUnits="userSpaceOnUse" x2="-27.0734">
   <stop offset="0%" stop-color="#986826" stop-opacity="0.9"/>
   <stop offset="49.69%" stop-color="#f5db71" stop-opacity="1"/>
   <stop offset="100%" stop-color="#986826" stop-opacity="0.9"/>
  </linearGradient>
  <linearGradient id="Grad24" y1="15.7359" x1="13.9873" y2="-104.177" gradientUnits="userSpaceOnUse" x2="-91.5362">
   <stop offset="0%" stop-color="#986826" stop-opacity="0.9"/>
   <stop offset="49.69%" stop-color="#f5db71" stop-opacity="1"/>
   <stop offset="100%" stop-color="#986826" stop-opacity="0.9"/>
  </linearGradient>
  <linearGradient id="Grad25" y1="15.7359" x1="13.9873" y2="-104.177" gradientUnits="userSpaceOnUse" x2="-91.5362">
   <stop offset="0%" stop-color="#986826" stop-opacity="0.9"/>
   <stop offset="49.69%" stop-color="#f5db71" stop-opacity="1"/>
   <stop offset="100%" stop-color="#986826" stop-opacity="0.9"/>
  </linearGradient>
  <linearGradient id="Grad26" y1="18.6778" x1="16.5773" y2="-100.92" gradientUnits="userSpaceOnUse" x2="-88.6691">
   <stop offset="0%" stop-color="#986826" stop-opacity="0.9"/>
   <stop offset="49.69%" stop-color="#f5db71" stop-opacity="1"/>
   <stop offset="100%" stop-color="#986826" stop-opacity="0.9"/>
  </linearGradient>
  <linearGradient id="Grad27" y1="18.6778" x1="16.5773" y2="-100.92" gradientUnits="userSpaceOnUse" x2="-88.6691">
   <stop offset="0%" stop-color="#986826" stop-opacity="0.9"/>
   <stop offset="49.69%" stop-color="#f5db71" stop-opacity="1"/>
   <stop offset="100%" stop-color="#986826" stop-opacity="0.9"/>
  </linearGradient>
  <linearGradient id="Grad28" y1="87.5887" x1="80.7052" y2="-32.0454" gradientUnits="userSpaceOnUse" x2="-24.5732">
   <stop offset="0%" stop-color="#986826" stop-opacity="0.9"/>
   <stop offset="49.69%" stop-color="#f5db71" stop-opacity="1"/>
   <stop offset="100%" stop-color="#986826" stop-opacity="0.9"/>
  </linearGradient>
 </defs>
 <g id="Background">
  <g id="tower" clip-path="url(#Clip0)">
   <g id="Group1" clip-path="url(#Clip1)">
    <path style="fill:url(#Grad0); fill-rule:nonzero;stroke:none;" d="M7.7385 30.0408 C9.829 31.0885 12.1512 31.604 14.6905 31.604 C17.0795 31.604 19.3261 31.0934 21.4186 30.0722 C22.8973 29.3368 24.1994 28.4 25.3423 27.26 C26.2074 26.3881 26.6355 25.8568 26.6355 25.6565 L25.9099 24.8838 C24.7237 26.0974 23.567 27.043 22.429 27.7264 C20.4121 28.9214 18.2352 29.5204 15.9012 29.5204 C12.87 29.5204 10.3926 28.4638 8.47493 26.3321 C6.26464 23.894 5.16685 20.4209 5.16685 15.9257 C5.16685 12.9702 5.54587 10.483 6.31668 8.46904 C6.87244 7.005 7.67663 5.72753 8.7214 4.64349 C9.63752 3.7578 10.6852 3.07439 11.8763 2.58735 C13.0625 2.10621 14.2211 1.86073 15.3326 1.86073 C17.974 1.86073 20.146 2.66885 21.8732 4.26742 C23.3971 5.702 24.4733 7.69922 25.0929 10.264 L26.1298 10.264 L25.6821 0.000981918 L24.814 0.000981918 C24.6236 0.681451 24.2632 1.14099 23.7182 1.37174 C23.459 1.48368 23.1252 1.54456 22.7334 1.54456 C21.4451 1.19598 20.1686 0.840522 18.8892 0.466411 C17.5891 0.162016 16.29 0 15.0027 0 C10.9425 0 7.50382 1.35701 4.65626 4.06907 C1.56027 7.02071 0 10.915 0 15.7529 C0 19.3644 0.750185 22.4201 2.24466 24.9368 C3.57418 27.1775 5.40546 28.8762 7.7385 30.0408 Z" transform="translate(0.330406, 109.293)"/>
    <path style="fill:url(#Grad1); fill-rule:nonzero;stroke:none;" d="M13.197 29.3711 C11.4992 29.3711 10.3651 29.1207 9.77598 28.617 C9.14755 28.0544 8.82842 26.9065 8.82842 25.1715 L8.82842 4.93217 C8.82842 3.1932 9.14755 2.06301 9.77598 1.54358 C10.316 1.10073 11.459 0.875871 13.197 0.875871 L13.197 0 L0 0 L0 0.875871 C1.84699 0.875871 3.03314 1.11939 3.55945 1.62409 C4.08478 2.13469 4.34302 3.23051 4.34302 4.93217 L4.34302 25.1715 C4.34302 26.883 4.08478 28.0171 3.55945 28.5591 C3.03314 29.1021 1.84797 29.3701 0 29.3701 L0 30.2087 L13.197 30.2087 L13.197 29.3711 Z" transform="translate(29.2361, 109.963)"/>
    <path style="fill:url(#Grad2); fill-rule:nonzero;stroke:none;" d="M3.09697 2.98012 C3.9532 2.25056 5.60773 1.89019 8.07235 1.89019 L10.429 1.89019 L10.429 24.8249 C10.429 26.6561 10.2345 27.8266 9.86631 28.3254 C9.36357 29.0206 8.16367 29.3711 6.25285 29.3711 L6.25285 30.2097 L19.2279 30.2097 L19.2279 29.3711 C17.4349 29.3711 16.2439 29.0569 15.6694 28.4128 C15.1647 27.8727 14.9173 26.7897 14.9173 25.1715 L14.9173 1.88823 L17.3259 1.88823 C19.8053 1.88823 21.4814 2.24663 22.3406 2.9595 C23.2017 3.67237 23.8685 5.28075 24.3329 7.7709 L25.4209 7.7709 L25.197 0 L0.223877 0 L0 7.7709 L1.15179 7.7709 C1.60249 5.30432 2.24761 3.69987 3.09697 2.98012 Z" transform="translate(43.9207, 109.962)"/>
    <path style="fill:url(#Grad3); fill-rule:nonzero;stroke:none;" d="M7.23084 8.00165 L13.0281 16.8448 L13.0281 24.8229 C13.0281 26.6335 12.8042 27.8099 12.3555 28.3539 C11.7997 29.0314 10.5262 29.3701 8.54661 29.3701 L8.54661 30.2087 L22.0313 30.2087 L22.0313 29.3701 C20.0675 29.3701 18.8214 29.107 18.2902 28.5709 C17.758 28.0406 17.484 26.9065 17.484 25.1715 L17.484 16.3833 L23.9912 6.11931 C25.3413 3.91589 26.5226 2.45185 27.5516 1.71246 C28.1644 1.26962 29.0019 0.991737 30.0673 0.875871 L30.0673 0 L20.4848 0 L20.4848 0.875871 C21.6621 0.875871 22.4594 1.00254 22.8807 1.25195 C23.3078 1.5043 23.5071 1.86957 23.5071 2.35071 C23.5071 2.66296 23.3981 3.0302 23.1723 3.45341 C23.1193 3.584 23.0093 3.801 22.8512 4.09165 L16.5306 14.3537 L10.0273 4.2684 C9.79267 3.91589 9.61101 3.56829 9.48238 3.22462 C9.36259 2.87604 9.30269 2.5687 9.30269 2.29474 C9.30269 1.68301 9.52853 1.28631 9.9753 1.1184 C10.4231 0.956388 11.2449 0.876853 12.4438 0.876853 L12.4438 0.000981918 L0 0.000981918 L0 0.876853 C1.07422 0.876853 1.97562 1.21267 2.68555 1.88921 C3.52705 2.68162 5.04117 4.72499 7.23084 8.00165 Z" transform="translate(71.0305, 109.964)"/>
    <path style="fill:url(#Grad4); fill-rule:nonzero;stroke:none;" d="M4.56199 1.2382 C5.16882 0.919075 5.79135 0.763932 6.4728 0.763932 C7.26128 0.763932 7.94764 0.942641 8.53581 1.29515 C8.9924 1.58285 9.39892 2.00311 9.75536 2.55299 C9.99887 2.94183 10.2178 3.4102 10.4221 3.96302 L10.8541 3.96302 L10.7343 0 L10.3357 0 C10.2866 0.175763 10.1805 0.333852 10.0165 0.448737 C9.84569 0.570494 9.66895 0.630391 9.47453 0.630391 C8.94724 0.490959 8.41406 0.335816 7.8956 0.186564 C7.38206 0.0589151 6.81942 0.000981918 6.20179 0.000981918 C4.3607 0.000981918 2.84069 0.651012 1.65846 1.96482 C0.558711 3.19123 0 4.63858 0 6.29999 C0 7.46356 0.132559 8.40424 0.385894 9.12889 C0.618608 9.76517 0.989773 10.3769 1.50823 10.9582 C2.12094 11.6347 2.9055 12.1532 3.87465 12.5234 C4.74659 12.8494 5.65192 13.0104 6.60536 13.0104 C7.48222 13.0104 8.47788 12.8091 9.5629 12.4036 C10.5429 12.0491 11.026 11.7928 11.026 11.6377 L11.026 7.86713 C11.026 7.2387 11.13 6.82629 11.3588 6.64071 C11.4963 6.51404 11.8076 6.4296 12.2975 6.38541 L12.2975 6.04272 L7.69136 6.04272 L7.69136 6.38541 C8.33157 6.38541 8.75478 6.48262 8.95313 6.66722 C9.14362 6.85182 9.2477 7.32511 9.2477 8.07333 L9.2477 11.1261 C9.2477 11.4472 8.99535 11.7104 8.49948 11.9185 C7.9987 12.1208 7.42526 12.2268 6.78996 12.2268 C5.35734 12.2268 4.21341 11.731 3.35423 10.7333 C2.50193 9.73473 2.07676 8.39147 2.07676 6.69864 C2.07676 5.2346 2.33107 4.01212 2.83676 3.041 C3.25997 2.24074 3.84028 1.63588 4.56199 1.2382 Z" transform="translate(12.8469, 146.287)"/>
    <path style="fill:url(#Grad5); fill-rule:nonzero;stroke:none;" d="M0.42517 12.2465 C0.306358 12.2907 0.160053 12.3182 0 12.3182 L0 12.6628 L3.56043 12.6628 L3.56043 12.3182 C3.12446 12.3182 2.80534 12.2514 2.62368 12.112 C2.44203 11.9814 2.35071 11.785 2.35071 11.5179 C2.35071 11.4138 2.36151 11.3038 2.3733 11.1782 C2.3841 11.0535 2.41552 10.9278 2.4597 10.804 L3.2963 8.60651 L8.05467 8.60651 L8.84217 10.4407 C8.86476 10.5183 8.93054 10.7029 9.03463 10.9965 C9.12398 11.2675 9.16522 11.4708 9.16522 11.6122 C9.16522 11.9264 9.03463 12.1414 8.78424 12.2318 C8.63597 12.2907 8.33747 12.3182 7.89658 12.3182 L7.89658 12.6628 L12.5244 12.6628 L12.5244 12.3182 C12.1198 12.3182 11.8243 12.219 11.6161 12.0197 C11.4148 11.8154 11.1644 11.3578 10.8767 10.6558 L6.3805 0 L5.99756 0 L2.21619 9.21334 C2.05221 9.57665 1.88921 9.94388 1.72228 10.3023 C1.34621 11.1408 1.07127 11.6554 0.88569 11.8567 C0.74233 12.0452 0.589151 12.1777 0.42517 12.2465 Z M5.70789 2.6335 L7.79152 7.8524 L3.61346 7.8524 L5.70789 2.6335 Z" transform="translate(25.7228, 146.335)"/>
    <path style="fill:url(#Grad6); fill-rule:nonzero;stroke:none;" d="M0.000981918 0.355454 C0.651994 0.43008 1.0752 0.554784 1.24998 0.729565 C1.45815 0.928894 1.56812 1.36388 1.56812 2.02668 L1.56812 10.2149 C1.56812 10.9543 1.48564 11.4393 1.33148 11.6583 C1.13313 11.9519 0.689306 12.0923 0.000981918 12.0923 L0.000981918 12.437 L5.01662 12.437 L5.01662 12.0923 C4.33615 12.0923 3.89232 11.9598 3.67728 11.7015 C3.49563 11.4786 3.40726 11.0426 3.40726 10.3641 L3.40726 6.66722 L4.40783 6.65249 L8.71845 12.437 L11.6789 12.437 L11.6789 12.0923 C11.3323 12.0923 11.0279 12.0108 10.7913 11.8616 C10.5409 11.7015 10.3042 11.4786 10.0784 11.2037 L6.36774 6.42371 C7.16997 6.29311 7.82294 6.06433 8.34238 5.72458 C9.19272 5.17373 9.62672 4.35284 9.62672 3.27077 C9.62672 2.37624 9.33706 1.65748 8.78326 1.1184 C8.34238 0.698144 7.72475 0.393749 6.92841 0.200311 C6.3589 0.0608789 5.7236 0 5.01564 0 L0 0 L0 0.355454 L0.000981918 0.355454 Z M3.40824 1.33344 C3.40824 1.05458 3.48188 0.875871 3.61935 0.798299 C3.75191 0.720728 4.06219 0.676541 4.53744 0.676541 C5.57533 0.676541 6.35694 0.894527 6.87146 1.32264 C7.40759 1.75272 7.66387 2.38802 7.66387 3.22069 C7.66387 4.06612 7.40759 4.71419 6.89797 5.17078 C6.50422 5.52623 5.9298 5.76779 5.17962 5.89347 C4.76132 5.96712 4.17021 6.00443 3.40824 6.00443 L3.40824 1.33344 L3.40824 1.33344 Z" transform="translate(38.8628, 146.561)"/>
    <path style="fill:url(#Grad7); fill-rule:nonzero;stroke:none;" d="M1.2814 11.7437 C1.08207 11.9725 0.656903 12.0913 0 12.0913 L0 12.436 L5.15016 12.436 C6.87441 12.436 8.30997 12.0913 9.44311 11.3863 C10.3887 10.807 11.0967 10.0028 11.569 8.96687 C11.9558 8.12832 12.1453 7.23379 12.1453 6.27642 C12.1453 4.20948 11.4875 2.62565 10.1501 1.53572 C8.89618 0.510597 7.14542 0 4.8929 0 L7.10543e-15 0 L7.10543e-15 0.355454 C0.709927 0.416333 1.15179 0.543983 1.31773 0.729565 C1.50135 0.912202 1.58089 1.34228 1.58089 2.02668 L1.58089 10.3632 C1.58187 11.0535 1.48368 11.515 1.2814 11.7437 Z M3.45144 1.40611 C3.45144 1.15866 3.49268 0.991737 3.55356 0.901401 C3.67041 0.757059 3.91491 0.67556 4.29393 0.67556 C5.34753 0.67556 6.22438 0.799281 6.91958 1.04672 C7.47731 1.24605 8.00656 1.56321 8.48868 2.00115 C9.07783 2.56182 9.51184 3.22364 9.79463 3.99444 C10.0411 4.68277 10.1619 5.44375 10.1619 6.27544 C10.1619 7.9172 9.75437 9.20254 8.95411 10.1363 C8.34139 10.8315 7.52837 11.3078 6.49637 11.5582 C5.94748 11.6888 5.29156 11.7545 4.5345 11.7545 C4.10245 11.7545 3.81082 11.6996 3.66648 11.5974 C3.52312 11.4933 3.45242 11.2695 3.45242 10.9464 L3.45242 1.40611 L3.45144 1.40611 Z" transform="translate(50.9797, 146.563)"/>
    <path style="fill:url(#Grad8); fill-rule:nonzero;stroke:none;" d="M1.21758 11.785 C1.01432 11.9873 0.610753 12.0904 0 12.0904 L0 12.435 L9.80838 12.435 L10.6214 9.2644 L10.0941 9.2644 C9.68858 10.2227 9.20843 10.8826 8.6507 11.2214 C8.10377 11.5582 7.25343 11.732 6.12422 11.732 C4.79372 11.732 4.00917 11.7005 3.77057 11.619 C3.54472 11.5434 3.421 11.3048 3.421 10.8973 L3.421 6.27642 L6.21554 6.3265 C6.97456 6.3265 7.4724 6.43745 7.70707 6.65249 C7.94764 6.86459 8.11948 7.34082 8.22749 8.0802 L8.6507 8.0802 L8.6507 3.73227 L8.22749 3.73227 C8.12832 4.44809 7.95943 4.91646 7.7493 5.13543 C7.49203 5.39171 6.97653 5.51347 6.21554 5.51347 L3.421 5.51347 L3.421 1.33344 C3.421 1.03789 3.47795 0.855251 3.58498 0.766878 C3.64292 0.729565 3.79511 0.698144 4.0239 0.698144 L6.47869 0.698144 C7.48418 0.698144 8.15974 0.828739 8.5093 1.07127 C8.8569 1.31773 9.10042 1.84502 9.24378 2.65707 L9.66404 2.65707 L9.62476 0 L1.42109e-14 0 L1.42109e-14 0.355454 C0.610753 0.355454 1.01432 0.451682 1.21758 0.643156 C1.45029 0.868997 1.56321 1.32755 1.56321 2.02668 L1.56321 10.3632 C1.56321 11.0643 1.45029 11.5415 1.21758 11.785 Z" transform="translate(64.0559, 146.564)"/>
    <path style="fill:url(#Grad9); fill-rule:nonzero;stroke:none;" d="M10.5733 12.6589 L10.8855 12.6589 L10.8855 2.72875 C10.8855 1.73014 11.0387 1.08207 11.3176 0.766878 C11.5189 0.576386 11.9421 0.433026 12.6108 0.355454 L12.6108 7.10543e-14 L8.32568 7.10543e-14 L8.32568 0.355454 C8.99928 0.355454 9.4598 0.489977 9.68957 0.750185 C9.96352 1.06636 10.102 1.72818 10.102 2.72875 L10.0755 9.03856 L3.11366 0 L0 0 L0 0.355454 C0.361346 0.355454 0.654939 0.416333 0.887654 0.5322 C1.10662 0.651012 1.41003 0.926931 1.77531 1.35505 L1.77531 9.67975 C1.77531 10.6764 1.65846 11.3313 1.41298 11.6328 C1.17634 11.9401 0.705999 12.0933 0 12.0933 L0 12.438 L4.25367 12.438 L4.25367 12.0933 C3.59186 12.0933 3.13723 11.9254 2.89568 11.5906 C2.65707 11.2547 2.53728 10.6234 2.53728 9.67975 L2.56182 2.36446 L10.5733 12.6589 Z" transform="translate(75.1457, 146.562)"/>
    <path style="fill:url(#Grad10); fill-rule:nonzero;stroke:none;" d="M10.7697 1.1783 C12.3172 1.1783 13.3482 1.40316 13.8843 1.84797 C14.4244 2.2918 14.8338 3.28255 15.1264 4.83496 L15.802 4.83496 L15.6655 0 L0.136487 0 L0 4.83496 L0.709927 4.83496 C0.984864 3.30023 1.38549 2.30456 1.91965 1.85484 C2.45087 1.40316 3.48286 1.17928 5.01367 1.17928 L6.47673 1.17928 L6.47673 15.4407 C6.47673 16.5787 6.36185 17.3073 6.12717 17.6254 C5.81197 18.0545 5.06179 18.2656 3.88152 18.2656 L3.88152 18.7969 L11.948 18.7969 L11.948 18.2656 C10.8453 18.2656 10.101 18.0702 9.73572 17.6735 C9.42347 17.3387 9.26931 16.6671 9.26931 15.6518 L9.26931 1.1783 L10.7697 1.1783 L10.7697 1.1783 Z" transform="translate(101.632, 143.654)"/>
    <path style="fill:url(#Grad11); fill-rule:nonzero;stroke:none;" d="M2.80338 2.46854 C0.929876 4.30178 0 6.75069 0 9.82802 C0 12.7973 0.876853 15.1942 2.62368 17.0196 C4.31258 18.7733 6.42076 19.6541 8.94822 19.6541 C11.51 19.6541 13.6418 18.7654 15.3287 16.995 C17.104 15.1618 17.9897 12.7659 17.9897 9.82802 C17.9897 6.75069 17.0402 4.30178 15.1588 2.46854 C13.465 0.822847 11.3942 0 8.94822 0 C6.5327 1.42109e-14 4.48442 0.822847 2.80338 2.46854 Z M12.9378 2.99092 C14.1897 4.54726 14.8142 6.81353 14.8142 9.7907 C14.8142 12.7217 14.2133 14.9742 13.0153 16.5492 C11.9755 17.921 10.6224 18.6103 8.94724 18.6103 C7.2878 18.6103 5.93962 17.9131 4.88406 16.5316 C3.71852 14.9831 3.13428 12.7384 3.13428 9.79169 C3.13428 6.81451 3.75682 4.54824 4.99796 2.9919 C6.04174 1.68595 7.35751 1.03003 8.94625 1.03003 C10.5645 1.02905 11.892 1.68497 12.9378 2.99092 Z" transform="translate(118.835, 143.245)"/>
    <path style="fill:url(#Grad12); fill-rule:nonzero;stroke:none;" d="M5.34065 0.751167 C5.61755 0.609771 6.06924 0.553802 6.71141 0.553802 L6.71141 0 L0 0 L0 0.553802 C0.74233 0.618608 1.30399 0.904346 1.69577 1.39236 C2.01293 1.80378 2.38704 2.63252 2.81516 3.88349 C3.4485 5.54195 4.28804 7.89167 5.34458 10.9346 C6.45611 14.1053 7.38108 16.8291 8.1401 19.116 L8.53876 19.116 L12.7757 7.13069 C13.2539 8.3954 13.7272 9.66796 14.2034 10.9346 C15.0116 13.085 15.5497 14.5579 15.8423 15.3631 C16.3558 16.7849 16.7849 18.0349 17.1296 19.116 L17.5665 19.116 C18.0565 17.431 18.6506 15.5516 19.3418 13.4729 C19.9025 11.8046 20.5682 9.89282 21.3332 7.75715 C21.8663 6.26758 22.5331 4.44318 23.3156 2.29474 C23.4698 1.71934 23.6907 1.31381 23.9824 1.08109 C24.272 0.848377 24.7443 0.671632 25.4081 0.555766 L25.4081 0.00196384 L19.9555 0.00196384 L19.9555 0.555766 C20.526 0.555766 20.9561 0.622536 21.2634 0.780625 C21.6601 0.987809 21.8565 1.33835 21.8565 1.84895 C21.8565 2.11014 21.8172 2.44498 21.7387 2.8348 C21.6611 3.23542 21.5835 3.59284 21.4932 3.91982 L18.0241 13.5132 L14.3959 3.84617 C14.3075 3.55847 14.171 3.18436 14.0022 2.73071 C13.7891 2.1887 13.683 1.82342 13.683 1.629 C13.683 1.17241 13.9373 0.858196 14.4312 0.694216 C14.719 0.595042 15.1706 0.554784 15.7706 0.554784 L15.7706 0.000981918 L8.4661 0.000981918 L8.4661 0.554784 C9.23199 0.554784 9.76812 0.694216 10.0931 0.969153 C10.4211 1.25195 10.806 1.95205 11.242 3.07144 L12.0953 5.42804 L9.2153 13.4366 L5.2513 2.7641 C5.14427 2.56084 5.06277 2.35071 5.01466 2.12978 C4.95476 1.91474 4.93512 1.71541 4.93512 1.52099 C4.93316 1.14197 5.06571 0.888636 5.34065 0.751167 Z" transform="translate(137.902, 143.655)"/>
    <path style="fill:url(#Grad13); fill-rule:nonzero;stroke:none;" d="M1.84895 17.8051 C1.55634 18.1125 0.927912 18.2656 0 18.2656 L0 18.7969 L14.8132 18.7969 L16.0357 13.9972 L15.2521 13.9972 C14.6424 15.4495 13.9079 16.4334 13.0733 16.9509 C12.2386 17.4713 10.9661 17.7275 9.26243 17.7275 C7.24655 17.7275 6.06138 17.6637 5.70887 17.5508 C5.36422 17.4398 5.17765 17.0795 5.17765 16.4658 L5.17765 9.48631 L9.39106 9.56388 C10.534 9.56388 11.2813 9.72393 11.6465 10.045 C12.0059 10.37 12.2622 11.0908 12.4311 12.2121 L13.0733 12.2121 L13.0733 5.64996 L12.4311 5.64996 C12.2779 6.72614 12.0383 7.43508 11.7104 7.75715 C11.3166 8.14403 10.5448 8.33059 9.39205 8.33059 L5.17864 8.33059 L5.17864 2.0257 C5.17864 1.58482 5.2621 1.30301 5.41528 1.17928 C5.51445 1.1076 5.73636 1.07225 6.082 1.07225 L9.79758 1.07225 C11.3117 1.07225 12.328 1.25587 12.8592 1.629 C13.3865 2.00409 13.7567 2.79847 13.9707 4.02488 L14.607 4.02488 L14.5402 0 L0 0 L0 0.553802 C0.927912 0.553802 1.55634 0.693234 1.84895 0.978972 C2.1995 1.31282 2.37133 2.01195 2.37133 3.07046 L2.37133 15.6518 C2.37133 16.723 2.1995 17.4398 1.84895 17.8051 Z" transform="translate(164.028, 143.654)"/>
    <path style="fill:url(#Grad14); fill-rule:nonzero;stroke:none;" d="M16.2841 17.919 C15.9061 17.6834 15.5467 17.3495 15.2021 16.9155 L9.60709 9.7043 C10.804 9.51086 11.7997 9.16817 12.5794 8.66444 C13.8706 7.81999 14.5177 6.58081 14.5177 4.94396 C14.5177 3.60462 14.0935 2.52157 13.2451 1.70461 C12.5794 1.05851 11.6554 0.604861 10.4535 0.314214 C9.59825 0.110957 8.63597 0 7.56273 0 L0 0 L0 0.553802 C0.986828 0.656903 1.61526 0.843468 1.88135 1.10662 C2.19851 1.41985 2.34384 2.07479 2.34384 3.07046 L2.34384 15.4407 C2.34384 16.5542 2.23485 17.2847 2.00311 17.6254 C1.70265 18.0545 1.03101 18.2656 0 18.2656 L0 18.7969 L7.56273 18.7969 L7.56273 18.2656 C6.53859 18.2656 5.86598 18.0702 5.54195 17.6735 C5.26897 17.3495 5.14525 16.673 5.14525 15.6518 L5.14525 10.0833 L6.63875 10.044 L13.1567 18.7959 L17.6225 18.7959 L17.6225 18.2647 C17.0972 18.2656 16.6474 18.1449 16.2841 17.919 Z M5.14525 9.07194 L5.14525 2.02471 C5.14525 1.60544 5.24246 1.33344 5.45554 1.21169 C5.65388 1.08797 6.12226 1.02807 6.84888 1.02807 C8.40915 1.02807 9.57861 1.35603 10.3622 2.00704 C11.1575 2.65412 11.5532 3.61444 11.5532 4.87228 C11.5532 6.14681 11.1674 7.12971 10.3965 7.81214 C9.80249 8.35416 8.93447 8.7155 7.80428 8.91091 C7.18077 9.0199 6.28624 9.07194 5.14525 9.07194 Z" transform="translate(180.904, 143.654)"/>
    <path style="fill:url(#Grad15); fill-rule:evenodd;stroke:none;" d="M0 0 L200 0 L200 1.56714 L0 1.56714 L0 0 Z" transform="translate(0.330406, 164.77)"/>
    <path style="fill:url(#Grad16); fill-rule:nonzero;stroke:none;" d="M70.5616 0.181655 L70.5616 0 L64.9853 0 L64.9853 0.181655 L64.5444 0.181655 L64.5444 0 L17.1865 0 L17.1865 0.181655 L16.7476 0.181655 L16.7476 0 L0 0 L0 1.56714 L81.2193 1.56714 L81.2193 0 L71.0005 0 L71.0005 0.181655 L70.5616 0.181655 Z" transform="translate(101.581, 138.608)"/>
    <path style="fill:url(#Grad17); fill-rule:nonzero;stroke:none;" d="M0.888636 3.98364 C0.575404 4.32142 0.249407 4.67589 0 4.99305 L0 32.2334 L3.66648 32.2334 L3.66648 0 C2.94674 1.72916 1.82735 2.98208 0.888636 3.98364 Z" transform="translate(127.489, 106.2)"/>
    <path style="fill:url(#Grad18); fill-rule:nonzero;stroke:none;" d="M0 3.25113 L0 34.4565 C0.0147288 34.483 0.035349 34.5007 0.0500778 34.5272 C1.20776 34.1207 2.42436 33.7809 3.66746 33.5129 L3.66746 0.74724 L13.4582 7.8033 L13.7154 7.44687 L3.66845 0.204239 L3.66845 0 L0 3.25113 Z" transform="translate(127.489, 54.0051)"/>
    <path style="fill:url(#Grad19); fill-rule:nonzero;stroke:none;" d="M0.438917 24.6844 L5.97595 24.6844 L5.97006 8.21865 C3.94633 8.19607 3.60953 6.30588 3.36798 4.92334 C3.23444 4.16726 3.03805 3.04395 2.69144 1.4012 C2.66885 1.27944 2.64332 1.23133 2.64332 1.23133 C2.64332 1.25784 2.29572 1.11939 2.05024 1.02119 C1.50135 0.800263 0.78848 0.509615 0 0 L0 24.8582 L0.438917 24.8582 L0.438917 24.6844 L0.438917 24.6844 Z" transform="translate(118.328, 113.75)"/>
    <path style="fill:url(#Grad20); fill-rule:evenodd;stroke:none;" d="M0 0 L0.438917 0 L0.438917 0.181655 L0 0.181655 L0 0 Z" transform="translate(118.328, 138.608)"/>
    <path style="fill:url(#Grad21); fill-rule:evenodd;stroke:none;" d="M0 0 L0.438917 0 L0.438917 0.181655 L0 0.181655 L0 0 Z" transform="translate(118.328, 138.608)"/>
    <path style="fill:url(#Grad22); fill-rule:nonzero;stroke:none;" d="M3.8285 0.238606 C2.21913 1.24409 1.00352 2.25154 0 3.23051 L0 44.8314 L4.2085 44.8314 L4.2085 0 L3.8285 0.238606 Z" transform="translate(141.247, 93.6019)"/>
    <path style="fill:url(#Grad23); fill-rule:nonzero;stroke:none;" d="M3.6164 51.6283 C3.61837 51.7215 3.6223 51.8129 3.6223 51.9052 C3.76173 51.8227 3.90411 51.7461 4.0455 51.6725 C4.68178 51.3425 5.33181 51.2011 5.95435 51.1835 L5.94846 23.4678 L8.87752 25.5819 L9.12987 25.2255 L5.94846 22.9229 L5.94846 22.7304 L0.440881 27.6498 L0.440881 23.8145 L13.415 12.2877 L22.642 18.9451 L22.9052 18.5867 L13.4729 11.7869 L13.3924 11.8959 L13.3443 11.8449 L13.6094 11.6082 L17.5773 14.5501 L17.5773 0.746258 L29.27 9.17995 L22.9209 14.8171 L22.9209 52.2606 C24.4242 52.8164 25.7979 53.6225 27.0253 54.683 L27.1294 54.7714 L27.1294 15.2187 L32.634 10.7471 L32.634 102.812 L40.6917 102.812 L40.6917 17.7148 L47.7978 22.8424 L47.7978 102.987 L48.2387 102.987 L48.2387 102.812 L50.2801 102.812 L50.2801 28.8694 L53.815 31.4096 L53.815 102.986 L54.2539 102.986 L54.2539 31.2957 L54.031 31.2957 L54.1636 31.1189 L50.2801 28.3224 L50.2801 28.128 L48.2387 29.973 L48.2387 22.7304 L48.0168 22.7304 L48.1454 22.5517 L42.2667 18.3118 L42.2667 8.23731 L42.0477 8.23731 L42.1803 8.05958 L35.7683 3.43377 L35.7683 3.41118 L35.7507 3.42395 L35.734 3.41315 L35.6829 3.48188 L29.6068 8.88243 L17.5753 0.203257 L17.5753 0 L11.3205 5.55078 L11.3205 13.5593 L0.0785534 23.5493 L0.222895 23.7133 L0 23.7133 L0 48.5735 C0.134523 48.5578 0.257263 48.5225 0.394731 48.5225 C2.20244 48.5225 3.55749 49.8284 3.6164 51.6283 Z M35.7683 3.97677 L41.8277 8.34925 L41.8277 17.9936 L40.6917 17.1737 L40.6917 17.0569 L35.7683 21.4382 L35.7683 3.97677 L35.7683 3.97677 Z" transform="translate(118.327, 35.6226)"/>
    <path style="fill:url(#Grad24); fill-rule:evenodd;stroke:none;" d="M0 0 L0.438917 0 L0.438917 0.181655 L0 0.181655 L0 0 Z" transform="translate(172.142, 138.608)"/>
    <path style="fill:url(#Grad25); fill-rule:evenodd;stroke:none;" d="M0 0 L0.438917 0 L0.438917 0.181655 L0 0.181655 L0 0 Z" transform="translate(172.142, 138.608)"/>
    <path style="fill:url(#Grad26); fill-rule:evenodd;stroke:none;" d="M0 0 L0.440881 0 L0.440881 0.181655 L0 0.181655 L0 0 Z" transform="translate(166.125, 138.608)"/>
    <path style="fill:url(#Grad27); fill-rule:evenodd;stroke:none;" d="M0 0 L0.440881 0 L0.440881 0.181655 L0 0.181655 L0 0 Z" transform="translate(166.125, 138.608)"/>
    <path style="fill:url(#Grad28); fill-rule:nonzero;stroke:none;" d="M11.4875 29.1247 C14.8839 28.237 16.4422 23.7801 18.4453 22.7501 C20.1028 23.0839 14.0954 28.9293 16.3853 30.2657 C17.7374 31.4999 21.4706 21.561 21.556 23.3638 C21.6405 25.1636 19.9447 31.5147 21.1093 33.4363 C24.1719 38.5638 26.988 36.4802 27.5939 39.3474 C28.508 43.6875 28.3961 44.4642 28.7781 44.418 C29.4674 44.3365 28.508 39.3494 29.4212 35.8626 C29.9298 33.9115 32.7293 32.5614 33.7308 29.5587 C34.0843 28.5453 33.7731 26.5462 33.6209 25.8146 C40.9754 27.3494 40.0613 21.7819 48.3261 16.6219 C39.1373 8.65757 23.2548 20.1912 22.642 20.1087 C22.1501 20.04 23.3245 18.7625 23.7094 17.9367 C23.7742 17.7953 26.5638 14.7062 27.5133 14.7062 C28.4501 14.7062 28.3274 15.4917 29.0255 15.4348 C29.7187 15.3709 30.0349 14.986 30.0673 14.3988 C29.9986 13.9167 29.1836 13.1881 27.805 13.8971 C26.0513 14.8093 23.8203 16.9941 23.6632 16.9027 C23.4865 16.7928 24.2278 13.6555 24.1581 11.9715 C24.1159 10.6401 22.4928 10.9091 22.0981 11.3952 C21.8791 11.6613 21.4795 12.0619 21.6837 12.3692 C22.1531 13.4228 23.5906 11.9755 23.7408 12.5843 C24.0786 13.9658 22.6921 17.0196 22.7442 17.0127 C22.7952 17.0127 21.778 18.5671 20.9689 18.5406 C19.9693 18.516 23.4413 3.59284 11.2803 0 C11.2803 0 12.2376 2.50684 9.06212 9.02481 C8.3954 11.4089 6.88128 12.1669 9.67975 16.3421 C7.35162 16.6229 5.81099 19.6099 5.10303 22.2404 C3.55749 28.0662 1.79495 26.8123 0 30.0496 C3.03805 28.8743 8.09886 29.9996 11.4875 29.1247 Z" transform="translate(95.5853, 75.352)"/>
   </g>
  </g>
 </g>
</svg>
