<?xml version="1.0" encoding="UTF-8"?>
<svg width="200pt" version="1.1" xmlns="http://www.w3.org/2000/svg" height="200pt" viewBox="0 0 200 200" xmlns:xlink="http://www.w3.org/1999/xlink">
 <defs>
  <clipPath id="Clip0">
   <path d="M0 0 L199 0 L199 96.5161 L0 96.5161 L0 0 Z" transform="translate(0.515378, 53.625)"/>
  </clipPath>
  <clipPath id="Clip1">
   <path d="M0 0 L141.531 0 L141.531 62.9366 L0 62.9366 L0 0 Z" transform="translate(29.8717, 68.3814)"/>
  </clipPath>
 </defs>
 <g id="Background">
  <g id="Olympus" clip-path="url(#Clip0)">
   <path style="fill:#231f20; fill-rule:nonzero; fill-opacity:0.23;stroke:none;" d="M196.984 9.07368 C196.984 34.8468 152.737 55.7935 98.0571 55.7935 C47.9176 55.7935 6.47274 38.2253 0 15.348 C8.88794 36.7774 48.9803 52.9942 97.091 52.9942 C151.675 52.9942 196.018 32.0475 196.018 6.27435 C196.018 4.15073 195.728 2.12363 195.148 0 C196.404 2.99238 196.984 5.98477 196.984 9.07368 Z" transform="translate(2.53168, 94.3476)"/>
   <path style="fill:#f3e8d0; fill-rule:evenodd;stroke:#603712; stroke-width:0.361358; stroke-linecap:butt; stroke-linejoin:miter; stroke-dasharray:none;" d="M197.853 46.7198 C197.853 72.5234 153.564 93.4396 98.9266 93.4396 C44.2909 93.4396 0 72.5234 0 46.7198 C0 20.9172 44.2909 0 98.9266 0 C153.564 0 197.853 20.9172 197.853 46.7198 Z" transform="translate(0.696131, 53.8056)"/>
   <g id="Group1" clip-path="url(#Clip1)">
    <path style="fill:#94561b; fill-rule:nonzero;stroke:none;" d="M3.76771 3.3785 L3.76771 3.3785 C3.6711 3.47503 3.5745 3.57156 3.38128 3.66808 C3.28467 3.76461 3.18806 3.76461 2.99485 3.76461 C2.89824 3.76461 2.80163 3.76461 2.60842 3.86114 C2.51181 3.86114 2.31859 3.86114 2.22198 3.86114 C1.93216 3.86114 1.64234 3.86114 1.35251 3.76461 C1.06269 3.66808 0.869472 3.57156 0.676256 3.3785 C0.48304 3.18544 0.289824 2.99238 0.193216 2.79933 C0.096608 2.50974 0 2.22016 0 1.93057 C0 1.64098 0.096608 1.3514 0.193216 1.06181 C0.289824 0.772228 0.48304 0.579171 0.676256 0.482643 C0.869472 0.289586 1.06269 0.193057 1.35251 0.0965285 C1.64234 0 1.93216 0 2.22198 0 C2.31859 0 2.51181 0 2.60842 0 C2.70502 0 2.80163 0 2.99485 0.0965285 C3.09146 0.0965285 3.18806 0.193057 3.28467 0.193057 C3.38128 0.193057 3.47789 0.289586 3.5745 0.386114 L3.5745 0.386114 L3.5745 0.482643 C3.5745 0.579171 3.5745 0.579171 3.5745 0.6757 C3.5745 0.772228 3.5745 0.772228 3.5745 0.868757 L3.5745 0.965285 L3.5745 0.965285 L3.47789 0.965285 C3.38128 0.772228 3.18806 0.6757 2.99485 0.482643 C2.80163 0.386114 2.60842 0.289586 2.31859 0.289586 C2.12538 0.289586 1.83555 0.289586 1.64234 0.386114 C1.44912 0.482643 1.2559 0.579171 1.06269 0.6757 C0.869472 0.772228 0.772864 0.965285 0.676256 1.25487 C0.579648 1.44793 0.48304 1.73751 0.48304 2.0271 C0.48304 2.22016 0.48304 2.50974 0.579648 2.7028 C0.676256 2.89586 0.772864 3.08891 0.96608 3.28197 C1.06269 3.3785 1.2559 3.57156 1.35251 3.57156 C1.54573 3.66808 1.64234 3.66808 1.83555 3.76461 C2.02877 3.76461 2.22198 3.76461 2.31859 3.76461 C2.51181 3.76461 2.70502 3.66808 2.80163 3.57156 C2.89824 3.47503 2.99485 3.47503 3.09146 3.3785 C3.18806 3.28197 3.28467 3.18544 3.38128 3.08891 L3.38128 3.08891 C3.38128 3.18544 3.38128 3.28197 3.38128 3.3785 C3.76771 3.18544 3.76771 3.28197 3.76771 3.3785 Z" transform="translate(128.025, 103.421)"/>
    <path style="fill:#94561b; fill-rule:nonzero;stroke:none;" d="M1.06269 3.66808 L1.06269 3.66808 C0.676256 3.66808 0.289824 3.66808 0 3.76461 L0 3.76461 C0.096608 3.76461 0.193216 3.66808 0.193216 3.66808 C0.289824 3.57156 0.289824 3.47503 0.289824 3.47503 L0.289824 0.386114 C0.289824 0.289586 0.289824 0.193057 0.193216 0.193057 C0.096608 0.0965285 0.096608 0.0965285 0 0.0965285 L0 0 L0 0 C0.193216 0 0.386432 0 0.579648 0 C0.772864 0 0.96608 0 1.1593 0 L1.1593 0 C1.06269 0 0.96608 0.0965285 0.96608 0.0965285 C0.869472 0.193057 0.869472 0.289586 0.869472 0.289586 L0.869472 3.3785 C0.869472 3.47503 0.869472 3.57156 0.96608 3.57156 C0.96608 3.57156 0.96608 3.57156 1.06269 3.66808 Z" transform="translate(132.759, 103.518)"/>
    <path style="fill:#94561b; fill-rule:nonzero;stroke:none;" d="M3.38128 0.0965285 C3.38128 0.193057 3.38128 0.289586 3.38128 0.386114 C3.38128 0.482643 3.38128 0.579171 3.38128 0.6757 L3.38128 0.6757 L3.38128 0.579171 L3.38128 0.482643 L3.38128 0.386114 C3.38128 0.386114 3.38128 0.386114 3.28467 0.386114 C3.09146 0.386114 2.89824 0.386114 2.80163 0.386114 C2.60842 0.386114 2.4152 0.386114 2.31859 0.386114 C2.31859 0.772228 2.31859 1.15834 2.31859 1.44793 C2.31859 1.83404 2.31859 2.22016 2.31859 2.50974 L2.31859 2.99238 C2.31859 3.18544 2.31859 3.3785 2.31859 3.47503 C2.31859 3.57156 2.31859 3.66808 2.4152 3.76461 C2.51181 3.86114 2.51181 3.86114 2.60842 3.86114 L2.60842 3.86114 L1.64234 3.86114 C1.54573 3.86114 1.54573 3.86114 1.44912 3.86114 L1.44912 3.86114 C1.54573 3.86114 1.64234 3.86114 1.64234 3.76461 C1.73894 3.66808 1.73894 3.57156 1.73894 3.57156 L1.73894 1.93057 C1.73894 1.3514 1.73894 0.868757 1.73894 0.289586 C1.35251 0.289586 1.06269 0.289586 0.676256 0.289586 C0.579648 0.289586 0.48304 0.289586 0.386432 0.289586 C0.289824 0.289586 0.193216 0.386114 0.096608 0.482643 L0.096608 0.482643 L0 0.482643 L0 0.386114 C0.096608 0.289586 0.096608 0.289586 0.193216 0.193057 C0.289824 0.0965285 0.289824 0.0965285 0.386432 0 L0.386432 0 C1.06269 0 1.73894 0 2.51181 0 C2.70502 0 2.89824 0 2.99485 0 C2.99485 0.0965285 3.18806 0 3.38128 0.0965285 C3.38128 0 3.38128 0 3.38128 0.0965285 L3.38128 0.0965285 Z" transform="translate(135.078, 103.228)"/>
    <path style="fill:#94561b; fill-rule:nonzero;stroke:none;" d="M3.86432 0 L3.86432 0 C3.76771 0.0965285 3.6711 0.0965285 3.5745 0.193057 C3.47789 0.193057 3.38128 0.289586 3.38128 0.386114 C3.18806 0.6757 2.99485 0.965285 2.80163 1.25487 C2.60842 1.54446 2.4152 1.83404 2.22198 2.12363 C2.22198 2.41321 2.22198 2.60627 2.22198 2.89586 C2.22198 3.18544 2.22198 3.3785 2.22198 3.66808 C2.22198 3.76461 2.22198 3.86114 2.31859 3.86114 C2.4152 3.95767 2.4152 3.95767 2.51181 3.95767 L2.51181 3.95767 L2.51181 4.0542 L2.51181 4.0542 C2.4152 4.0542 2.22198 4.0542 2.12538 4.0542 C2.02877 4.0542 1.83555 4.0542 1.73894 4.0542 C1.64234 4.0542 1.64234 4.0542 1.54573 4.0542 C1.44912 4.0542 1.44912 4.0542 1.35251 4.0542 L1.35251 4.0542 C1.44912 4.0542 1.54573 4.0542 1.54573 3.95767 C1.64234 3.86114 1.64234 3.76461 1.64234 3.76461 L1.64234 2.31668 C1.44912 2.0271 1.2559 1.73751 1.06269 1.44793 C0.869472 1.15834 0.676256 0.868757 0.48304 0.579171 C0.386432 0.482643 0.289824 0.386114 0.289824 0.386114 C0.193216 0.386114 0.096608 0.289586 0 0.289586 L0 0.289586 C0.096608 0.289586 0.289824 0.289586 0.386432 0.289586 L0.772864 0.289586 C0.772864 0.289586 0.869472 0.289586 0.96608 0.289586 C1.06269 0.289586 1.06269 0.289586 1.1593 0.289586 L1.1593 0.289586 L1.06269 0.289586 L1.06269 0.386114 C1.06269 0.386114 1.06269 0.386114 1.06269 0.482643 C1.06269 0.482643 1.06269 0.482643 1.06269 0.579171 C1.06269 0.6757 1.1593 0.772228 1.2559 0.772228 C1.35251 0.868757 1.35251 0.965285 1.44912 0.965285 C1.54573 1.15834 1.64234 1.25487 1.73894 1.44793 C1.83555 1.64098 1.93216 1.73751 2.02877 1.93057 C2.22198 1.64098 2.4152 1.44793 2.51181 1.15834 C2.70502 0.868757 2.89824 0.6757 2.99485 0.386114 L2.99485 0.289586 L2.99485 0.193057 L2.99485 0.193057 L2.99485 0.0965285 L2.99485 0.0965285 C3.18806 0.0965285 3.28467 0.0965285 3.47789 0.0965285 C3.5745 0 3.76771 0 3.86432 0 Z" transform="translate(138.942, 103.325)"/>
    <path style="fill:#94561b; fill-rule:nonzero;stroke:none;" d="M3.96093 2.22016 L3.96093 2.22016 C3.86432 2.31668 3.76771 2.31668 3.76771 2.41321 C3.6711 2.50974 3.6711 2.60627 3.6711 2.60627 C3.6711 2.79933 3.6711 2.89586 3.6711 3.08891 C3.6711 3.28197 3.6711 3.3785 3.6711 3.57156 L3.5745 3.66808 C3.47789 3.66808 3.47789 3.76461 3.38128 3.76461 C3.28467 3.76461 3.28467 3.86114 3.18806 3.86114 C3.09146 3.86114 3.09146 3.86114 2.99485 3.95767 C2.89824 3.95767 2.70502 4.0542 2.60842 4.0542 C2.51181 4.0542 2.31859 4.0542 2.22198 4.0542 C1.93216 4.0542 1.64234 4.0542 1.35251 3.95767 C1.06269 3.86114 0.869472 3.76461 0.676256 3.57156 C0.48304 3.3785 0.289824 3.18544 0.193216 2.89586 C0.096608 2.60627 0 2.31668 0 2.0271 C0 1.73751 0.096608 1.44793 0.193216 1.15834 C0.289824 0.868757 0.48304 0.6757 0.676256 0.482643 C0.869472 0.289586 1.06269 0.193057 1.35251 0.0965285 C1.64234 0 1.93216 0 2.22198 0 C2.31859 0 2.51181 0 2.60842 0 C2.70502 0 2.89824 0 2.99485 0.0965285 C2.99485 0.0965285 3.09146 0.0965285 3.18806 0.0965285 C3.28467 0.0965285 3.28467 0.0965285 3.38128 0.193057 C3.47789 0.193057 3.47789 0.289586 3.5745 0.289586 C3.6711 0.289586 3.6711 0.386114 3.6711 0.386114 L3.6711 0.386114 L3.6711 0.482643 C3.6711 0.482643 3.6711 0.579171 3.6711 0.6757 L3.6711 0.772228 L3.6711 0.868757 L3.6711 0.868757 L3.5745 0.868757 C3.47789 0.6757 3.28467 0.482643 3.09146 0.386114 C2.89824 0.289586 2.70502 0.193057 2.4152 0.193057 C2.22198 0.193057 1.93216 0.193057 1.73894 0.289586 C1.54573 0.386114 1.35251 0.482643 1.1593 0.579171 C0.96608 0.6757 0.869472 0.868757 0.772864 1.15834 C0.676256 1.3514 0.579648 1.64098 0.579648 1.93057 C0.579648 2.12363 0.579648 2.41321 0.676256 2.60627 C0.772864 2.79933 0.869472 2.99238 1.06269 3.18544 L1.06269 3.18544 C1.1593 3.28197 1.35251 3.47503 1.54573 3.57156 C1.73894 3.66808 1.93216 3.66808 2.12538 3.76461 C2.31859 3.76461 2.51181 3.76461 2.70502 3.76461 C2.89824 3.66808 3.09146 3.66808 3.18806 3.47503 C3.18806 3.3785 3.18806 3.18544 3.18806 3.08891 C3.18806 2.99238 3.18806 2.79933 3.18806 2.7028 C3.18806 2.60627 3.18806 2.50974 3.09146 2.50974 C2.99485 2.41321 2.99485 2.41321 2.89824 2.41321 L2.89824 2.41321 L2.89824 2.31668 L2.89824 2.31668 C3.09146 2.31668 3.28467 2.31668 3.47789 2.31668 C3.6711 2.22016 3.76771 2.22016 3.96093 2.22016 Z" transform="translate(145.801, 103.132)"/>
    <path style="fill:#94561b; fill-rule:nonzero;stroke:none;" d="M3.96093 3.86114 C3.86432 3.86114 3.76771 3.86114 3.6711 3.76461 C3.5745 3.66808 3.47789 3.57156 3.47789 3.47503 C3.28467 3.08891 3.09146 2.60627 2.99485 2.22016 C2.80163 1.83404 2.70502 1.3514 2.51181 0.965285 L2.22198 0.193057 L2.12538 0 C2.12538 0 2.12538 0 2.02877 0 C2.02877 0 2.02877 0 1.93216 0 C1.93216 0 1.93216 0.0965285 1.83555 0.193057 C1.83555 0.289586 1.83555 0.289586 1.73894 0.386114 L1.44912 1.15834 C1.2559 1.54446 1.1593 1.93057 0.96608 2.31668 C0.772864 2.7028 0.676256 3.08891 0.48304 3.47503 L0.48304 3.47503 C0.48304 3.57156 0.386432 3.66808 0.289824 3.76461 C0.193216 3.86114 0.096608 3.86114 0 3.86114 L0 3.86114 L0 3.95767 C0.193216 3.95767 0.289824 3.95767 0.48304 3.95767 C0.579648 3.95767 0.772864 3.95767 0.96608 3.95767 L0.96608 3.95767 L0.96608 3.86114 L0.869472 3.86114 C0.869472 3.86114 0.869472 3.86114 0.772864 3.76461 L0.772864 3.66808 C0.772864 3.57156 0.869472 3.47503 0.869472 3.3785 C0.869472 3.28197 0.96608 3.18544 0.96608 3.08891 C0.96608 2.99238 1.06269 2.89586 1.06269 2.79933 C1.06269 2.7028 1.1593 2.60627 1.1593 2.50974 C1.1593 2.41321 1.2559 2.41321 1.2559 2.31668 L2.31859 2.31668 C2.31859 2.31668 2.31859 2.41321 2.4152 2.50974 C2.4152 2.60627 2.51181 2.7028 2.51181 2.79933 C2.51181 2.89586 2.60842 2.99238 2.60842 3.08891 C2.60842 3.18544 2.70502 3.28197 2.70502 3.3785 C2.70502 3.47503 2.80163 3.57156 2.80163 3.66808 C2.80163 3.76461 2.80163 3.76461 2.80163 3.76461 L2.80163 3.86114 C2.80163 3.86114 2.80163 3.86114 2.70502 3.86114 L2.70502 3.86114 C2.80163 3.86114 2.80163 3.86114 2.89824 3.86114 C2.99485 3.86114 2.99485 3.86114 3.09146 3.86114 C3.18806 3.86114 3.38128 3.86114 3.47789 3.86114 C3.76771 3.86114 3.86432 3.95767 3.96093 3.86114 L3.96093 3.86114 Z M1.93216 1.93057 C1.83555 1.93057 1.64234 1.93057 1.54573 1.93057 C1.64234 1.73751 1.73894 1.54446 1.73894 1.3514 C1.83555 1.15834 1.83555 0.965285 1.93216 0.772228 L2.31859 1.83404 L1.93216 1.83404 L1.93216 1.93057 Z" transform="translate(150.342, 103.325)"/>
    <path style="fill:#94561b; fill-rule:nonzero;stroke:none;" d="M3.76771 4.34378 L3.76771 4.34378 C3.6711 4.44031 3.47789 4.34378 3.38128 4.34378 C3.28467 4.34378 3.18806 4.24725 3.09146 4.24725 C3.09146 4.24725 2.99485 4.24725 2.99485 4.15073 L2.89824 4.0542 L2.80163 3.95767 L2.70502 3.86114 C2.4152 3.57156 2.22198 3.3785 1.93216 3.08891 C1.64234 2.79933 1.44912 2.60627 1.1593 2.31668 L1.1593 2.22016 L1.1593 2.22016 C1.2559 2.22016 1.44912 2.22016 1.54573 2.12363 C1.64234 2.12363 1.73894 2.0271 1.83555 1.93057 C1.93216 1.83404 1.93216 1.73751 2.02877 1.64098 C2.02877 1.54446 2.12538 1.44793 2.12538 1.3514 C2.12538 1.25487 2.12538 1.15834 2.12538 1.06181 C2.12538 0.965285 2.02877 0.868757 1.93216 0.772228 C1.83555 0.6757 1.83555 0.6757 1.73894 0.579171 C1.64234 0.579171 1.54573 0.482643 1.44912 0.482643 C1.35251 0.482643 1.2559 0.482643 1.1593 0.482643 C1.06269 0.482643 0.96608 0.482643 0.869472 0.482643 C0.869472 0.868757 0.869472 1.25487 0.869472 1.54446 C0.869472 1.93057 0.869472 2.31668 0.869472 2.60627 C0.869472 2.79933 0.869472 2.99238 0.869472 3.08891 C0.869472 3.28197 0.869472 3.47503 0.869472 3.57156 C0.869472 3.66808 0.869472 3.76461 0.96608 3.76461 C1.06269 3.86114 1.06269 3.86114 1.1593 3.86114 L1.1593 3.86114 C0.96608 3.86114 0.772864 3.86114 0.579648 3.86114 C0.386432 3.86114 0.193216 3.86114 0 3.86114 L0 3.86114 L0.096608 3.86114 C0.193216 3.86114 0.289824 3.86114 0.289824 3.76461 C0.386432 3.66808 0.386432 3.57156 0.386432 3.47503 C0.386432 3.18544 0.386432 2.89586 0.386432 2.7028 C0.386432 2.41321 0.386432 2.12363 0.386432 1.93057 C0.386432 1.64098 0.386432 1.44793 0.386432 1.15834 C0.386432 0.868757 0.386432 0.6757 0.386432 0.386114 C0.386432 0.289586 0.386432 0.193057 0.289824 0.0965285 C0.193216 0 0.193216 0 0.096608 0 L0.096608 0 C0.386432 0 0.579648 0 0.869472 0 C1.1593 0 1.35251 0 1.64234 0 C1.73894 0 1.93216 0 2.02877 0.0965285 C2.12538 0.193057 2.22198 0.193057 2.31859 0.289586 C2.4152 0.386114 2.51181 0.482643 2.51181 0.579171 C2.60842 0.6757 2.60842 0.868757 2.60842 0.965285 C2.60842 1.06181 2.60842 1.15834 2.51181 1.3514 C2.51181 1.44793 2.4152 1.54446 2.31859 1.64098 C2.22198 1.73751 2.22198 1.73751 2.12538 1.83404 C2.02877 1.93057 1.93216 1.93057 1.83555 1.93057 C2.02877 2.12363 2.22198 2.31668 2.31859 2.50974 C2.4152 2.7028 2.60842 2.79933 2.70502 2.89586 C2.80163 2.99238 2.89824 3.08891 2.99485 3.18544 C3.09146 3.28197 3.18806 3.3785 3.28467 3.47503 C3.38128 3.57156 3.47789 3.66808 3.5745 3.66808 C3.6711 3.66808 3.5745 4.24725 3.76771 4.34378 Z" transform="translate(155.462, 102.939)"/>
    <path style="fill:#94561b; fill-rule:nonzero;stroke:none;" d="M3.76771 1.06181 C3.6711 0.772228 3.47789 0.579171 3.28467 0.482643 C3.09146 0.289586 2.89824 0.193057 2.60842 0.0965285 C2.31859 0 2.02877 0 1.73894 0 C1.44912 0 1.1593 0 0.869472 0 C0.579648 0 0.289824 0 0 0 L0 0 C0.096608 0 0.193216 0.0965285 0.289824 0.0965285 C0.386432 0.0965285 0.386432 0.193057 0.386432 0.289586 C0.386432 0.386114 0.386432 0.579171 0.386432 0.6757 C0.386432 0.772228 0.386432 0.965285 0.386432 1.06181 L0.386432 1.44793 C0.386432 1.54446 0.386432 1.73751 0.386432 1.83404 L0.386432 2.60627 C0.386432 2.89586 0.386432 3.08891 0.386432 3.3785 C0.386432 3.47503 0.386432 3.57156 0.289824 3.66808 C0.193216 3.76461 0.193216 3.76461 0.096608 3.76461 L0.096608 3.76461 C0.386432 3.76461 0.676256 3.76461 0.96608 3.76461 C1.2559 3.76461 1.54573 3.76461 1.83555 3.76461 C2.12538 3.76461 2.4152 3.76461 2.60842 3.66808 C2.89824 3.57156 3.09146 3.47503 3.28467 3.28197 C3.47789 3.08891 3.6711 2.89586 3.76771 2.60627 C3.86432 2.31668 3.96093 2.12363 3.96093 1.83404 C3.96093 1.54446 3.86432 1.25487 3.76771 1.06181 Z M3.38128 2.60627 C3.28467 2.79933 3.18806 2.99238 2.99485 3.18544 C2.80163 3.3785 2.70502 3.47503 2.51181 3.57156 C2.31859 3.66808 2.12538 3.66808 1.93216 3.66808 L1.35251 3.66808 C1.2559 3.66808 1.1593 3.66808 1.1593 3.57156 C1.06269 3.47503 1.06269 3.3785 1.06269 3.3785 C1.06269 3.3785 1.06269 3.28197 1.06269 3.18544 C1.06269 3.08891 1.06269 3.08891 1.06269 2.99238 C1.06269 2.89586 1.06269 2.79933 1.06269 2.60627 C1.06269 2.50974 1.06269 2.41321 1.06269 2.22016 C1.06269 1.54446 1.06269 0.868757 1.06269 0.193057 C1.2559 0.193057 1.44912 0.193057 1.64234 0.193057 C1.83555 0.193057 2.02877 0.193057 2.22198 0.193057 C2.4152 0.193057 2.60842 0.289586 2.70502 0.289586 C2.80163 0.289586 2.99485 0.482643 3.18806 0.579171 C3.38128 0.772228 3.47789 0.965285 3.5745 1.15834 C3.6711 1.3514 3.6711 1.54446 3.6711 1.83404 C3.47789 2.12363 3.38128 2.31668 3.38128 2.60627 " transform="translate(159.713, 103.325)"/>
    <path style="fill:#94561b; fill-rule:nonzero;stroke:none;" d="M2.51181 3.3785 L2.51181 3.47503 C2.51181 3.57156 2.51181 3.57156 2.51181 3.66808 C2.51181 3.76461 2.51181 3.76461 2.51181 3.86114 C2.51181 3.95767 2.51181 3.95767 2.51181 3.95767 L2.51181 3.95767 C2.12538 3.95767 1.64234 3.95767 1.2559 3.95767 C0.869472 3.95767 0.386432 3.95767 0 3.95767 L0 3.95767 C0.096608 3.95767 0.193216 3.95767 0.193216 3.86114 C0.289824 3.76461 0.289824 3.66808 0.289824 3.57156 C0.289824 3.28197 0.289824 2.99238 0.289824 2.79933 C0.289824 2.50974 0.289824 2.22016 0.289824 2.0271 L0.289824 1.15834 C0.289824 0.868757 0.289824 0.6757 0.289824 0.386114 C0.289824 0.289586 0.289824 0.193057 0.193216 0.0965285 C0.096608 0 0.096608 0 0 0 L0 0 C0.289824 0 0.48304 0 0.772864 0 C1.06269 0 1.2559 0 1.54573 0 C1.64234 0 1.83555 0 1.93216 0 C2.02877 0 2.22198 0 2.31859 0 L2.31859 0 L2.31859 0.0965285 C2.31859 0.0965285 2.31859 0.193057 2.31859 0.289586 C2.31859 0.386114 2.31859 0.386114 2.31859 0.482643 L2.31859 0.579171 C2.31859 0.579171 2.31859 0.579171 2.22198 0.579171 C2.22198 0.579171 2.22198 0.579171 2.12538 0.579171 C2.12538 0.579171 2.12538 0.579171 2.12538 0.482643 L2.12538 0.386114 L2.12538 0.289586 C2.12538 0.289586 2.12538 0.289586 2.02877 0.289586 C1.93216 0.289586 1.93216 0.289586 1.83555 0.289586 C1.73894 0.289586 1.73894 0.289586 1.64234 0.289586 C1.35251 0.289586 1.06269 0.289586 0.772864 0.289586 C0.772864 0.579171 0.772864 0.772228 0.772864 1.06181 C0.772864 1.3514 0.772864 1.54446 0.772864 1.83404 L1.44912 1.83404 C1.54573 1.83404 1.54573 1.83404 1.64234 1.73751 C1.73894 1.73751 1.73894 1.64098 1.73894 1.54446 L1.73894 1.54446 L1.83555 1.54446 L1.83555 1.54446 L1.83555 2.31668 L1.83555 2.31668 L1.73894 2.31668 C1.73894 2.22016 1.64234 2.22016 1.64234 2.12363 C1.54573 2.12363 1.54573 2.0271 1.44912 2.0271 L0.772864 2.0271 C0.772864 2.31668 0.772864 2.60627 0.772864 2.79933 C0.772864 3.08891 0.772864 3.3785 0.772864 3.57156 C0.96608 3.57156 1.2559 3.57156 1.44912 3.57156 C1.64234 3.57156 1.93216 3.57156 2.12538 3.57156 C2.22198 3.57156 2.31859 3.57156 2.4152 3.47503 C2.51181 3.3785 2.60842 3.3785 2.60842 3.18544 L2.51181 3.3785 L2.51181 3.3785 Z" transform="translate(164.253, 103.228)"/>
    <path style="fill:#94561b; fill-rule:nonzero;stroke:none;" d="M3.86432 0.193057 L3.86432 0.193057 C3.76771 0.289586 3.6711 0.289586 3.5745 0.386114 C3.47789 0.482643 3.47789 0.579171 3.47789 0.6757 C3.47789 0.772228 3.47789 0.965285 3.47789 1.06181 C3.47789 1.15834 3.47789 1.3514 3.47789 1.44793 C3.47789 1.73751 3.47789 2.0271 3.47789 2.41321 C3.47789 2.7028 3.47789 2.99238 3.47789 3.3785 C3.47789 3.47503 3.47789 3.57156 3.47789 3.76461 C3.47789 3.86114 3.47789 3.95767 3.47789 4.15073 L3.47789 4.24725 L3.47789 4.34378 L3.47789 4.34378 C3.47789 4.34378 3.47789 4.34378 3.38128 4.34378 L3.28467 4.24725 C3.28467 4.15073 3.18806 4.15073 3.18806 4.0542 C3.09146 3.95767 2.99485 3.86114 2.89824 3.66808 C2.80163 3.57156 2.70502 3.47503 2.60842 3.28197 C2.31859 2.89586 2.02877 2.60627 1.64234 2.22016 C1.35251 1.83404 1.06269 1.44793 0.676256 1.15834 C0.676256 1.44793 0.676256 1.73751 0.676256 2.0271 C0.676256 2.31668 0.676256 2.60627 0.676256 2.89586 C0.676256 2.99238 0.676256 3.18544 0.676256 3.28197 C0.676256 3.47503 0.676256 3.57156 0.676256 3.66808 C0.676256 3.76461 0.676256 3.86114 0.772864 3.86114 C0.869472 3.86114 0.869472 3.95767 0.96608 3.95767 L0.96608 3.95767 L0.96608 4.0542 L0.96608 4.0542 C0.772864 4.0542 0.676256 4.0542 0.48304 4.0542 C0.289824 4.0542 0.193216 4.0542 0 4.0542 L0 4.0542 C0.096608 4.0542 0.193216 4.0542 0.193216 3.95767 C0.289824 3.86114 0.289824 3.76461 0.289824 3.66808 C0.289824 3.57156 0.289824 3.3785 0.289824 3.28197 C0.289824 3.18544 0.289824 2.99238 0.289824 2.89586 C0.289824 2.60627 0.289824 2.31668 0.289824 1.93057 C0.289824 1.64098 0.289824 1.25487 0.289824 0.965285 C0.289824 0.868757 0.289824 0.772228 0.289824 0.579171 C0.289824 0.482643 0.289824 0.386114 0.289824 0.193057 L0.289824 0.0965285 L0.289824 0 L0.289824 0 C0.289824 0 0.289824 0 0.386432 0 L0.48304 0.0965285 C0.48304 0.193057 0.579648 0.193057 0.579648 0.289586 C0.676256 0.386114 0.772864 0.482643 0.869472 0.6757 C0.96608 0.772228 1.06269 0.868757 1.1593 1.06181 C1.44912 1.44793 1.73894 1.73751 2.12538 2.12363 C2.4152 2.50974 2.70502 2.79933 3.09146 3.18544 C3.09146 2.89586 3.09146 2.60627 3.09146 2.31668 C3.09146 2.0271 3.09146 1.73751 3.09146 1.44793 C3.09146 1.3514 3.09146 1.15834 3.09146 1.06181 C3.09146 0.965285 3.09146 0.772228 3.09146 0.6757 L3.09146 0.579171 C3.09146 0.579171 3.09146 0.482643 2.99485 0.482643 L2.89824 0.386114 L2.80163 0.386114 L2.80163 0.386114 L2.80163 0.289586 L2.80163 0.289586 C2.99485 0.289586 3.09146 0.289586 3.28467 0.289586 C3.47789 0.193057 3.6711 0.193057 3.86432 0.193057 Z" transform="translate(167.538, 103.035)"/>
    <path style="fill:#94561b; fill-rule:nonzero;stroke:none;" d="M15.5539 0 C4.63718 0 0 9.07368 0 15.5411 C0 22.6842 4.54058 31.1787 15.3607 31.1787 C24.9249 31.1787 31.1078 23.8425 31.1078 14.9619 C31.1078 5.59865 24.4418 0 15.5539 0 Z M16.3268 29.6343 C9.17776 29.6343 3.6711 23.6495 3.6711 14.3827 C3.6711 5.69518 8.59811 1.3514 15.2641 1.3514 C21.5436 1.3514 27.3401 6.46741 27.3401 16.0237 C27.2435 27.6072 19.9012 29.6343 16.3268 29.6343 " transform="translate(53.8305, 68.3814)"/>
    <path style="fill:#94561b; fill-rule:nonzero;stroke:none;" d="M10.2404 13.514 C10.2404 13.707 10.0472 15.0584 9.95062 15.6376 C9.75741 16.1203 9.75741 16.2168 8.59811 16.2168 C5.50666 16.2168 4.05754 16.1203 2.89824 16.1203 C2.70502 16.1203 1.44912 16.2168 0.772864 16.2168 C0.579648 16.2168 0.386432 16.2168 0.386432 16.0237 C0.386432 15.9272 0.386432 15.9272 0.579648 15.9272 C0.772864 15.9272 1.06269 15.9272 1.2559 15.8307 C1.64234 15.7341 1.83555 15.2515 1.83555 14.6723 C1.93216 13.8036 1.93216 12.0661 1.93216 10.039 L1.93216 6.27435 C1.93216 2.89586 1.93216 2.31668 1.93216 1.64098 C1.93216 0.868757 1.73894 0.579171 0.96608 0.386114 C0.772864 0.386114 0.386432 0.289586 0.193216 0.289586 C0.096608 0.289586 0 0.289586 0 0.193057 C0 0.0965285 0.096608 0 0.386432 0 C1.35251 0 2.70502 0.0965285 2.80163 0.0965285 C2.89824 0.0965285 4.44397 0 5.12022 0 C5.31344 0 5.50666 0 5.50666 0.193057 C5.50666 0.289586 5.41005 0.289586 5.31344 0.289586 C5.12022 0.289586 4.8304 0.289586 4.63718 0.386114 C4.05754 0.482643 3.86432 0.868757 3.76771 1.64098 C3.76771 2.31668 3.76771 2.89586 3.76771 6.27435 L3.76771 10.1355 C3.76771 13.3209 3.86432 14.6723 4.25075 15.0584 C4.63718 15.4446 5.12022 15.5411 6.85917 15.5411 C8.01846 15.5411 8.98454 15.5411 9.46758 14.8654 C9.75741 14.4793 9.95062 13.9966 10.0472 13.6105 C10.0472 13.4175 10.1438 13.3209 10.2404 13.3209 C10.2404 13.1279 10.2404 13.2244 10.2404 13.514 Z" transform="translate(86.8705, 83.3433)"/>
    <path style="fill:#94561b; fill-rule:nonzero;stroke:none;" d="M15.3607 0.193057 C15.3607 0.289586 15.2641 0.386114 15.0708 0.386114 C14.8776 0.386114 14.3946 0.482643 14.1048 0.6757 C13.7183 0.965285 13.4285 1.15834 12.9455 1.73751 C12.2692 2.60627 9.27437 7.62575 8.88794 8.59104 C8.59811 9.36327 8.59811 10.039 8.59811 10.7147 L8.59811 12.5487 C8.59811 12.9348 8.59811 13.8036 8.69472 14.6723 C8.69472 15.2515 8.88794 15.7341 9.56419 15.8307 C9.85402 15.8307 10.3371 15.9272 10.5303 15.9272 C10.6269 15.9272 10.7235 16.0237 10.7235 16.0237 C10.7235 16.1203 10.6269 16.2168 10.3371 16.2168 C9.17776 16.2168 7.82525 16.1203 7.72864 16.1203 C7.63203 16.1203 6.27952 16.2168 5.60326 16.2168 C5.41005 16.2168 5.21683 16.2168 5.21683 16.0237 C5.21683 15.9272 5.21683 15.9272 5.41005 15.9272 C5.60326 15.9272 5.89309 15.9272 6.0863 15.8307 C6.47274 15.7341 6.66595 15.2515 6.76256 14.6723 C6.85917 13.8036 6.85917 12.8383 6.85917 12.5487 L6.85917 10.7147 C6.85917 9.55632 6.66595 9.07368 6.37613 8.49451 C6.18291 8.1084 3.38128 3.3785 2.60842 2.31668 C2.02877 1.54446 1.54573 0.965285 1.1593 0.772228 C0.869472 0.579171 0.386432 0.386114 0.193216 0.386114 C0.096608 0.386114 0 0.386114 0 0.193057 C0 0.0965285 0.096608 0 0.289824 0 C0.676256 0 2.31859 0.0965285 2.4152 0.0965285 C2.60842 0.0965285 3.38128 0 4.25075 0 C4.44397 0 4.54058 0.0965285 4.54058 0.193057 C4.54058 0.289586 4.44397 0.289586 4.25075 0.386114 C4.05754 0.482643 3.96093 0.579171 3.96093 0.772228 C3.96093 1.06181 4.05754 1.25487 4.25075 1.64098 C4.63718 2.22016 7.82525 7.81881 8.21168 8.39798 C8.59811 7.52922 11.3031 2.79933 11.7862 2.12363 C12.076 1.64098 12.1726 1.3514 12.1726 1.06181 C12.1726 0.772228 12.076 0.482643 11.7862 0.482643 C11.593 0.386114 11.4964 0.386114 11.4964 0.289586 C11.4964 0.193057 11.593 0.193057 11.8828 0.193057 C12.4624 0.193057 13.1387 0.289586 13.3319 0.289586 C13.4285 0.289586 14.9742 0.193057 15.4573 0.193057 C15.1675 1.42109e-14 15.3607 0.0965285 15.3607 0.193057 Z" transform="translate(95.9516, 83.2468)"/>
    <path style="fill:#94561b; fill-rule:nonzero;stroke:none;" d="M21.3504 16.3133 C21.3504 16.4098 21.1572 16.5064 20.8673 16.5064 C20.3843 16.5064 18.0657 16.4098 17.2928 16.4098 C16.8098 16.4098 16.7132 16.3133 16.7132 16.2168 C16.7132 16.1203 16.7132 16.1203 16.9064 16.0237 C17.003 16.0237 17.003 15.8307 17.003 15.6376 C17.003 15.5411 17.003 15.2515 17.003 15.0584 L16.0369 4.24725 L15.9403 4.24725 L10.6269 15.6376 C10.2404 16.4098 10.2404 16.5064 10.0472 16.5064 C9.95062 16.5064 9.75741 16.3133 9.46758 15.6376 L4.05754 4.44031 L3.96093 4.44031 L3.18806 13.9001 C3.18806 14.4793 3.09146 15.0584 3.09146 15.5411 C3.09146 15.8307 3.28467 16.1203 3.6711 16.2168 C4.05754 16.3133 4.34736 16.3133 4.44397 16.3133 C4.54058 16.3133 4.63718 16.3133 4.63718 16.4098 C4.63718 16.6029 4.54058 16.6029 4.25075 16.6029 C3.47789 16.6029 2.4152 16.5064 2.22198 16.5064 C2.02877 16.5064 0.96608 16.6029 0.386432 16.6029 C0.193216 16.6029 0 16.6029 0 16.4098 C0 16.3133 0.096608 16.3133 0.193216 16.3133 C0.386432 16.3133 0.48304 16.3133 0.869472 16.2168 C1.54573 16.1203 1.64234 15.348 1.73894 14.4793 L3.28467 0.482643 C3.28467 0.289586 3.38128 0.0965285 3.47789 0.0965285 C3.5745 0.0965285 3.6711 0.193057 3.76771 0.386114 L10.3371 13.9001 L16.6166 0.386114 C16.7132 0.193057 16.8098 0 16.9064 0 C17.0996 0 17.0996 0.193057 17.1962 0.579171 L18.6453 13.8036 C18.742 14.5758 18.8386 15.7341 19.8046 16.1203 C20.3843 16.3133 20.9639 16.3133 21.1572 16.3133 C21.3504 16.2168 21.3504 16.2168 21.3504 16.3133 Z" transform="translate(110.636, 83.0537)"/>
    <path style="fill:#94561b; fill-rule:nonzero;stroke:none;" d="M8.88794 5.01948 C8.88794 4.34378 8.79133 2.89586 7.72864 1.73751 C6.56934 0.579171 5.31344 0.6757 4.8304 0.6757 C4.44397 0.6757 4.05754 0.6757 3.86432 0.772228 C3.76771 0.772228 3.6711 0.965285 3.6711 1.15834 L3.6711 10.039 C3.6711 12.0661 3.6711 13.8036 3.76771 14.6723 C3.86432 15.2515 3.96093 15.7341 4.63718 15.8307 C4.92701 15.8307 5.41005 15.9272 5.60326 15.9272 C5.69987 15.9272 5.79648 16.0237 5.79648 16.0237 C5.79648 16.1203 5.69987 16.2168 5.41005 16.2168 C4.25075 16.2168 2.89824 16.1203 2.80163 16.1203 C2.70502 16.1203 1.35251 16.2168 0.772864 16.2168 C0.579648 16.2168 0.386432 16.2168 0.386432 16.0237 C0.386432 15.9272 0.386432 15.9272 0.579648 15.9272 C0.772864 15.9272 1.06269 15.9272 1.2559 15.8307 C1.64234 15.7341 1.83555 15.2515 1.83555 14.6723 C1.93216 13.8036 1.93216 12.0661 1.93216 10.039 L1.93216 6.27435 C1.93216 2.89586 1.93216 2.31668 1.93216 1.64098 C1.93216 0.868757 1.73894 0.579171 0.96608 0.386114 C0.772864 0.386114 0.386432 0.289586 0.193216 0.289586 C0.096608 0.289586 0 0.289586 0 0.193057 C0 0.0965285 0.096608 0 0.386432 0 C1.35251 0 2.60842 0.0965285 2.80163 0.0965285 C3.28467 0.0965285 4.54058 0 5.50666 0 C8.21168 0 9.17776 0.868757 9.46758 1.25487 C9.95062 1.73751 10.5303 2.7028 10.5303 3.86114 C10.5303 6.95005 8.30829 8.97715 5.21683 8.97715 C5.12022 8.97715 4.8304 8.97715 4.73379 8.97715 C4.63718 8.97715 4.54058 8.97715 4.54058 8.78409 C4.54058 8.59104 4.63718 8.59104 5.12022 8.59104 C7.34221 8.49451 8.88794 6.95005 8.88794 5.01948 Z" transform="translate(133.436, 83.3433)"/>
    <path style="fill:#94561b; fill-rule:nonzero;stroke:none;" d="M16.1335 0.386114 C16.1335 0.482643 16.0369 0.482643 15.9403 0.482643 C15.7471 0.482643 15.6505 0.482643 15.3607 0.579171 C14.781 0.6757 14.5878 1.06181 14.5878 1.83404 C14.5878 2.50974 14.5878 3.08891 14.5878 6.46741 L14.5878 8.78409 C14.5878 11.1008 14.298 13.707 12.6556 15.2515 C11.1099 16.6029 9.46758 16.796 8.21168 16.796 C7.43882 16.796 5.31344 16.6994 3.76771 15.2515 C2.70502 14.2862 1.93216 12.7418 1.93216 9.55632 L1.93216 6.37088 C1.93216 2.99238 1.93216 2.41321 1.93216 1.73751 C1.93216 0.965285 1.73894 0.6757 0.96608 0.482643 C0.772864 0.482643 0.386432 0.386114 0.193216 0.386114 C0.096608 0.386114 0 0.386114 0 0.289586 C0 0.193057 0.096608 0.0965285 0.386432 0.0965285 C1.35251 0.0965285 2.70502 0.193057 2.80163 0.193057 C2.99485 0.193057 4.25075 0.0965285 4.92701 0.0965285 C5.12022 0.0965285 5.31344 0.0965285 5.31344 0.289586 C5.31344 0.386114 5.21683 0.386114 5.12022 0.386114 C4.92701 0.386114 4.8304 0.386114 4.54058 0.482643 C3.96093 0.579171 3.76771 0.965285 3.76771 1.73751 C3.76771 2.41321 3.76771 2.99238 3.76771 6.37088 L3.76771 9.36327 C3.76771 12.4522 4.44397 13.8036 5.41005 14.6723 C6.47274 15.6376 7.43882 15.8307 8.59811 15.8307 C9.95062 15.8307 11.2065 15.2515 11.9794 14.2862 C12.9455 13.0313 13.2353 11.1973 13.2353 8.97715 L13.2353 6.27435 C13.2353 2.89586 13.2353 2.31668 13.2353 1.64098 C13.2353 0.868757 13.0421 0.579171 12.3658 0.386114 C12.1726 0.386114 11.7862 0.289586 11.593 0.289586 C11.4964 0.289586 11.3997 0.289586 11.3997 0.193057 C11.3997 0.0965285 11.4964 0 11.7862 0 C12.7523 0 13.9116 0.0965285 14.1048 0.0965285 C14.298 0.0965285 15.2641 0 15.9403 0 C16.0369 0.193057 16.1335 0.289586 16.1335 0.386114 Z" transform="translate(145.705, 82.7642)"/>
    <path style="fill:#94561b; fill-rule:nonzero;stroke:none;" d="M8.21168 12.4522 C8.21168 14.8654 6.47274 16.8925 3.18806 16.8925 C2.22198 16.8925 1.1593 16.6994 0.289824 16.3133 C0 16.1203 0 16.1203 0 15.5411 C0 14.4793 0.096608 13.6105 0.096608 13.2244 C0.096608 13.0313 0.193216 12.8383 0.289824 12.8383 C0.386432 12.8383 0.48304 12.9348 0.48304 13.0313 C0.48304 13.2244 0.48304 13.514 0.579648 13.8036 C0.869472 15.348 2.31859 16.0237 3.76771 16.0237 C5.79648 16.0237 6.85917 14.5758 6.85917 13.1279 C6.85917 11.68 6.27952 10.8112 4.44397 9.26674 L3.47789 8.49451 C1.2559 6.66047 0.676256 5.30907 0.676256 3.86114 C0.676256 1.54446 2.4152 0 5.12022 0 C5.9897 0 6.56934 0.0965285 7.14899 0.193057 C7.53542 0.289586 7.72864 0.289586 7.92186 0.289586 C8.11507 0.289586 8.11507 0.289586 8.11507 0.482643 C8.11507 0.579171 8.01846 1.25487 8.01846 2.79933 C8.01846 3.18544 8.01846 3.28197 7.82525 3.28197 C7.72864 3.28197 7.63203 3.18544 7.63203 2.99238 C7.63203 2.7028 7.43882 2.12363 7.34221 1.93057 C7.2456 1.73751 6.66595 0.772228 4.63718 0.772228 C3.18806 0.772228 2.02877 1.73751 2.02877 3.28197 C2.02877 4.53684 2.60842 5.21254 4.63718 6.85352 L5.89309 7.81881 C7.34221 9.26674 8.21168 10.7147 8.21168 12.4522 Z" transform="translate(163.191, 82.5711)"/>
    <path style="fill:#94561b; fill-rule:nonzero;stroke:none;" d="M31.301 28.5724 C31.0112 28.669 30.8179 28.7655 30.8179 28.7655 C30.7213 28.7655 30.7213 28.5724 30.5281 28.2829 C30.2383 27.8002 30.1417 27.221 29.9485 26.7384 C28.9824 24.9044 27.4367 23.553 25.8909 22.2981 C25.3113 21.8154 24.9249 22.105 24.152 22.2981 C17.6793 24.1321 14.0082 27.6072 8.21168 28.2829 C5.60326 28.5724 2.99485 28.4759 0 27.5106 C0.96608 26.5453 2.70502 25.0974 3.6711 24.6148 C8.69472 21.7189 13.2353 23.4564 22.5097 21.0432 C13.1387 25.2905 7.14899 22.3946 2.51181 26.8349 C10.6269 28.2829 15.7471 24.8078 25.0215 21.2363 C25.0215 21.1397 24.5384 20.8502 23.7656 20.3675 L23.3791 20.271 C22.1232 19.5953 20.9639 19.0161 19.8046 18.4369 C18.8386 17.9543 17.8725 17.4717 17.003 16.8925 C11.3997 13.707 7.14899 9.65285 4.54058 0 C11.2065 7.62575 24.8283 11.68 30.0451 23.8425 C24.9249 14.9619 16.6166 12.0661 6.85917 3.3785 C8.5015 8.30145 11.2065 11.1973 15.0708 13.9001 C17.486 15.5411 19.9979 17.0855 22.5097 18.5335 C23.9588 19.2092 25.2147 19.9814 26.2774 20.7536 C26.4706 20.8502 26.5672 20.9467 26.7604 21.0432 L26.6638 21.0432 C29.2722 23.0703 30.7213 25.0009 31.0112 25.387 C31.4942 25.8696 32.5569 27.4141 32.8467 28.0898 C32.7501 28.862 31.9772 28.2829 31.301 28.5724 Z" transform="translate(115.08, 102.456)"/>
    <path style="fill:#94561b; fill-rule:nonzero;stroke:none;" d="M4.73379 19.3057 C12.2692 22.105 16.9064 25.387 23.4757 27.028 C15.5539 26.1592 10.7235 22.7807 0 19.0161 C1.93216 18.1474 5.50666 17.6647 7.2456 17.8578 C11.7862 18.3404 16.0369 19.7883 20.0945 21.8154 C20.5775 22.0085 21.0605 22.2981 21.6402 22.3946 C16.9064 14.5758 9.46758 11.5834 2.70502 3.08891 C2.89824 5.4056 3.76771 7.14311 4.92701 8.78409 C7.43882 12.4522 16.8098 18.9196 16.8098 19.1126 C14.3946 17.6647 11.7862 16.4098 9.46758 14.7689 C4.8304 11.3904 1.2559 9.17021 0.289824 0 C3.86432 1.3514 7.2456 6.17782 9.75741 8.59104 C11.7862 10.5216 14.781 13.1279 16.52 14.9619 C14.0082 8.88062 10.2404 6.27435 8.88794 3.28197 C18.3555 3.47503 24.8283 14.8654 24.635 21.4293 C23.1859 14.5758 18.3555 7.52922 13.0421 6.757 C17.3894 11.1008 19.708 18.7265 23.8622 23.746 C24.635 24.7113 26.7604 26.4488 35.0687 28.9586 C30.7213 28.3794 26.1808 26.8349 22.5097 24.5182 C16.8098 20.7536 11.1099 19.4022 4.73379 19.3057 Z" transform="translate(29.8717, 83.9225)"/>
    <path style="fill:#94561b; fill-rule:nonzero;stroke:none;" d="M46.082 9.17021 C40.2855 9.55632 38.3534 8.1084 32.9433 9.74938 C25.8909 11.7765 17.3894 18.4369 11.3997 19.4988 C19.225 19.2092 26.1808 16.3133 33.2331 11.0043 C26.857 17.7612 14.8776 22.2981 6.56934 20.3675 C9.56419 18.2439 14.781 18.1474 20.7707 13.8036 C17.9691 14.4793 13.6217 15.155 10.5303 15.8307 C6.76256 16.6029 4.15414 18.63 0 17.7612 C6.37613 9.65285 9.17776 10.4251 15.5539 9.94244 C18.742 9.74938 20.3843 9.84591 23.5723 9.94244 C23.5723 10.1355 12.4624 10.1355 7.92186 12.1626 C5.89309 13.0313 3.86432 14.8654 2.22198 16.8925 C17.0996 12.9348 20.9639 14.2862 30.1417 9.65285 C29.562 9.45979 28.8858 9.36327 28.3061 9.36327 C23.1859 8.88062 18.3555 7.62575 13.7183 5.4056 C11.8828 4.53684 8.79133 1.93057 7.43882 0 C21.1572 4.82643 24.5384 2.31668 34.7789 7.33617 C26.857 5.30907 15.6505 4.15073 10.4337 1.83404 C14.2014 5.69518 24.4418 8.78409 31.9772 8.39798 C38.7398 7.72228 41.4448 8.30145 46.082 9.17021 Z" transform="translate(63.9744, 107.089)"/>
    <path style="fill:#94561b; fill-rule:nonzero;stroke:none;" d="M3.86432 2.89586 C10.4337 10.8112 15.0708 11.0043 17.9691 18.5335 C15.3607 8.39798 6.76256 6.66047 2.51181 0 C2.02877 11.0043 8.5015 13.514 14.781 18.0508 C14.2014 18.0508 9.37098 18.3404 8.98454 17.9543 C7.92186 16.796 5.79648 17.2786 4.92701 17.5682 C3.18806 18.1474 0 20.7536 0.772864 22.4911 C1.73894 24.7113 5.21683 24.1321 6.85917 23.746 C9.27437 23.0703 11.3997 21.4293 9.6608 19.0161 C12.6556 18.7265 15.1675 18.8231 17.0996 19.1126 C14.3946 16.796 11.4964 14.5758 8.88794 12.1626 C6.27952 9.55632 4.54058 6.95005 3.86432 2.89586 Z M6.0863 22.6842 C5.12022 22.8773 3.18806 22.7807 2.80163 22.4911 C1.93216 22.0085 4.63718 20.7536 5.60326 20.5606 C6.66595 20.271 7.53542 20.5606 7.72864 21.1397 C7.82525 21.8154 7.14899 22.4911 6.0863 22.6842 " transform="translate(54.217, 96.2782)"/>
    <path style="fill:#94561b; fill-rule:nonzero;stroke:none;" d="M2.22198 23.2634 C4.15414 19.2092 6.37613 17.0855 9.95062 15.2515 C13.5251 13.4175 17.7759 12.2591 21.3504 10.6181 C19.1284 10.3286 16.4234 9.74938 13.3319 8.49451 C15.8437 6.46741 14.1048 4.0542 11.7862 2.60627 C10.1438 1.64098 6.56934 0 4.92701 2.0271 C3.6711 3.57156 6.18291 7.4327 7.92186 8.49451 C8.79133 9.07368 10.8201 10.232 12.3658 9.36327 C12.8489 9.07368 17.8725 10.9077 18.5487 11.0043 C10.5303 13.9001 2.89824 14.5758 0 26.4488 C9.85402 17.6647 20.4809 17.6647 22.0266 11.3904 C16.6166 18.5335 9.08115 16.3133 2.22198 23.2634 Z M10.0472 7.04658 C9.6608 7.52922 8.59811 7.33617 7.72864 6.56394 C6.85917 5.79171 5.79648 4.0542 5.69987 3.47503 C5.60326 2.41321 8.4049 4.0542 9.27437 4.82643 C10.1438 5.50213 10.5303 6.56394 10.0472 7.04658 " transform="translate(96.4347, 104.676)"/>
    <path style="fill:#94561b; fill-rule:nonzero;stroke:none;" d="M19.0318 3.57156 C18.0657 3.08891 17.0996 2.60627 16.2301 2.0271 C14.2014 1.64098 11.8828 1.54446 9.37098 1.73751 L9.17776 1.25487 C8.21168 0 6.0863 0.289586 5.21683 0.482643 C3.47789 0.868757 0 3.08891 0.48304 4.92295 C1.1593 7.23964 4.73379 7.04658 6.37613 6.85352 C8.79133 6.46741 11.0133 5.11601 9.75741 2.7028 C13.2353 1.93057 16.4234 2.60627 19.0318 3.57156 Z M5.60326 5.69518 C4.63718 5.88824 2.70502 5.69518 2.31859 5.30907 C1.54573 4.7299 4.25075 3.76461 5.31344 3.57156 C6.37613 3.3785 7.2456 3.66808 7.34221 4.34378 C7.43882 4.92295 6.66595 5.59865 5.60326 5.69518 " transform="translate(115.756, 117.225)"/>
   </g>
   <path style="fill:#ffffff; fill-rule:evenodd;stroke:#94561b; stroke-width:1.09412; stroke-linecap:butt; stroke-linejoin:miter; stroke-dasharray:none;" d="M0 37.3153 L12.5908 0 L18.7106 0 L31.3014 37.3153 L26.0595 37.3153 L22.6735 26.8901 L8.40223 26.8901 L5.01626 37.3153 L0 37.3153 Z M21.294 22.6548 L15.5253 5.06225 L9.7817 22.6548 L21.294 22.6548 Z" transform="translate(163.84, 108.285)"/>
  </g>
 </g>
</svg>
