<?xml version="1.0" encoding="UTF-8"?>
<svg width="200pt" version="1.1" xmlns="http://www.w3.org/2000/svg" height="200pt" viewBox="0 0 200 200" xmlns:xlink="http://www.w3.org/1999/xlink">
 <defs>
  <clipPath id="Clip0">
   <path d="M0 0 L200 0 L200 156.836 L0 156.836 L0 0 Z" transform="translate(-0.391304, 21.4436)"/>
  </clipPath>
  <clipPath id="Clip1">
   <path d="M0 0 L200 0 L200 156.836 L0 156.836 L0 0 Z" transform="translate(-0.391304, 21.4436)"/>
  </clipPath>
  <clipPath id="Clip2">
   <path d="M0 0 L200 0 L200 156.836 L0 156.836 L0 0 Z" transform="translate(-0.391304, 21.4436)"/>
  </clipPath>
  <clipPath id="Clip3">
   <path d="M0 0 L190.389 0 L190.389 61.3434 L0 61.3434 L0 0 Z" transform="translate(3.92284, 85.5951)"/>
  </clipPath>
  <clipPath id="Clip4">
   <path d="M0 0 L190.389 0 L190.389 61.3434 L0 61.3434 L0 0 Z" transform="translate(3.92284, 85.5951)"/>
  </clipPath>
  <clipPath id="Clip5">
   <path d="M0 0 L103.358 0 L103.358 28.6717 L0 28.6717 L0 0 Z" transform="translate(4.17839, 85.5951)"/>
  </clipPath>
  <clipPath id="Clip6">
   <path d="M0 0 L190.389 0 L190.389 28.5525 L0 28.5525 L0 0 Z" transform="translate(3.92284, 118.386)"/>
  </clipPath>
  <clipPath id="Clip7">
   <path d="M0 0 L200 0 L200 26.6121 L0 26.6121 L0 0 Z" transform="translate(-0.391304, 151.668)"/>
  </clipPath>
  <clipPath id="Clip8">
   <path d="M0 0 L186.237 0 L186.237 17.5394 L0 17.5394 L0 0 Z" transform="translate(5.0996, 156.075)"/>
  </clipPath>
 </defs>
 <g id="Background">
  <g id="Layer_12" clip-path="url(#Clip0)">
   <g id="Group8" clip-path="url(#Clip1)">
    <g id="Group6" clip-path="url(#Clip2)">
     <path style="fill:#edd03d; fill-rule:nonzero;stroke:none;" d="M62.9444 46.7212 C76.7051 49.4939 74.9909 39.4141 90.4646 30.0889 C73.2768 15.6737 43.5394 36.5404 42.3798 36.3889 C41.4646 36.2687 43.6566 33.9626 44.3788 32.4646 C44.5061 32.204 49.7394 26.6111 51.503 26.6111 C53.2677 26.6111 53.0313 28.0434 54.3343 27.9313 C55.6364 27.8212 56.2202 27.1232 56.2919 26.0566 C56.1495 25.1859 54.6384 23.8657 52.0586 25.1495 C48.7556 26.7939 44.5909 30.7657 44.296 30.5939 C43.9596 30.397 45.3515 24.7131 45.2333 21.6727 C45.1394 19.2606 42.1071 19.7414 41.3737 20.6131 C40.9545 21.1121 40.2111 21.8313 40.5909 22.3818 C41.4747 24.2929 44.1677 21.6828 44.4475 22.7818 C45.0859 25.2778 42.4838 30.8 42.5859 30.7899 C42.6889 30.7798 40.7879 33.6091 39.2566 33.5677 C37.3909 33.5182 43.8939 6.50202 21.1111 0 C21.1111 0 22.9253 4.53636 16.9859 16.3374 C15.7202 20.6556 12.8949 22.0263 18.1374 29.5869 C13.7525 30.0909 10.8788 35.4838 9.5697 40.2535 C6.66566 50.8141 3.3697 48.5384 0 54.3848 C5.69596 52.2687 15.1636 54.303 21.5141 52.7071 C27.8657 51.1091 30.7889 43.0444 34.5182 41.1798 C37.6444 41.7859 26.3798 52.3556 30.6879 54.7889 C33.2081 57.0061 40.202 39.0333 40.3586 42.2889 C40.5162 45.5455 37.3515 57.0556 39.5081 60.5343 C45.2535 69.8091 50.5222 66.0273 51.6556 71.2202 C53.3687 79.0828 53.1667 80.4717 53.8727 80.3929 C55.1727 80.2485 53.3697 71.2263 55.0818 64.9202 C56.0394 61.3919 61.2758 58.9394 63.1616 53.503 C63.802 51.6626 63.2394 48.0505 62.9444 46.7212 Z" transform="translate(97.5218, 21.4436)"/>
     <g id="Group4" clip-path="url(#Clip3)">
      <g id="Group3" clip-path="url(#Clip4)">
       <g id="Group1" clip-path="url(#Clip5)">
        <path style="fill:#eed13c; fill-rule:nonzero;stroke:none;" d="M24.9384 0.0838384 L24.8929 1.45051 C24.8929 4.55152 25.1414 7.13838 25.6374 9.20505 L24.7343 9.34949 C23.4101 4.1798 20.303 1.59495 15.4141 1.59495 C12.0737 1.59495 9.32424 2.76869 7.16566 5.11313 C5.00606 7.46061 3.92727 10.4424 3.92727 14.0626 C3.92727 17.8293 4.99192 20.8646 7.1202 23.1626 C9.24848 25.4626 12.0586 26.6111 15.5495 26.6111 C19.9121 26.6111 23.1778 24.7687 25.3434 21.0808 L26.404 21.6525 C23.8313 26.3323 19.8293 28.6717 14.398 28.6717 C10.3515 28.6717 6.93939 27.3323 4.16364 24.6525 C1.38889 21.9717 0 18.6717 0 14.7545 C0 10.5646 1.4 7.05859 4.19798 4.23535 C6.99596 1.41212 10.4788 0 14.6465 0 C16.5424 0 18.6859 0.429293 21.0778 1.28687 C21.2576 1.35455 21.3717 1.39495 21.4152 1.40808 L21.7323 1.5303 C22.003 1.62626 22.297 1.67374 22.6121 1.67374 C23.4091 1.67374 23.898 1.14343 24.0778 0.0828283 L24.9384 0.0828283 L24.9384 0.0838384 Z" transform="translate(4.17839, 85.5951)"/>
        <path style="fill:#eed13c; fill-rule:nonzero;stroke:none;" d="M0 1.0404 L0 0 L12.3444 0 L12.3444 1.0404 L11.9606 1.0404 C10.4111 1.0404 9.34242 1.38485 8.75556 2.07172 C8.1697 2.7596 7.87576 4.01414 7.87576 5.83838 L7.87576 21.999 C7.87576 23.8242 8.1697 25.0788 8.75556 25.7657 C9.34242 26.4525 10.4111 26.796 11.9606 26.796 L12.3444 26.796 L12.3444 27.8374 L0 27.8374 L0 26.796 L0.270707 26.796 C1.86667 26.796 2.96364 26.4525 3.56566 25.7657 C4.16768 25.0788 4.4697 23.8242 4.4697 21.999 L4.4697 5.83737 C4.4697 4.01313 4.16768 2.75859 3.56566 2.07071 C2.96364 1.38384 1.86667 1.03939 0.270707 1.03939 L0 1.03939 L0 1.0404 Z" transform="translate(34.0582, 86.0052)"/>
        <path style="fill:#eed13c; fill-rule:nonzero;stroke:none;" d="M25.6131 2.13163e-14 L26.1101 6.46869 L25.2515 6.46869 C25.0111 4.64545 24.4384 3.42525 23.5374 2.80707 C22.6333 2.18788 20.9869 1.87677 18.5949 1.87677 L14.7808 1.87677 L14.7808 22.0172 C14.7808 23.8283 15.0697 25.0768 15.6495 25.7636 C16.2283 26.4505 17.2848 26.7939 18.8202 26.7939 L19.6788 26.7939 L19.6788 27.8354 L6.47677 27.8354 L6.47677 26.7939 L7.19899 26.7939 C8.79394 26.7939 9.89192 26.4505 10.4939 25.7636 C11.096 25.0768 11.398 23.8283 11.398 22.0172 L11.398 1.87778 L7.69697 1.87778 C5.31919 1.87778 3.63535 2.21212 2.64141 2.87778 C1.64848 3.54545 1.05455 4.74949 0.858586 6.4899 L0 6.4899 L0.520202 0 L25.6131 0 L25.6131 2.13163e-14 Z" transform="translate(49.4036, 86.0042)"/>
        <path style="fill:#eed13c; fill-rule:nonzero;stroke:none;" d="M30.6212 0 L30.6212 1 C28.304 1 26.4838 1.94646 25.1606 3.83737 C24.8444 4.3 24.6646 4.55859 24.6192 4.61313 L16.2475 15.796 L16.2475 21.998 C16.2475 23.7677 16.5636 25.0081 17.1949 25.7232 C17.8283 26.4374 18.9101 26.7949 20.4455 26.7949 L20.7172 26.7949 L20.7172 27.8364 L8.39293 27.8364 L8.39293 26.7949 L8.66465 26.7949 C10.2596 26.7949 11.3576 26.4515 11.9596 25.7646 C12.5616 25.0778 12.8626 23.8232 12.8626 21.998 L12.8626 15.7333 L5.64242 3.79596 C4.51414 1.93232 2.72222 1 0.270707 1 L0 1 L0 0 L12.1859 0 L12.1859 1.0202 L11.7111 1.0202 C9.87576 1.0202 8.95758 1.50404 8.95758 2.47071 C8.95758 2.86566 9.08586 3.2596 9.34242 3.65455 L9.83838 4.36869 L15.5475 13.7758 L22.7677 4.20505 C23.2798 3.53838 23.5354 2.9202 23.5354 2.34747 C23.5354 1.44949 22.5495 1.00101 20.5798 1.00101 L20.5798 0.0010101 L30.6212 0.0010101 L30.6212 0 Z" transform="translate(76.9148, 86.0042)"/>
       </g>
       <g id="Group2" clip-path="url(#Clip6)">
        <path style="fill:#eed13c; fill-rule:nonzero;stroke:none;" d="M26.5687 0.0414141 C26.4939 0.552525 26.4586 1.11111 26.4586 1.71616 C26.4586 4.20606 26.6566 6.58889 27.0535 8.86566 L26.4586 8.96667 C25.8707 6.36869 24.7384 4.48788 23.0636 3.32222 C21.3879 2.15859 18.9768 1.57475 15.8313 1.57475 C12.3929 1.57475 9.52626 2.7404 7.23232 5.06869 C4.93838 7.39899 3.79293 10.3121 3.79293 13.8141 C3.79293 17.5293 5.00202 20.6141 7.4202 23.0727 C9.83838 25.5293 12.8838 26.7576 16.5596 26.7576 C18.3828 26.7576 20.0354 26.4818 21.5212 25.9293 C23.0051 25.3768 23.7465 24.7596 23.7465 24.0727 L23.7465 21.5061 C23.7465 19.7172 23.4566 18.4798 22.8768 17.801 C22.296 17.1202 21.2485 16.7808 19.7343 16.7808 L19.3818 16.7606 L19.3818 15.7505 L31.5293 15.7505 L31.5293 16.7606 L31.1545 16.7808 C29.597 16.7808 28.5242 17.1202 27.9354 17.801 C27.3475 18.4798 27.0535 19.7162 27.0535 21.5061 L27.0535 25.5859 C24.1576 27.4444 20.6081 28.3717 16.4051 28.3717 C11.4354 28.3717 7.46061 27.0818 4.47576 24.4949 C1.49192 21.9101 0 18.4717 0 14.1747 C0 10.0828 1.42222 6.69798 4.26667 4.0202 C7.1101 1.33939 10.701 0 15.0374 0 C17.6535 0 20.3586 0.432323 23.1505 1.29192 C23.8414 1.50909 24.3263 1.61515 24.6051 1.61515 C25.3414 1.61515 25.7889 1.08889 25.9505 0.040404 L26.5687 0.040404 L26.5687 0.0414141 Z" transform="translate(3.92284, 118.567)"/>
        <path style="fill:#eed13c; fill-rule:nonzero;stroke:none;" d="M15.9838 0 L25.9485 23.303 C26.5657 24.7566 27.202 25.7394 27.8566 26.2525 C28.5091 26.7636 29.499 27.0455 30.8222 27.099 L30.8222 28.1303 L19.5778 28.1303 L19.5778 27.099 L19.8192 27.099 C21.8778 27.0061 22.9071 26.4818 22.9071 25.5242 C22.9071 25.1222 22.7667 24.5828 22.4889 23.9101 L20.5475 19.102 L9.14848 19.102 L7.18788 23.3828 C6.71616 24.4202 6.48182 25.1525 6.48182 25.5848 C6.48182 26.5949 7.56263 27.098 9.72323 27.098 L9.72323 28.1293 L0 28.1293 L0 27.098 C2.43939 27.098 4.28384 25.7192 5.53434 22.9586 L15.9838 0 Z M9.78788 17.6899 L19.997 17.6899 L15.1687 5.85455 L9.78788 17.6899 Z" transform="translate(37.1067, 118.386)"/>
        <path style="fill:#eed13c; fill-rule:nonzero;stroke:none;" d="M7.69495 14.802 L7.69495 21.7697 C7.69495 23.5747 7.98182 24.8162 8.55556 25.496 C9.12929 26.1758 10.1727 26.5141 11.6869 26.5141 L12.0616 26.5141 L12.0616 27.5455 L0 27.5455 L0 26.5141 L0.264646 26.5141 C1.82222 26.5141 2.89495 26.1768 3.48384 25.496 C4.07071 24.8152 4.36667 23.5747 4.36667 21.7697 L4.36667 5.77576 C4.36667 3.97273 4.07071 2.73131 3.48384 2.05051 C2.89596 1.3697 1.82222 1.02828 0.264646 1.02828 L0 1.02828 L0 0 L12.1919 0 C19.3939 0 22.9949 2.38081 22.9949 7.14747 C22.9949 8.89697 22.3808 10.4202 21.1545 11.7131 C19.9273 13.0051 18.3061 13.8455 16.2929 14.2364 L21.9364 22.4747 C23.803 25.1818 26.104 26.5354 28.8384 26.5354 L28.8384 27.5455 L21.3848 27.5455 L12.6323 14.801 L9.39192 14.801 L7.69495 14.801 L7.69495 14.802 Z M7.69495 2.94949 L7.69495 12.7646 C7.69495 13.1162 8.00404 13.2899 8.62121 13.2899 L10.9364 13.3293 C16.4626 13.3293 19.2263 11.3444 19.2263 7.37374 C19.2263 3.44343 16.802 1.47677 11.9505 1.47677 C10.0687 1.47677 8.88889 1.56162 8.41111 1.72929 C7.93333 1.89697 7.69495 2.30404 7.69495 2.94949 Z" transform="translate(70.1339, 118.97)"/>
        <path style="fill:#eed13c; fill-rule:nonzero;stroke:none;" d="M0 27.5455 L0 26.5141 L0.265657 26.5141 C1.82424 26.5141 2.89596 26.1768 3.48485 25.496 C4.07374 24.8152 4.36768 23.5747 4.36768 21.7697 L4.36768 5.77576 C4.36768 3.97273 4.07273 2.73131 3.48485 2.05051 C2.89697 1.3697 1.82424 1.02828 0.265657 1.02828 L0 1.02828 L0 0 L10.0545 0 C16.1253 0 20.4101 0.678788 22.9091 2.03838 C27.097 4.31515 29.1929 8.07778 29.1929 13.3273 C29.1929 17.8515 27.6455 21.3525 24.5515 23.8283 C21.4576 26.3061 17.0879 27.5455 11.4434 27.5455 L0 27.5455 Z M7.69495 2.12121 L7.69495 25.3242 C9.19394 25.7404 10.8121 25.9495 12.5465 25.9495 C16.3242 25.9495 19.4101 24.803 21.8061 22.5051 C24.202 20.2111 25.401 17.2535 25.401 13.6313 C25.401 9.91616 24.2323 6.97071 21.8939 4.79697 C19.5576 2.62121 16.398 1.53535 12.4131 1.53535 C10.6646 1.53535 9.09192 1.73131 7.69495 2.12121 Z" transform="translate(101.375, 118.971)"/>
        <path style="fill:#eed13c; fill-rule:nonzero;stroke:none;" d="M22.5101 0.0010101 L22.9727 6.62424 L22.1121 6.62424 C21.8475 4.84848 21.1899 3.57576 20.1394 2.80909 C19.0889 2.03939 17.4747 1.65657 15.3 1.65657 L7.69394 1.65657 L7.69394 12.2172 L14.2202 12.1778 C16.3071 12.1778 17.7293 11.896 18.4869 11.3293 C19.2434 10.7646 19.6222 9.69394 19.6222 8.11919 L20.5273 8.11919 L20.5273 17.8313 L19.6222 17.8313 C19.5343 16.2293 19.1404 15.1717 18.4424 14.6606 C17.7444 14.1495 16.3364 13.8929 14.2202 13.8929 L7.69394 13.8121 L7.69394 23.7889 C7.69394 24.6768 7.82626 25.2485 8.09091 25.5051 C8.35556 25.7616 8.95152 25.8899 9.87778 25.8899 L16.2939 25.8899 C18.7485 25.8899 20.5828 25.4909 21.7939 24.698 C23.0071 23.903 24.0323 22.4273 24.8707 20.2747 L25.7081 20.496 L23.3485 27.5455 L0 27.5455 L0 26.5141 L0.265657 26.5141 C1.82323 26.5141 2.89596 26.1768 3.48485 25.496 C4.07172 24.8152 4.36667 23.5747 4.36667 21.7697 L4.36667 5.77576 C4.36667 3.97273 4.07172 2.73131 3.48485 2.05051 C2.89596 1.3697 1.82323 1.02828 0.265657 1.02828 L0 1.02828 L0 0 L22.5101 0 L22.5101 0.0010101 Z" transform="translate(134.736, 118.971)"/>
        <path style="fill:#eed13c; fill-rule:nonzero;stroke:none;" d="M28.0212 27.5646 L7.47172 4.26162 L7.47172 21.7687 C7.47172 23.5737 7.76566 24.8152 8.35354 25.4949 C8.94141 26.1747 10.0152 26.5131 11.5737 26.5131 L11.8384 26.5131 L11.8384 27.5444 L1.45354 27.5444 L1.45354 26.5131 L1.71919 26.5131 C3.27677 26.5131 4.34949 26.1758 4.93838 25.4949 C5.52525 24.8141 5.8202 23.5737 5.8202 21.7687 L5.8202 3.1899 C4.40909 1.73636 2.53434 1.0101 0.19798 1.0101 L0.132323 1.0101 L0 1.0101 L0 0 L8.37778 0 L26.3697 20.4566 L26.3697 5.77475 C26.3697 3.98586 26.0727 2.74646 25.4768 2.0596 C24.8818 1.37071 23.8121 1.02828 22.2687 1.02828 L22.004 1.02828 L22.004 0 L32.3889 0 L32.3889 1.02828 L32.1232 1.02828 C30.5646 1.02828 29.4929 1.37172 28.904 2.0596 C28.3162 2.74646 28.0222 3.98485 28.0222 5.77475 L28.0222 27.5646 L28.0212 27.5646 Z" transform="translate(161.923, 118.972)"/>
       </g>
      </g>
     </g>
     <g id="Group5" clip-path="url(#Clip7)">
      <path style="fill:#ecd134; fill-rule:evenodd;stroke:none;" d="M0 0 L200 0 L200 1.61212 L0 1.61212 L0 0 Z" transform="translate(-0.391304, 151.668)"/>
      <path style="fill:#ecd134; fill-rule:evenodd;stroke:none;" d="M0 0 L200 0 L200 1.61212 L0 1.61212 L0 0 Z" transform="translate(-0.391304, 176.668)"/>
     </g>
    </g>
    <g id="Group7" clip-path="url(#Clip8)">
     <path style="fill:#146633; fill-rule:nonzero;stroke:none;" d="M16.6606 1.42109e-14 L16.8818 3.93232 L16.3111 3.93232 C16.2121 3.24646 16.0646 2.75556 15.8687 2.45758 C15.5616 1.97677 15.1535 1.62424 14.6434 1.39798 C14.1333 1.17273 13.4667 1.06061 12.6444 1.06061 L9.80606 1.06061 L9.80606 13.8687 C9.80606 14.8929 9.94141 15.5323 10.2111 15.7889 C10.5788 16.1374 11.1576 16.3111 11.9434 16.3111 L12.6434 16.3111 L12.6434 16.7717 L4.11111 16.7717 L4.11111 16.3111 L4.82929 16.3111 C5.67778 16.3111 6.2798 16.096 6.63535 15.6657 C6.84444 15.4101 6.94949 14.8101 6.94949 13.8687 L6.94949 1.06061 L4.53434 1.06061 C3.60101 1.06061 2.93737 1.11717 2.54343 1.22929 C2.02727 1.38283 1.58586 1.68182 1.21717 2.12828 C0.849495 2.57273 0.634343 3.17475 0.571717 3.93232 L0 3.93232 L0.239394 0 L16.6606 0 L16.6606 1.42109e-14 Z" transform="translate(5.0996, 156.46)"/>
     <path style="fill:#146633; fill-rule:nonzero;stroke:none;" d="M20.0152 16.7727 L14.6515 16.7727 L7.83232 8.9404 C7.32929 8.95051 6.91717 8.95556 6.59798 8.95556 C6.47475 8.95556 6.33939 8.95354 6.19293 8.94747 C6.04545 8.94242 5.89091 8.9404 5.73232 8.9404 L5.73232 13.8081 C5.73232 14.8626 5.86768 15.5182 6.13737 15.7737 C6.51818 16.1313 7.08384 16.3111 7.83232 16.3111 L8.62525 16.3111 L8.62525 16.7717 L0 16.7717 L0 16.3111 L0.755556 16.3111 C1.60404 16.3111 2.21111 16.0798 2.58081 15.6192 C2.78889 15.3636 2.89394 14.7586 2.89394 13.8071 L2.89394 2.9798 C2.89394 1.92525 2.75859 1.2697 2.48889 1.01414 C2.09596 0.645455 1.51818 0.460606 0.756566 0.460606 L0.0010101 0.460606 L0.0010101 0 L7.33636 0 C9.47374 0 11.0505 0.131313 12.0636 0.391919 C13.0778 0.653535 13.9374 1.13131 14.6444 1.82828 C15.3515 2.52525 15.704 3.35455 15.704 4.31616 C15.704 5.35051 15.302 6.24646 14.497 7.00404 C13.6929 7.76162 12.4424 8.29899 10.7465 8.61717 L14.8929 13.4242 C15.8515 14.5303 16.6717 15.2646 17.3535 15.6283 C18.0364 15.9919 18.9232 16.2202 20.0172 16.3121 L20.0172 16.7727 L20.0152 16.7727 Z M5.73333 8.15758 C5.91717 8.15758 6.0798 8.1596 6.22121 8.16465 C6.36263 8.17071 6.47576 8.17273 6.56162 8.17273 C8.47778 8.17273 9.92525 7.82424 10.902 7.12828 C11.8788 6.43333 12.3677 5.55152 12.3677 4.48788 C12.3677 3.44343 11.9737 2.59293 11.1879 1.93838 C10.402 1.28384 9.35657 0.955556 8.05455 0.955556 C7.48889 0.955556 6.71515 1.03131 5.73232 1.18586 L5.73232 8.15758 L5.73333 8.15758 Z" transform="translate(24.9501, 156.458)"/>
     <path style="fill:#146633; fill-rule:nonzero;stroke:none;" d="M10.0434 0 C12.6475 0 14.9081 0.826263 16.8253 2.48081 C18.7414 4.13434 19.701 6.2 19.701 8.67778 C19.701 11.2263 18.7364 13.3414 16.8081 15.0202 C14.8788 16.699 12.5434 17.5384 9.80404 17.5384 C7.0404 17.5384 4.71414 16.7192 2.82828 15.0808 C0.942424 13.4434 0 11.3182 0 8.70707 C0 6.04444 1.08687 3.87475 3.26162 2.19495 C5.15253 0.732323 7.41414 0 10.0434 0 Z M9.76768 0.907071 C7.96162 0.907071 6.51717 1.46465 5.43636 2.58081 C4.07273 3.96263 3.39091 5.9899 3.39091 8.66263 C3.39091 11.396 4.09697 13.5 5.51111 14.9747 C6.58081 16.101 7.99899 16.6646 9.76869 16.6646 C11.6606 16.6646 13.2242 16.0505 14.4596 14.8212 C15.6939 13.5929 16.3111 11.6576 16.3111 9.01616 C16.3111 6.13939 15.6293 3.99899 14.2657 2.59697 C13.1818 1.4697 11.6838 0.907071 9.76768 0.907071 Z" transform="translate(47.4764, 156.076)"/>
     <path style="fill:#146633; fill-rule:nonzero;stroke:none;" d="M5.73131 8.92424 L5.73131 13.8081 C5.73131 14.8626 5.87273 15.5182 6.15556 15.7737 C6.52323 16.1313 7.08889 16.3111 7.85051 16.3111 L8.62525 16.3111 L8.62525 16.7717 L0 16.7717 L0 16.3111 L0.755556 16.3111 C1.61616 16.3111 2.22424 16.0798 2.58081 15.6192 C2.7899 15.3636 2.89495 14.7586 2.89495 13.8071 L2.89495 2.9798 C2.89495 1.92525 2.7596 1.2697 2.4899 1.01414 C2.09596 0.645455 1.51919 0.460606 0.756566 0.460606 L0.0010101 0.460606 L0.0010101 0 L7.37374 0 C9.1798 0 10.601 0.156566 11.6404 0.468687 C12.6778 0.781818 13.5545 1.30303 14.2667 2.03535 C14.9788 2.76768 15.3364 3.63535 15.3364 4.63838 C15.3364 6.0101 14.796 7.12424 13.7152 7.9798 C12.6343 8.83434 11.104 9.26263 9.12626 9.26263 C8.63434 9.26263 8.10606 9.23434 7.54141 9.17778 C6.97677 9.12121 6.3697 9.03636 5.73131 8.92424 Z M5.73131 8.21818 C6.25859 8.3 6.72626 8.36162 7.13232 8.40303 C7.53737 8.44343 7.88081 8.46465 8.16364 8.46465 C9.19495 8.46465 10.0828 8.13232 10.8273 7.46667 C11.5697 6.80101 11.9424 5.94141 11.9424 4.88586 C11.9424 4.1697 11.7636 3.49899 11.4081 2.87475 C11.0525 2.25051 10.5475 1.78384 9.89697 1.47677 C9.24646 1.1697 8.50909 1.01616 7.68586 1.01616 C7.18182 1.01616 6.5303 1.09293 5.73232 1.24646 L5.73232 8.21818 L5.73131 8.21818 Z" transform="translate(70.5531, 156.459)"/>
     <path style="fill:#146633; fill-rule:nonzero;stroke:none;" d="M8.62626 16.3121 L8.62626 16.7727 L0.0010101 16.7727 L0.0010101 16.3121 L0.720202 16.3121 C1.54242 16.3121 2.14444 16.1131 2.52626 15.7131 C2.75859 15.4465 2.87677 14.8111 2.87677 13.8081 L2.87677 2.98081 C2.87677 2.1303 2.81414 1.56768 2.69192 1.29091 C2.59293 1.08687 2.3899 0.912121 2.08283 0.768687 C1.6404 0.563636 1.18586 0.460606 0.719192 0.460606 L0 0.460606 L0 0 L8.62525 0 L8.62525 0.460606 L7.88788 0.460606 C7.07677 0.460606 6.48081 0.665657 6.1 1.07475 C5.85455 1.33131 5.73131 1.96566 5.73131 2.9798 L5.73131 13.8071 C5.73131 14.6576 5.79394 15.2152 5.91616 15.4808 C6.01515 15.6859 6.22424 15.8646 6.54343 16.0182 C6.97273 16.2121 7.42121 16.3101 7.88788 16.3101 L8.62626 16.3101 L8.62626 16.3121 Z" transform="translate(89.4067, 156.458)"/>
     <path style="fill:#146633; fill-rule:nonzero;stroke:none;" d="M17.1939 0.0010101 L17.6556 5.71414 L17.1939 5.71414 C16.5798 4.00505 15.704 2.77273 14.5677 2.0202 C13.4313 1.26869 12.0636 0.891919 10.4667 0.891919 C9.12727 0.891919 7.9202 1.17576 6.84545 1.74444 C5.77071 2.31313 4.92222 3.21414 4.30202 4.44747 C3.68081 5.68182 3.37071 7.2202 3.37071 9.06263 C3.37071 10.5778 3.66263 11.8909 4.24545 13.001 C4.82929 14.1131 5.70808 14.9646 6.88081 15.5586 C8.05354 16.1525 9.3899 16.4495 10.8899 16.4495 C12.204 16.4495 13.3586 16.2172 14.3545 15.7505 C15.3495 15.2848 16.4495 14.3606 17.6545 12.9788 L18.097 13.2242 C17.0889 14.7192 15.9131 15.8131 14.5677 16.503 C13.2222 17.1949 11.6283 17.5394 9.78586 17.5394 C6.45556 17.5394 3.87576 16.5101 2.04545 14.4525 C0.680808 12.9162 0 11.1091 0 9.03131 C0 7.36263 0.448485 5.82626 1.34545 4.42323 C2.24242 3.0202 3.4798 1.93232 5.0596 1.16061 C6.63838 0.386869 8.36162 0.0010101 10.2283 0.0010101 C11.6788 0.0010101 13.1101 0.29798 14.5222 0.891919 C14.9404 1.07677 15.2414 1.16768 15.4263 1.16768 C15.697 1.16768 15.9293 1.09091 16.1263 0.937374 C16.3838 0.712121 16.5626 0.4 16.6606 0 L17.1939 0 L17.1939 0.0010101 Z" transform="translate(101.575, 156.075)"/>
     <path style="fill:#146633; fill-rule:nonzero;stroke:none;" d="M13.6566 11.5505 L5.8798 11.5505 L4.51515 14.1919 C4.17071 14.8374 3.99899 15.3232 3.99899 15.6505 C3.99899 15.9071 4.14646 16.1323 4.44141 16.3263 C4.73535 16.5212 5.36869 16.6434 6.33939 16.6949 L6.33939 17.1556 L0 17.1556 L0 16.6949 C0.835354 16.5717 1.37576 16.4141 1.62121 16.2182 C2.12525 15.8182 2.68384 15.0162 3.29798 13.8071 L10.3758 0 L10.9091 0 L17.9131 13.9606 C18.4657 15.0758 18.9727 15.8 19.4333 16.1333 C19.8939 16.4657 20.5364 16.6535 21.3596 16.6939 L21.3596 17.1545 L13.4162 17.1545 L13.4162 16.6939 C14.2273 16.6636 14.7707 16.5525 15.0475 16.3636 C15.3232 16.1737 15.4616 15.9414 15.4616 15.6657 C15.4616 15.3081 15.2657 14.7394 14.8717 13.9606 L13.6566 11.5505 Z M13.2515 10.6293 L9.84242 3.85657 L6.3404 10.6293 L13.2515 10.6293 Z" transform="translate(122.679, 156.075)"/>
     <path style="fill:#146633; fill-rule:nonzero;stroke:none;" d="M0 0 L5.47374 0 L17.7667 12.5788 L17.7667 2.91818 C17.7667 1.88485 17.6242 1.23939 17.3424 0.983838 C16.9848 0.635354 16.4081 0.460606 15.6101 0.460606 L14.9101 0.460606 L14.9101 4.26326e-14 L21.9131 4.26326e-14 L21.9131 0.460606 L21.2131 0.460606 C20.3525 0.460606 19.7455 0.675758 19.3889 1.10606 C19.1798 1.37273 19.0747 1.97677 19.0747 2.91818 L19.0747 17.0475 L18.5404 17.0475 L5.27071 3.54848 L5.27071 13.8687 C5.27071 14.8929 5.40606 15.5323 5.67576 15.7889 C6.04444 16.1374 6.62222 16.3111 7.40909 16.3111 L8.12727 16.3111 L8.12727 16.7717 L1.12424 16.7717 L1.12424 16.3111 L1.80606 16.3111 C2.67778 16.3111 3.28687 16.096 3.63131 15.6657 C3.85253 15.4101 3.96263 14.8101 3.96263 13.8687 L3.96263 2.21212 C3.38485 1.63939 2.94545 1.26364 2.64444 1.08384 C2.34343 0.90404 1.89798 0.733333 1.30808 0.568687 C1.02626 0.49798 0.589899 0.461616 0 0.461616 L0 0 Z" transform="translate(145.683, 156.46)"/>
     <path style="fill:#146633; fill-rule:nonzero;stroke:none;" d="M13.6566 11.5505 L5.8798 11.5505 L4.51515 14.1919 C4.17071 14.8374 3.99899 15.3232 3.99899 15.6505 C3.99899 15.9071 4.14646 16.1323 4.44141 16.3263 C4.73535 16.5212 5.36869 16.6434 6.33939 16.6949 L6.33939 17.1556 L0 17.1556 L0 16.6949 C0.835354 16.5717 1.37576 16.4141 1.62121 16.2182 C2.12525 15.8182 2.68384 15.0162 3.29798 13.8071 L10.3758 0 L10.9091 0 L17.9131 13.9606 C18.4657 15.0758 18.9727 15.8 19.4333 16.1333 C19.8939 16.4657 20.5364 16.6535 21.3596 16.6939 L21.3596 17.1545 L13.4162 17.1545 L13.4162 16.6939 C14.2273 16.6636 14.7707 16.5525 15.0475 16.3636 C15.3232 16.1737 15.4616 15.9414 15.4616 15.6657 C15.4616 15.3081 15.2657 14.7394 14.8717 13.9606 L13.6566 11.5505 Z M13.2505 10.6293 L9.84141 3.85657 L6.33939 10.6293 L13.2505 10.6293 Z" transform="translate(169.977, 156.075)"/>
    </g>
   </g>
  </g>
 </g>
</svg>
