<?xml version="1.0" encoding="UTF-8"?>
<svg width="200pt" version="1.1" xmlns="http://www.w3.org/2000/svg" height="200pt" viewBox="0 0 200 200" xmlns:xlink="http://www.w3.org/1999/xlink">
 <defs>
  <clipPath id="Clip0">
   <path d="M0 0 L200 0 L200 76.4505 L0 76.4505 L0 0 Z" transform="translate(0.0193237, 63.0319)"/>
  </clipPath>
  <clipPath id="Clip1">
   <path d="M0 0 L200 0 L200 76.4505 L0 76.4505 L0 0 Z" transform="translate(0.0193237, 63.0319)"/>
  </clipPath>
  <clipPath id="Clip2">
   <path d="M0 0 L196.197 0 L196.197 22.2331 L0 22.2331 L0 0 Z" transform="translate(0.0193237, 77.3664)"/>
  </clipPath>
  <clipPath id="Clip3">
   <path d="M0 0 L196.197 0 L196.197 22.2331 L0 22.2331 L0 0 Z" transform="translate(0.0193237, 77.3664)"/>
  </clipPath>
  <clipPath id="Clip4">
   <path d="M0 0 L197.465 0 L197.465 13.0668 L0 13.0668 L0 0 Z" transform="translate(0.21435, 126.416)"/>
  </clipPath>
  <linearGradient id="Grad0" y1="10.2614" x1="0.0490492" y2="10.2614" gradientUnits="userSpaceOnUse" x2="198.969">
   <stop offset="0%" stop-color="#ffffff" stop-opacity="1"/>
   <stop offset="100%" stop-color="#00a0d1" stop-opacity="1"/>
  </linearGradient>
  <clipPath id="Clip5">
   <path d="M0 0 L16.8698 0 L16.8698 11.7991 L0 11.7991 L0 0 Z" transform="translate(133.32, 63.0319)"/>
  </clipPath>
  <linearGradient id="Grad1" y1="4.27148" x1="10.979" y2="4.27148" gradientUnits="userSpaceOnUse" x2="0.00399805">
   <stop offset="0%" stop-color="#d8de22" stop-opacity="1"/>
   <stop offset="23.95%" stop-color="#d4dd23" stop-opacity="1"/>
   <stop offset="38.36%" stop-color="#ccdb25" stop-opacity="1"/>
   <stop offset="50.25%" stop-color="#c0d727" stop-opacity="1"/>
   <stop offset="60.76%" stop-color="#a9d22c" stop-opacity="1"/>
   <stop offset="70.37%" stop-color="#90cb32" stop-opacity="1"/>
   <stop offset="79.32%" stop-color="#70c239" stop-opacity="1"/>
   <stop offset="87.76%" stop-color="#47b841" stop-opacity="1"/>
   <stop offset="95.58%" stop-color="#1bac49" stop-opacity="1"/>
   <stop offset="100%" stop-color="#00a550" stop-opacity="1"/>
  </linearGradient>
  <linearGradient id="Grad2" y1="2.5648" x1="6.86231" y2="2.5648" gradientUnits="userSpaceOnUse" x2="-0.0165773">
   <stop offset="0%" stop-color="#d8de22" stop-opacity="1"/>
   <stop offset="23.95%" stop-color="#d4dd23" stop-opacity="1"/>
   <stop offset="38.36%" stop-color="#ccdb25" stop-opacity="1"/>
   <stop offset="50.25%" stop-color="#c0d727" stop-opacity="1"/>
   <stop offset="60.76%" stop-color="#a9d22c" stop-opacity="1"/>
   <stop offset="70.37%" stop-color="#90cb32" stop-opacity="1"/>
   <stop offset="79.32%" stop-color="#70c239" stop-opacity="1"/>
   <stop offset="87.76%" stop-color="#47b841" stop-opacity="1"/>
   <stop offset="95.58%" stop-color="#1bac49" stop-opacity="1"/>
   <stop offset="100%" stop-color="#00a550" stop-opacity="1"/>
  </linearGradient>
  <linearGradient id="Grad3" y1="1.796" x1="-0.0255485" y2="1.796" gradientUnits="userSpaceOnUse" x2="5.34627">
   <stop offset="0%" stop-color="#d8de22" stop-opacity="1"/>
   <stop offset="23.95%" stop-color="#d4dd23" stop-opacity="1"/>
   <stop offset="38.36%" stop-color="#ccdb25" stop-opacity="1"/>
   <stop offset="50.25%" stop-color="#c0d727" stop-opacity="1"/>
   <stop offset="60.76%" stop-color="#a9d22c" stop-opacity="1"/>
   <stop offset="70.37%" stop-color="#90cb32" stop-opacity="1"/>
   <stop offset="79.32%" stop-color="#70c239" stop-opacity="1"/>
   <stop offset="87.76%" stop-color="#47b841" stop-opacity="1"/>
   <stop offset="95.58%" stop-color="#1bac49" stop-opacity="1"/>
   <stop offset="100%" stop-color="#00a550" stop-opacity="1"/>
  </linearGradient>
  <clipPath id="Clip6">
   <path d="M0 0 L12.7743 0 L12.7743 8.87372 L0 8.87372 L0 0 Z" transform="translate(102.896, 128.366)"/>
  </clipPath>
  <linearGradient id="Grad4" y1="3.18245" x1="8.46387" y2="3.18245" gradientUnits="userSpaceOnUse" x2="0.120917">
   <stop offset="0%" stop-color="#d8de22" stop-opacity="1"/>
   <stop offset="23.95%" stop-color="#d4dd23" stop-opacity="1"/>
   <stop offset="38.36%" stop-color="#ccdb25" stop-opacity="1"/>
   <stop offset="50.25%" stop-color="#c0d727" stop-opacity="1"/>
   <stop offset="60.76%" stop-color="#a9d22c" stop-opacity="1"/>
   <stop offset="70.37%" stop-color="#90cb32" stop-opacity="1"/>
   <stop offset="79.32%" stop-color="#70c239" stop-opacity="1"/>
   <stop offset="87.76%" stop-color="#47b841" stop-opacity="1"/>
   <stop offset="95.58%" stop-color="#1bac49" stop-opacity="1"/>
   <stop offset="100%" stop-color="#00a550" stop-opacity="1"/>
  </linearGradient>
  <linearGradient id="Grad5" y1="1.88289" x1="5.26251" y2="1.88289" gradientUnits="userSpaceOnUse" x2="0.0313993">
   <stop offset="0%" stop-color="#d8de22" stop-opacity="1"/>
   <stop offset="23.95%" stop-color="#d4dd23" stop-opacity="1"/>
   <stop offset="38.36%" stop-color="#ccdb25" stop-opacity="1"/>
   <stop offset="50.25%" stop-color="#c0d727" stop-opacity="1"/>
   <stop offset="60.76%" stop-color="#a9d22c" stop-opacity="1"/>
   <stop offset="70.37%" stop-color="#90cb32" stop-opacity="1"/>
   <stop offset="79.32%" stop-color="#70c239" stop-opacity="1"/>
   <stop offset="87.76%" stop-color="#47b841" stop-opacity="1"/>
   <stop offset="95.58%" stop-color="#1bac49" stop-opacity="1"/>
   <stop offset="100%" stop-color="#00a550" stop-opacity="1"/>
  </linearGradient>
  <linearGradient id="Grad6" y1="1.30902" x1="0.0399805" y2="1.30902" gradientUnits="userSpaceOnUse" x2="4.12053">
   <stop offset="0%" stop-color="#d8de22" stop-opacity="1"/>
   <stop offset="23.95%" stop-color="#d4dd23" stop-opacity="1"/>
   <stop offset="38.36%" stop-color="#ccdb25" stop-opacity="1"/>
   <stop offset="50.25%" stop-color="#c0d727" stop-opacity="1"/>
   <stop offset="60.76%" stop-color="#a9d22c" stop-opacity="1"/>
   <stop offset="70.37%" stop-color="#90cb32" stop-opacity="1"/>
   <stop offset="79.32%" stop-color="#70c239" stop-opacity="1"/>
   <stop offset="87.76%" stop-color="#47b841" stop-opacity="1"/>
   <stop offset="95.58%" stop-color="#1bac49" stop-opacity="1"/>
   <stop offset="100%" stop-color="#00a550" stop-opacity="1"/>
  </linearGradient>
 </defs>
 <g id="Background">
  <g id="tower" clip-path="url(#Clip0)">
   <g id="Group6" clip-path="url(#Clip1)">
    <g id="Group2" clip-path="url(#Clip2)">
     <g id="Group1" clip-path="url(#Clip3)">
      <path style="fill:#009cd0; fill-rule:nonzero;stroke:none;" d="M0 20.5753 L0 19.8927 C0.975134 19.8927 1.4627 19.6977 1.4627 19.2101 L1.4627 1.4627 C1.4627 0.975134 0.975134 0.682594 0 0.682594 L0 0 L13.8469 0 C16.3823 0 18.3325 0.487567 19.7952 1.36519 C21.2579 2.34032 21.9405 3.90054 21.9405 6.04583 C21.9405 8.19113 21.2579 9.84885 19.7952 10.7265 C18.3325 11.6041 16.3823 12.0917 13.8469 12.0917 L5.94832 12.0917 L5.94832 19.0151 C5.94832 19.5027 6.33837 19.6977 7.21599 19.6977 L7.21599 20.3803 L0 20.3803 L0 20.5753 Z M14.3345 8.58118 C15.2121 8.58118 15.9922 8.38615 16.5773 8.09361 C17.1624 7.80107 17.5524 7.11848 17.5524 6.14334 C17.5524 5.16821 17.2599 4.48562 16.5773 4.19308 C15.9922 3.90054 15.2121 3.70551 14.3345 3.70551 L5.94832 3.70551 L5.94832 8.67869 L14.3345 8.67869 L14.3345 8.58118 Z" transform="translate(0.0193237, 78.244)"/>
      <path style="fill:#009cd0; fill-rule:nonzero;stroke:none;" d="M0.195027 19.8927 C0.58508 19.7952 0.780107 19.6977 0.975134 19.4052 C1.17016 19.1126 1.36519 18.8201 1.56021 18.43 L8.87372 3.21794 C9.06875 2.9254 9.26377 2.53535 9.36129 2.24281 C9.4588 1.95027 9.55631 1.75524 9.55631 1.4627 C9.55631 1.17016 9.4588 0.975134 9.26377 0.877621 C9.06875 0.780107 8.87372 0.682594 8.67869 0.682594 L8.67869 0 L15.3096 0 L15.3096 0.682594 C15.1146 0.780107 14.9196 0.780107 14.7245 0.877621 C14.5295 0.975134 14.432 1.17016 14.432 1.4627 C14.432 1.65773 14.432 1.85275 14.5295 2.04778 C14.627 2.24281 14.7245 2.53535 14.9196 2.82789 L23.1107 18.7226 C23.2082 19.0151 23.4032 19.2101 23.5982 19.3077 C23.7933 19.4052 24.0858 19.6002 24.3784 19.6977 L24.3784 20.3803 L17.4549 20.3803 L17.4549 19.6977 C17.5524 19.6977 17.6499 19.6977 17.845 19.6002 C18.04 19.5027 18.04 19.4052 18.04 19.2101 C18.04 18.9176 17.9425 18.6251 17.7474 18.235 L16.2847 15.3096 L6.63091 15.3096 L5.16821 18.04 C4.87567 18.6251 4.77816 19.0151 4.77816 19.2101 C4.77816 19.5027 5.0707 19.6002 5.55826 19.6002 L5.55826 20.2828 L0 20.2828 L0 19.8927 L0.195027 19.8927 Z M15.1146 12.5792 L11.7991 5.26572 L8.09361 12.5792 L15.1146 12.5792 Z" transform="translate(23.9101, 78.244)"/>
      <path style="fill:#009cd0; fill-rule:nonzero;stroke:none;" d="M13.5544 0 C14.822 0 15.9922 0.0975134 16.9673 0.29254 C18.04 0.487567 18.9176 0.877621 19.6002 1.36519 C20.3803 1.85275 20.8679 2.43784 21.2579 3.21794 C21.648 3.99805 21.843 4.97318 21.843 6.04583 C21.843 7.80107 21.3554 9.06875 20.2828 10.0439 C19.2101 10.9215 17.845 11.6041 16.1872 11.8966 L21.4529 19.3077 C21.648 19.6002 21.843 19.6977 22.1355 19.7952 C22.4281 19.8927 22.6231 19.8927 22.8181 19.8927 L22.8181 20.5753 L15.4071 20.5753 L15.4071 19.8927 C15.6021 19.8927 15.7972 19.8927 15.9922 19.7952 C16.1872 19.6977 16.2847 19.6002 16.2847 19.5027 C16.2847 19.4052 16.1872 19.2101 16.0897 19.0151 C15.9922 18.8201 15.7972 18.6251 15.6021 18.3325 L11.214 12.1892 L5.55826 12.1892 L5.55826 19.1126 C5.55826 19.3077 5.65578 19.5027 5.8508 19.6002 C6.04583 19.6977 6.33837 19.7952 6.82594 19.7952 L6.82594 20.4778 L0 20.4778 L0 19.7952 C0.780107 19.7952 1.17016 19.6002 1.17016 19.1126 L1.17016 1.4627 C1.17016 0.975134 0.780107 0.780107 0 0.780107 L0 0.0975134 L13.5544 0.0975134 L13.5544 0 Z M12.5792 9.16626 C13.5544 9.16626 14.3345 9.06875 14.9196 8.97123 C15.5046 8.87372 16.0897 8.58118 16.3823 8.38615 C16.7723 8.09361 16.9673 7.80107 17.1624 7.50853 C17.3574 7.11848 17.3574 6.72843 17.3574 6.33837 C17.3574 5.94832 17.2599 5.55826 17.1624 5.16821 C16.9673 4.77816 16.7723 4.48562 16.3823 4.29059 C15.9922 3.99805 15.5046 3.80302 14.9196 3.70551 C14.3345 3.608 13.4569 3.51048 12.5792 3.51048 L5.75329 3.51048 L5.75329 9.26377 L12.5792 9.26377 L12.5792 9.16626 Z" transform="translate(52.6766, 78.244)"/>
      <path style="fill:#009cd0; fill-rule:nonzero;stroke:none;" d="M0.195027 19.8927 C0.58508 19.7952 0.780107 19.6977 0.975134 19.4052 C1.17016 19.1126 1.36519 18.8201 1.56021 18.43 L8.87372 3.21794 C9.06875 2.9254 9.26377 2.53535 9.36129 2.24281 C9.4588 1.95027 9.55631 1.75524 9.55631 1.4627 C9.55631 1.17016 9.4588 0.975134 9.26377 0.877621 C9.06875 0.780107 8.87372 0.682594 8.67869 0.682594 L8.67869 0 L15.3096 0 L15.3096 0.682594 C15.1146 0.780107 14.9196 0.780107 14.7245 0.877621 C14.5295 0.975134 14.432 1.17016 14.432 1.4627 C14.432 1.65773 14.432 1.85275 14.5295 2.04778 C14.627 2.24281 14.7245 2.53535 14.9196 2.82789 L23.1107 18.7226 C23.2082 19.0151 23.4032 19.2101 23.5982 19.3077 C23.7933 19.4052 24.0858 19.6002 24.3784 19.6977 L24.3784 20.3803 L17.4549 20.3803 L17.4549 19.6977 C17.5524 19.6977 17.6499 19.6977 17.845 19.6002 C18.04 19.5027 18.04 19.4052 18.04 19.2101 C18.04 18.9176 17.9425 18.6251 17.7474 18.235 L16.2847 15.3096 L6.63091 15.3096 L5.16821 18.04 C4.87567 18.6251 4.77816 19.0151 4.77816 19.2101 C4.77816 19.5027 5.0707 19.6002 5.55826 19.6002 L5.55826 20.2828 L0 20.2828 L0 19.8927 L0.195027 19.8927 Z M15.1146 12.5792 L11.7991 5.26572 L8.09361 12.5792 L15.1146 12.5792 Z" transform="translate(78.7126, 78.244)"/>
      <path style="fill:#009cd0; fill-rule:nonzero;stroke:none;" d="M13.0668 0 C14.5295 0 15.8947 0.195027 17.0648 0.58508 C18.3325 0.975134 19.4052 1.65773 20.2828 2.43784 C21.1604 3.31546 21.9405 4.3881 22.4281 5.65578 C22.9157 6.92345 23.2082 8.48367 23.2082 10.2389 C23.2082 11.9941 22.9157 13.4569 22.4281 14.822 C21.9405 16.0897 21.1604 17.1624 20.2828 18.04 C19.4052 18.9176 18.235 19.5027 17.0648 19.8927 C15.7972 20.2828 14.432 20.4778 13.0668 20.4778 L0 20.4778 L0 19.7952 C0.58508 19.7952 0.877621 19.6002 0.877621 19.1126 L0.877621 1.4627 C0.877621 0.975134 0.58508 0.780107 0 0.780107 L0 0.0975134 L13.0668 0.0975134 L13.0668 0 Z M11.5066 17.2599 C12.7743 17.2599 13.8469 17.1624 14.7245 16.9673 C15.6021 16.7723 16.3823 16.3823 16.9673 15.8947 C17.5524 15.4071 18.04 14.627 18.3325 13.7494 C18.6251 12.8718 18.8201 11.7016 18.8201 10.4339 C18.8201 9.06875 18.6251 7.9961 18.3325 7.11848 C18.04 6.24086 17.5524 5.55826 16.9673 4.97318 C16.3823 4.48562 15.6021 4.09556 14.7245 3.90054 C13.8469 3.70551 12.7743 3.608 11.5066 3.608 L5.36324 3.608 L5.36324 17.2599 L11.5066 17.2599 Z" transform="translate(107.382, 78.244)"/>
      <path style="fill:#009cd0; fill-rule:nonzero;stroke:none;" d="M0 19.7952 C0.682594 19.7952 1.07265 19.6002 1.07265 19.1126 L1.07265 1.36519 C1.07265 0.877621 0.682594 0.682594 0 0.682594 L0 0 L6.5334 0 L6.5334 0.58508 C5.8508 0.58508 5.46075 0.780107 5.46075 1.26767 L5.46075 19.1126 C5.46075 19.6002 5.8508 19.7952 6.5334 19.7952 L6.5334 20.4778 L0 20.4778 L0 19.7952 Z" transform="translate(136.246, 78.3415)"/>
      <path style="fill:#009cd0; fill-rule:nonzero;stroke:none;" d="M2.34032 14.432 L2.73038 14.627 C2.73038 14.822 2.82789 15.1146 2.9254 15.2121 C3.12043 15.5046 3.51048 15.7972 3.99805 16.0897 C4.58313 16.3823 5.16821 16.6748 5.8508 16.8698 C6.5334 17.0648 7.31351 17.2599 7.9961 17.4549 C8.77621 17.5524 9.4588 17.6499 10.0439 17.6499 C10.5314 17.6499 11.1165 17.6499 11.7991 17.5524 C12.4817 17.4549 13.1643 17.3574 13.8469 17.1624 C14.5295 16.9673 15.1146 16.6748 15.6021 16.2847 C16.0897 15.8947 16.3823 15.4071 16.3823 14.822 C16.3823 14.237 16.1872 13.7494 15.6997 13.4569 C15.2121 13.1643 14.627 12.9693 13.8469 12.8718 C13.0668 12.7743 12.2867 12.6767 11.3116 12.5792 C10.3364 12.5792 9.36129 12.4817 8.38615 12.3842 C7.41102 12.2867 6.43588 12.1892 5.46075 11.9941 C4.48562 11.7991 3.608 11.5066 2.9254 11.1165 C2.14529 10.7265 1.56021 10.1414 1.07265 9.36129 C0.58508 8.58118 0.390054 7.60605 0.390054 6.43588 C0.390054 5.65578 0.58508 4.87567 0.975134 4.09556 C1.36519 3.31546 1.95027 2.63286 2.73038 2.04778 C3.51048 1.4627 4.48562 0.975134 5.75329 0.58508 C6.92345 0.195027 8.38615 0 10.0439 0 C11.4091 0 12.6767 0.0975134 13.6519 0.29254 C14.7245 0.487567 15.6021 0.682594 16.2847 0.975134 C17.0648 1.17016 17.6499 1.4627 18.1375 1.65773 C18.6251 1.85275 19.1126 1.95027 19.4052 1.95027 C19.7952 1.95027 19.9902 1.85275 20.1853 1.75524 L20.6728 2.04778 L17.9425 6.92345 L17.5524 6.72843 C17.4549 6.33837 17.3574 6.04583 17.2599 5.8508 C17.0648 5.55826 16.6748 5.26572 16.1872 4.97318 C15.6997 4.68064 15.1146 4.3881 14.432 4.19308 C13.7494 3.99805 13.0668 3.80302 12.2867 3.608 C11.5066 3.51048 10.7265 3.41297 10.0439 3.41297 C9.4588 3.41297 8.87372 3.41297 8.28864 3.51048 C7.70356 3.608 7.11848 3.70551 6.63091 3.90054 C6.14334 4.09556 5.75329 4.29059 5.36324 4.58313 C5.0707 4.87567 4.87567 5.26572 4.87567 5.65578 C4.87567 6.24086 5.0707 6.72843 5.55826 7.02097 C6.04583 7.31351 6.63091 7.60605 7.41102 7.70356 C8.19113 7.89859 8.97123 7.9961 9.94637 7.9961 C10.9215 8.09361 11.8966 8.09361 12.8718 8.19113 C13.8469 8.28864 14.822 8.38615 15.7972 8.58118 C16.7723 8.77621 17.6499 9.06875 18.3325 9.55631 C19.1126 9.94637 19.6977 10.5314 20.1853 11.3116 C20.6728 12.0917 20.8679 12.9693 20.8679 14.1394 C20.8679 15.5046 20.4778 16.5773 19.7952 17.4549 C19.1126 18.3325 18.1375 19.0151 17.0648 19.5027 C15.9922 19.9902 14.822 20.2828 13.5544 20.4778 C12.2867 20.6728 11.1165 20.7704 10.0439 20.7704 C8.58118 20.7704 7.31351 20.6728 6.24086 20.4778 C5.26572 20.2828 4.3881 20.0878 3.70551 19.8927 C3.02292 19.6002 2.53535 19.4052 2.14529 19.2101 C1.75524 19.0151 1.36519 18.9176 1.07265 18.9176 C0.877621 18.9176 0.682594 19.0151 0.58508 19.2101 L0 18.9176 L2.34032 14.432 Z" transform="translate(148.63, 77.9514)"/>
      <path style="fill:#009cd0; fill-rule:nonzero;stroke:none;" d="M19.5027 5.16821 C19.5027 4.87567 19.4052 4.68064 19.2101 4.48562 C19.0151 4.3881 18.6251 4.29059 18.04 4.29059 L5.26572 4.29059 L5.26572 9.16626 L12.9693 9.16626 C13.4569 9.16626 13.9444 9.06875 14.237 8.97123 C14.5295 8.87372 14.627 8.48367 14.627 7.89859 L15.3096 7.89859 L15.3096 14.0419 L14.627 14.0419 C14.627 13.4569 14.5295 13.0668 14.237 12.8718 C13.9444 12.6767 13.5544 12.5792 12.9693 12.5792 L5.26572 12.5792 L5.26572 17.9425 L18.43 17.9425 C18.8201 17.9425 19.1126 17.845 19.4052 17.6499 C19.6977 17.4549 19.7952 17.2599 19.7952 16.8698 L20.4778 16.8698 L20.4778 22.2331 L19.7952 22.2331 C19.7952 21.843 19.6977 21.648 19.4052 21.5505 C19.1126 21.4529 18.8201 21.4529 18.43 21.4529 L0 21.4529 L0 20.7704 C0.195027 20.7704 0.390054 20.6728 0.487567 20.5753 C0.58508 20.4778 0.682594 20.2828 0.682594 20.0878 L0.682594 2.34032 C0.682594 2.14529 0.58508 1.95027 0.487567 1.85275 C0.29254 1.75524 0.195027 1.65773 0 1.65773 L0 0.975134 L18.04 0.975134 C18.6251 0.975134 19.0151 0.877621 19.2101 0.682594 C19.4052 0.487567 19.5027 0.29254 19.5027 0 L20.1853 0 L20.1853 5.16821 L19.5027 5.16821 L19.5027 5.16821 Z" transform="translate(175.738, 77.3664)"/>
     </g>
    </g>
    <g id="Group3" clip-path="url(#Clip4)">
     <path style="fill:#6d7071; fill-rule:nonzero;stroke:none;" d="M7.11848 11.5066 C7.11848 11.8966 6.92345 12.1892 6.43588 12.4817 C5.94832 12.7743 5.46075 12.8718 4.77816 12.8718 L2.04778 12.8718 C1.26767 12.8718 0.780107 12.6767 0.487567 12.3842 C0.195027 12.0917 0 11.7991 0 11.5066 L0 11.019 L0 1.95027 L0 1.36519 C0 0.975134 0.195027 0.682594 0.487567 0.390054 C0.780107 0.0975134 1.36519 0 2.14529 0 L5.26572 0 C6.04583 0 6.5334 0.195027 6.82594 0.390054 C7.11848 0.682594 7.21599 0.975134 7.21599 1.26767 L7.21599 4.09556 L7.11848 11.5066 Z M1.17016 7.41102 L1.17016 11.214 C1.17016 11.6041 1.26767 11.8966 1.4627 12.0917 C1.65773 12.2867 2.14529 12.3842 2.9254 12.3842 L4.48562 12.3842 C5.0707 12.3842 5.46075 12.2867 5.65578 12.0917 C5.8508 11.8966 5.94832 11.6041 5.94832 11.3116 L5.94832 8.97123 L5.94832 6.33837 L5.94832 4.19308 L5.94832 1.85275 C5.94832 1.4627 5.8508 1.17016 5.65578 0.975134 C5.46075 0.780107 5.0707 0.682594 4.48562 0.682594 L2.43784 0.682594 C2.04778 0.682594 1.75524 0.780107 1.56021 0.975134 C1.36519 1.17016 1.26767 1.4627 1.26767 1.75524 L1.26767 4.68064 L1.26767 5.26572 L1.26767 6.43588 L1.26767 7.41102 L1.17016 7.41102 Z" transform="translate(0.21435, 126.416)"/>
     <path style="fill:#6d7071; fill-rule:nonzero;stroke:none;" d="M1.26767 7.41102 L1.26767 11.214 C1.26767 11.6041 1.36519 11.8966 1.56021 12.0917 C1.75524 12.2867 2.24281 12.3842 3.02292 12.3842 L4.58313 12.3842 C5.16821 12.3842 5.55826 12.2867 5.75329 12.0917 C5.94832 11.8966 6.04583 11.6041 6.04583 11.214 L6.04583 8.87372 L7.11848 8.87372 L7.11848 11.7016 C7.11848 11.9941 7.02097 12.2867 6.63091 12.5792 C6.24086 12.8718 5.75329 12.9693 5.16821 12.9693 L2.04778 12.9693 C1.26767 12.9693 0.780107 12.7743 0.487567 12.4817 C0.195027 12.1892 0 11.8966 0 11.6041 L0 11.019 L0 1.95027 L0 1.36519 C0 0.975134 0.195027 0.682594 0.487567 0.390054 C0.780107 0.0975134 1.36519 0 2.14529 0 L5.0707 0 C5.75329 0 6.24086 0.195027 6.63091 0.390054 C7.02097 0.682594 7.21599 0.975134 7.21599 1.26767 L7.21599 4.09556 L6.14334 4.09556 L6.14334 1.75524 C6.14334 1.36519 6.04583 1.07265 5.8508 0.877621 C5.65578 0.682594 5.26572 0.58508 4.68064 0.58508 L2.43784 0.58508 C2.04778 0.58508 1.75524 0.682594 1.56021 0.877621 C1.36519 1.07265 1.26767 1.36519 1.26767 1.65773 L1.26767 4.58313 L1.26767 5.16821 L1.26767 6.33837 L1.26767 7.41102 L1.26767 7.41102 Z" transform="translate(21.4723, 126.416)"/>
     <path style="fill:#6d7071; fill-rule:nonzero;stroke:none;" d="M0 12.8718 L0 0 L7.02097 0 L7.02097 0.58508 L1.26767 0.58508 L1.26767 5.94832 L6.5334 5.94832 L6.5334 6.63091 L1.26767 6.63091 L1.26767 12.2867 L7.21599 12.2867 L7.21599 12.9693 L0 12.9693 L0 12.8718 Z" transform="translate(42.7302, 126.513)"/>
     <path style="fill:#6d7071; fill-rule:nonzero;stroke:none;" d="M3.99805 2.53535 L1.36519 12.8718 L0 12.8718 L3.70551 0 L5.0707 0 L9.06875 12.8718 L7.60605 12.8718 L4.29059 1.17016 L3.99805 2.53535 Z" transform="translate(63.8906, 126.513)"/>
     <path style="fill:#6d7071; fill-rule:nonzero;stroke:none;" d="M0 0 L1.26767 0 L5.94832 9.75134 L5.94832 0 L7.11848 0 L7.11848 12.8718 L6.14334 12.8718 L1.26767 2.63286 L1.26767 12.8718 L0 12.8718 L0 0 Z" transform="translate(86.6112, 126.513)"/>
     <path style="fill:#6d7071; fill-rule:nonzero;stroke:none;" d="M4.87567 11.6041 L7.02097 3.90054 L8.19113 0 L9.75134 0 L5.46075 12.8718 L3.99805 12.8718 L0 0 L1.4627 0 L2.63286 3.90054 L4.87567 11.6041 Z" transform="translate(123.276, 126.416)"/>
     <path style="fill:#6d7071; fill-rule:nonzero;stroke:none;" d="M0 12.9693 L0 0 L1.26767 0 L1.26767 12.9693 L0 12.9693 Z" transform="translate(147.362, 126.416)"/>
     <path style="fill:#6d7071; fill-rule:nonzero;stroke:none;" d="M0 12.8718 L0 0 L7.02097 0 L7.02097 0.58508 L1.26767 0.58508 L1.26767 5.94832 L6.5334 5.94832 L6.5334 6.63091 L1.26767 6.63091 L1.26767 12.2867 L7.21599 12.2867 L7.21599 12.9693 L0 12.9693 L0 12.8718 Z" transform="translate(162.769, 126.513)"/>
     <path style="fill:#6d7071; fill-rule:nonzero;stroke:none;" d="M11.9941 11.6041 L13.9444 3.90054 L15.0171 0 L16.3823 0 L12.4817 12.9693 L11.1165 12.9693 L8.19113 1.36519 L4.97318 12.9693 L3.608 12.9693 L0 0.0975134 L1.36519 0.0975134 L2.43784 3.99805 L4.48562 11.7016 L6.43588 3.99805 L7.50853 0.0975134 L8.97123 0.0975134 L9.94637 3.99805 L11.9941 11.6041 Z" transform="translate(181.297, 126.416)"/>
    </g>
    <path style="fill:url(#Grad0); fill-rule:nonzero;stroke:none;" d="M198.927 17.0648 C199.025 17.0648 183.813 18.6251 159.629 18.6251 C137.104 18.6251 106.68 15.7972 79.4734 12.9693 C36.665 8.38615 17.845 13.6519 0 14.9196 C21.843 8.67869 32.667 6.43588 59.9707 7.60605 C86.2019 9.94637 95.9532 11.4091 104.242 12.6767 C112.628 13.9444 138.176 15.3096 147.44 15.6021 C147.44 15.6021 98.001 10.1414 83.8615 7.60605 C80.0585 7.41102 59.1906 2.04778 13.4569 5.55826 C31.6919 0 66.2116 1.26767 84.0566 4.77816 C93.9054 6.72843 127.06 11.4091 155.339 14.1394 C178.742 16.4798 198.732 17.0648 198.927 17.0648 Z" transform="translate(0.994458, 102.525)"/>
    <g id="Group4" clip-path="url(#Clip5)">
     <path style="fill:url(#Grad1); fill-rule:nonzero;stroke:none;" d="M1.95027 3.51048 C1.95027 3.51048 4.3881 0 11.019 1.85275 C6.92345 4.3881 7.41102 6.5334 4.97318 7.21599 C3.51048 6.33837 0 6.63091 0 6.63091 L1.95027 3.51048 Z" transform="translate(139.171, 63.0319)"/>
     <path style="fill:url(#Grad2); fill-rule:nonzero;stroke:none;" d="M6.82594 4.87567 C6.82594 4.87567 6.72843 4.48562 3.51048 4.19308 C0.29254 3.90054 0 0.29254 0 0.29254 C0 0.29254 3.608 0 5.36324 1.75524 C7.02097 3.51048 6.82594 4.87567 6.82594 4.87567 Z" transform="translate(139.073, 69.9553)"/>
     <path style="fill:url(#Grad3); fill-rule:nonzero;stroke:none;" d="M3.70551 0.780107 C2.34032 0.58508 0 0 0 0 C0 0 0.29254 1.56021 1.65773 2.63286 C3.02292 3.70551 5.36324 3.608 5.36324 3.608 C5.36324 3.608 5.0707 0.975134 3.70551 0.780107 Z" transform="translate(133.32, 66.2498)"/>
    </g>
    <g id="Group5" clip-path="url(#Clip6)">
     <path style="fill:url(#Grad4); fill-rule:nonzero;stroke:none;" d="M1.56021 2.63286 C1.56021 2.63286 3.41297 0 8.38615 1.36519 C5.26572 3.21794 5.65578 4.97318 3.80302 5.46075 C2.73038 4.77816 0 4.97318 0 4.97318 L1.56021 2.63286 Z" transform="translate(107.284, 128.366)"/>
     <path style="fill:url(#Grad5); fill-rule:nonzero;stroke:none;" d="M5.26572 3.608 C5.26572 3.608 5.16821 3.31546 2.73038 3.12043 C0.29254 2.9254 0 0.195027 0 0.195027 C0 0.195027 2.73038 0 4.09556 1.26767 C5.36324 2.63286 5.26572 3.608 5.26572 3.608 Z" transform="translate(107.284, 133.632)"/>
     <path style="fill:url(#Grad6); fill-rule:nonzero;stroke:none;" d="M2.82789 0.58508 C1.75524 0.487567 0 0 0 0 C0 0 0.195027 1.17016 1.26767 1.95027 C2.34032 2.82789 4.09556 2.73038 4.09556 2.73038 C4.09556 2.73038 3.90054 0.682594 2.82789 0.58508 Z" transform="translate(102.896, 130.804)"/>
    </g>
   </g>
  </g>
 </g>
</svg>
